G04 EAGLE Gerber RS-274X export*
G75*
%MOMM*%
%FSLAX34Y34*%
%LPD*%
%INCopper Layer 2*%
%IPPOS*%
%AMOC8*
5,1,8,0,0,1.08239X$1,22.5*%
G01*
%ADD10C,1.422400*%
%ADD11C,1.120000*%
%ADD12C,4.191000*%
%ADD13C,1.244600*%
%ADD14C,1.960000*%
%ADD15C,0.609600*%

G36*
X1469508Y2556D02*
X1469508Y2556D01*
X1469627Y2563D01*
X1469665Y2576D01*
X1469706Y2581D01*
X1469816Y2624D01*
X1469929Y2661D01*
X1469964Y2683D01*
X1470001Y2698D01*
X1470097Y2767D01*
X1470198Y2831D01*
X1470226Y2861D01*
X1470259Y2884D01*
X1470335Y2976D01*
X1470416Y3063D01*
X1470436Y3098D01*
X1470461Y3129D01*
X1470512Y3237D01*
X1470570Y3341D01*
X1470580Y3381D01*
X1470597Y3417D01*
X1470619Y3534D01*
X1470649Y3649D01*
X1470653Y3709D01*
X1470657Y3729D01*
X1470655Y3750D01*
X1470659Y3810D01*
X1470659Y1062990D01*
X1470644Y1063108D01*
X1470637Y1063227D01*
X1470624Y1063265D01*
X1470619Y1063306D01*
X1470576Y1063416D01*
X1470539Y1063529D01*
X1470517Y1063564D01*
X1470502Y1063601D01*
X1470433Y1063697D01*
X1470369Y1063798D01*
X1470339Y1063826D01*
X1470316Y1063859D01*
X1470224Y1063935D01*
X1470137Y1064016D01*
X1470102Y1064036D01*
X1470071Y1064061D01*
X1469963Y1064112D01*
X1469859Y1064170D01*
X1469819Y1064180D01*
X1469783Y1064197D01*
X1469666Y1064219D01*
X1469551Y1064249D01*
X1469491Y1064253D01*
X1469471Y1064257D01*
X1469450Y1064255D01*
X1469390Y1064259D01*
X3810Y1064259D01*
X3692Y1064244D01*
X3573Y1064237D01*
X3535Y1064224D01*
X3494Y1064219D01*
X3384Y1064176D01*
X3271Y1064139D01*
X3236Y1064117D01*
X3199Y1064102D01*
X3103Y1064033D01*
X3002Y1063969D01*
X2974Y1063939D01*
X2941Y1063916D01*
X2865Y1063824D01*
X2784Y1063737D01*
X2764Y1063702D01*
X2739Y1063671D01*
X2688Y1063563D01*
X2630Y1063459D01*
X2620Y1063419D01*
X2603Y1063383D01*
X2581Y1063266D01*
X2551Y1063151D01*
X2547Y1063091D01*
X2543Y1063071D01*
X2545Y1063050D01*
X2541Y1062990D01*
X2541Y3810D01*
X2556Y3692D01*
X2563Y3573D01*
X2576Y3535D01*
X2581Y3494D01*
X2624Y3384D01*
X2661Y3271D01*
X2683Y3236D01*
X2698Y3199D01*
X2767Y3103D01*
X2831Y3002D01*
X2861Y2974D01*
X2884Y2941D01*
X2976Y2865D01*
X3063Y2784D01*
X3098Y2764D01*
X3129Y2739D01*
X3237Y2688D01*
X3341Y2630D01*
X3381Y2620D01*
X3417Y2603D01*
X3534Y2581D01*
X3649Y2551D01*
X3709Y2547D01*
X3729Y2543D01*
X3750Y2545D01*
X3810Y2541D01*
X1469390Y2541D01*
X1469508Y2556D01*
G37*
%LPC*%
G36*
X1417726Y1005204D02*
X1417726Y1005204D01*
X1409091Y1008781D01*
X1402481Y1015391D01*
X1398904Y1024026D01*
X1398904Y1033374D01*
X1402481Y1042009D01*
X1409091Y1048619D01*
X1417726Y1052196D01*
X1427074Y1052196D01*
X1435709Y1048619D01*
X1442319Y1042009D01*
X1445896Y1033374D01*
X1445896Y1024026D01*
X1442319Y1015391D01*
X1435709Y1008781D01*
X1427074Y1005204D01*
X1417726Y1005204D01*
G37*
%LPD*%
%LPC*%
G36*
X33426Y1005204D02*
X33426Y1005204D01*
X24791Y1008781D01*
X18181Y1015391D01*
X14604Y1024026D01*
X14604Y1033374D01*
X18181Y1042009D01*
X24791Y1048619D01*
X33426Y1052196D01*
X42774Y1052196D01*
X51409Y1048619D01*
X58019Y1042009D01*
X61596Y1033374D01*
X61596Y1024026D01*
X58019Y1015391D01*
X51409Y1008781D01*
X42774Y1005204D01*
X33426Y1005204D01*
G37*
%LPD*%
%LPC*%
G36*
X33426Y27304D02*
X33426Y27304D01*
X24791Y30881D01*
X18181Y37491D01*
X14604Y46126D01*
X14604Y55474D01*
X18181Y64109D01*
X24791Y70719D01*
X33426Y74296D01*
X42774Y74296D01*
X51409Y70719D01*
X58019Y64109D01*
X61596Y55474D01*
X61596Y46126D01*
X58019Y37491D01*
X51409Y30881D01*
X42774Y27304D01*
X33426Y27304D01*
G37*
%LPD*%
%LPC*%
G36*
X1417726Y27304D02*
X1417726Y27304D01*
X1409091Y30881D01*
X1402481Y37491D01*
X1398904Y46126D01*
X1398904Y55474D01*
X1402481Y64109D01*
X1409091Y70719D01*
X1417726Y74296D01*
X1427074Y74296D01*
X1435709Y70719D01*
X1442319Y64109D01*
X1445896Y55474D01*
X1445896Y46126D01*
X1442319Y37491D01*
X1435709Y30881D01*
X1427074Y27304D01*
X1417726Y27304D01*
G37*
%LPD*%
%LPC*%
G36*
X965245Y990759D02*
X965245Y990759D01*
X960636Y992668D01*
X957108Y996196D01*
X955199Y1000805D01*
X955199Y1005795D01*
X957108Y1010404D01*
X960636Y1013932D01*
X965245Y1015841D01*
X970235Y1015841D01*
X974844Y1013932D01*
X978372Y1010404D01*
X980281Y1005795D01*
X980281Y1000805D01*
X978372Y996196D01*
X974844Y992668D01*
X970235Y990759D01*
X965245Y990759D01*
G37*
%LPD*%
%LPC*%
G36*
X528365Y990759D02*
X528365Y990759D01*
X523756Y992668D01*
X520228Y996196D01*
X518319Y1000805D01*
X518319Y1005795D01*
X520228Y1010404D01*
X523756Y1013932D01*
X528365Y1015841D01*
X533355Y1015841D01*
X537964Y1013932D01*
X541492Y1010404D01*
X543401Y1005795D01*
X543401Y1000805D01*
X541492Y996196D01*
X537964Y992668D01*
X533355Y990759D01*
X528365Y990759D01*
G37*
%LPD*%
%LPC*%
G36*
X965245Y762159D02*
X965245Y762159D01*
X960636Y764068D01*
X957108Y767596D01*
X955199Y772205D01*
X955199Y777195D01*
X957108Y781804D01*
X960636Y785332D01*
X965245Y787241D01*
X970235Y787241D01*
X974844Y785332D01*
X978372Y781804D01*
X980281Y777195D01*
X980281Y772205D01*
X978372Y767596D01*
X974844Y764068D01*
X970235Y762159D01*
X965245Y762159D01*
G37*
%LPD*%
%LPC*%
G36*
X528365Y762159D02*
X528365Y762159D01*
X523756Y764068D01*
X520228Y767596D01*
X518319Y772205D01*
X518319Y777195D01*
X520228Y781804D01*
X523756Y785332D01*
X528365Y787241D01*
X533355Y787241D01*
X537964Y785332D01*
X541492Y781804D01*
X543401Y777195D01*
X543401Y772205D01*
X541492Y767596D01*
X537964Y764068D01*
X533355Y762159D01*
X528365Y762159D01*
G37*
%LPD*%
%LPC*%
G36*
X237845Y228559D02*
X237845Y228559D01*
X233310Y230438D01*
X229838Y233910D01*
X227959Y238445D01*
X227959Y243355D01*
X229838Y247890D01*
X233310Y251362D01*
X237845Y253241D01*
X242755Y253241D01*
X247290Y251362D01*
X250762Y247890D01*
X252641Y243355D01*
X252641Y238445D01*
X250762Y233910D01*
X247290Y230438D01*
X242755Y228559D01*
X237845Y228559D01*
G37*
%LPD*%
%LPC*%
G36*
X112845Y178559D02*
X112845Y178559D01*
X108310Y180438D01*
X104838Y183910D01*
X102959Y188445D01*
X102959Y193355D01*
X104838Y197890D01*
X108310Y201362D01*
X112845Y203241D01*
X117755Y203241D01*
X122290Y201362D01*
X125762Y197890D01*
X127641Y193355D01*
X127641Y188445D01*
X125762Y183910D01*
X122290Y180438D01*
X117755Y178559D01*
X112845Y178559D01*
G37*
%LPD*%
%LPC*%
G36*
X237845Y178559D02*
X237845Y178559D01*
X233310Y180438D01*
X229838Y183910D01*
X227959Y188445D01*
X227959Y193355D01*
X229838Y197890D01*
X233310Y201362D01*
X237845Y203241D01*
X242755Y203241D01*
X247290Y201362D01*
X250762Y197890D01*
X252641Y193355D01*
X252641Y188445D01*
X250762Y183910D01*
X247290Y180438D01*
X242755Y178559D01*
X237845Y178559D01*
G37*
%LPD*%
%LPC*%
G36*
X1268545Y178559D02*
X1268545Y178559D01*
X1264010Y180438D01*
X1260538Y183910D01*
X1258659Y188445D01*
X1258659Y193355D01*
X1260538Y197890D01*
X1264010Y201362D01*
X1268545Y203241D01*
X1273455Y203241D01*
X1277990Y201362D01*
X1281462Y197890D01*
X1283341Y193355D01*
X1283341Y188445D01*
X1281462Y183910D01*
X1277990Y180438D01*
X1273455Y178559D01*
X1268545Y178559D01*
G37*
%LPD*%
%LPC*%
G36*
X1393545Y178559D02*
X1393545Y178559D01*
X1389010Y180438D01*
X1385538Y183910D01*
X1383659Y188445D01*
X1383659Y193355D01*
X1385538Y197890D01*
X1389010Y201362D01*
X1393545Y203241D01*
X1398455Y203241D01*
X1402990Y201362D01*
X1406462Y197890D01*
X1408341Y193355D01*
X1408341Y188445D01*
X1406462Y183910D01*
X1402990Y180438D01*
X1398455Y178559D01*
X1393545Y178559D01*
G37*
%LPD*%
%LPC*%
G36*
X112845Y228559D02*
X112845Y228559D01*
X108310Y230438D01*
X104838Y233910D01*
X102959Y238445D01*
X102959Y243355D01*
X104838Y247890D01*
X108310Y251362D01*
X112845Y253241D01*
X117755Y253241D01*
X122290Y251362D01*
X125762Y247890D01*
X127641Y243355D01*
X127641Y238445D01*
X125762Y233910D01*
X122290Y230438D01*
X117755Y228559D01*
X112845Y228559D01*
G37*
%LPD*%
%LPC*%
G36*
X1393545Y228559D02*
X1393545Y228559D01*
X1389010Y230438D01*
X1385538Y233910D01*
X1383659Y238445D01*
X1383659Y243355D01*
X1385538Y247890D01*
X1389010Y251362D01*
X1393545Y253241D01*
X1398455Y253241D01*
X1402990Y251362D01*
X1406462Y247890D01*
X1408341Y243355D01*
X1408341Y238445D01*
X1406462Y233910D01*
X1402990Y230438D01*
X1398455Y228559D01*
X1393545Y228559D01*
G37*
%LPD*%
%LPC*%
G36*
X1268545Y228559D02*
X1268545Y228559D01*
X1264010Y230438D01*
X1260538Y233910D01*
X1258659Y238445D01*
X1258659Y243355D01*
X1260538Y247890D01*
X1264010Y251362D01*
X1268545Y253241D01*
X1273455Y253241D01*
X1277990Y251362D01*
X1281462Y247890D01*
X1283341Y243355D01*
X1283341Y238445D01*
X1281462Y233910D01*
X1277990Y230438D01*
X1273455Y228559D01*
X1268545Y228559D01*
G37*
%LPD*%
%LPC*%
G36*
X788020Y993647D02*
X788020Y993647D01*
X784472Y995117D01*
X781757Y997832D01*
X780287Y1001380D01*
X780287Y1005220D01*
X781757Y1008768D01*
X784472Y1011483D01*
X788020Y1012953D01*
X791860Y1012953D01*
X795408Y1011483D01*
X798123Y1008768D01*
X799593Y1005220D01*
X799593Y1001380D01*
X798123Y997832D01*
X795408Y995117D01*
X791860Y993647D01*
X788020Y993647D01*
G37*
%LPD*%
%LPC*%
G36*
X762620Y993647D02*
X762620Y993647D01*
X759072Y995117D01*
X756357Y997832D01*
X754887Y1001380D01*
X754887Y1005220D01*
X756357Y1008768D01*
X759072Y1011483D01*
X762620Y1012953D01*
X766460Y1012953D01*
X770008Y1011483D01*
X772723Y1008768D01*
X774193Y1005220D01*
X774193Y1001380D01*
X772723Y997832D01*
X770008Y995117D01*
X766460Y993647D01*
X762620Y993647D01*
G37*
%LPD*%
%LPC*%
G36*
X711820Y993647D02*
X711820Y993647D01*
X708272Y995117D01*
X705557Y997832D01*
X704087Y1001380D01*
X704087Y1005220D01*
X705557Y1008768D01*
X708272Y1011483D01*
X711820Y1012953D01*
X715660Y1012953D01*
X719208Y1011483D01*
X721923Y1008768D01*
X723393Y1005220D01*
X723393Y1001380D01*
X721923Y997832D01*
X719208Y995117D01*
X715660Y993647D01*
X711820Y993647D01*
G37*
%LPD*%
%LPC*%
G36*
X387557Y667136D02*
X387557Y667136D01*
X384336Y668470D01*
X381870Y670936D01*
X380536Y674157D01*
X380536Y677643D01*
X381870Y680864D01*
X384336Y683330D01*
X387557Y684664D01*
X391043Y684664D01*
X394264Y683330D01*
X396730Y680864D01*
X398064Y677643D01*
X398064Y674157D01*
X396730Y670936D01*
X394264Y668470D01*
X391043Y667136D01*
X387557Y667136D01*
G37*
%LPD*%
%LPC*%
G36*
X362157Y667136D02*
X362157Y667136D01*
X358936Y668470D01*
X356470Y670936D01*
X355136Y674157D01*
X355136Y677643D01*
X356470Y680864D01*
X358936Y683330D01*
X362157Y684664D01*
X365643Y684664D01*
X368864Y683330D01*
X371330Y680864D01*
X372664Y677643D01*
X372664Y674157D01*
X371330Y670936D01*
X368864Y668470D01*
X365643Y667136D01*
X362157Y667136D01*
G37*
%LPD*%
%LPC*%
G36*
X108157Y667136D02*
X108157Y667136D01*
X104936Y668470D01*
X102470Y670936D01*
X101136Y674157D01*
X101136Y677643D01*
X102470Y680864D01*
X104936Y683330D01*
X108157Y684664D01*
X111643Y684664D01*
X114864Y683330D01*
X117330Y680864D01*
X118664Y677643D01*
X118664Y674157D01*
X117330Y670936D01*
X114864Y668470D01*
X111643Y667136D01*
X108157Y667136D01*
G37*
%LPD*%
%LPC*%
G36*
X82757Y667136D02*
X82757Y667136D01*
X79536Y668470D01*
X77070Y670936D01*
X75736Y674157D01*
X75736Y677643D01*
X77070Y680864D01*
X79536Y683330D01*
X82757Y684664D01*
X86243Y684664D01*
X89464Y683330D01*
X91930Y680864D01*
X93264Y677643D01*
X93264Y674157D01*
X91930Y670936D01*
X89464Y668470D01*
X86243Y667136D01*
X82757Y667136D01*
G37*
%LPD*%
%LPC*%
G36*
X285957Y667136D02*
X285957Y667136D01*
X282736Y668470D01*
X280270Y670936D01*
X278936Y674157D01*
X278936Y677643D01*
X280270Y680864D01*
X282736Y683330D01*
X285957Y684664D01*
X289443Y684664D01*
X292664Y683330D01*
X295130Y680864D01*
X296464Y677643D01*
X296464Y674157D01*
X295130Y670936D01*
X292664Y668470D01*
X289443Y667136D01*
X285957Y667136D01*
G37*
%LPD*%
%LPC*%
G36*
X108157Y946536D02*
X108157Y946536D01*
X104936Y947870D01*
X102470Y950336D01*
X101136Y953557D01*
X101136Y957043D01*
X102470Y960264D01*
X104936Y962730D01*
X108157Y964064D01*
X111643Y964064D01*
X114864Y962730D01*
X117330Y960264D01*
X118664Y957043D01*
X118664Y953557D01*
X117330Y950336D01*
X114864Y947870D01*
X111643Y946536D01*
X108157Y946536D01*
G37*
%LPD*%
%LPC*%
G36*
X82757Y946536D02*
X82757Y946536D01*
X79536Y947870D01*
X77070Y950336D01*
X75736Y953557D01*
X75736Y957043D01*
X77070Y960264D01*
X79536Y962730D01*
X82757Y964064D01*
X86243Y964064D01*
X89464Y962730D01*
X91930Y960264D01*
X93264Y957043D01*
X93264Y953557D01*
X91930Y950336D01*
X89464Y947870D01*
X86243Y946536D01*
X82757Y946536D01*
G37*
%LPD*%
%LPC*%
G36*
X514557Y946536D02*
X514557Y946536D01*
X511336Y947870D01*
X508870Y950336D01*
X507536Y953557D01*
X507536Y957043D01*
X508870Y960264D01*
X511336Y962730D01*
X514557Y964064D01*
X518043Y964064D01*
X521264Y962730D01*
X523730Y960264D01*
X525064Y957043D01*
X525064Y953557D01*
X523730Y950336D01*
X521264Y947870D01*
X518043Y946536D01*
X514557Y946536D01*
G37*
%LPD*%
%LPC*%
G36*
X489157Y946536D02*
X489157Y946536D01*
X485936Y947870D01*
X483470Y950336D01*
X482136Y953557D01*
X482136Y957043D01*
X483470Y960264D01*
X485936Y962730D01*
X489157Y964064D01*
X492643Y964064D01*
X495864Y962730D01*
X498330Y960264D01*
X499664Y957043D01*
X499664Y953557D01*
X498330Y950336D01*
X495864Y947870D01*
X492643Y946536D01*
X489157Y946536D01*
G37*
%LPD*%
%LPC*%
G36*
X463757Y946536D02*
X463757Y946536D01*
X460536Y947870D01*
X458070Y950336D01*
X456736Y953557D01*
X456736Y957043D01*
X458070Y960264D01*
X460536Y962730D01*
X463757Y964064D01*
X467243Y964064D01*
X470464Y962730D01*
X472930Y960264D01*
X474264Y957043D01*
X474264Y953557D01*
X472930Y950336D01*
X470464Y947870D01*
X467243Y946536D01*
X463757Y946536D01*
G37*
%LPD*%
%LPC*%
G36*
X438357Y946536D02*
X438357Y946536D01*
X435136Y947870D01*
X432670Y950336D01*
X431336Y953557D01*
X431336Y957043D01*
X432670Y960264D01*
X435136Y962730D01*
X438357Y964064D01*
X441843Y964064D01*
X445064Y962730D01*
X447530Y960264D01*
X448864Y957043D01*
X448864Y953557D01*
X447530Y950336D01*
X445064Y947870D01*
X441843Y946536D01*
X438357Y946536D01*
G37*
%LPD*%
%LPC*%
G36*
X412957Y946536D02*
X412957Y946536D01*
X409736Y947870D01*
X407270Y950336D01*
X405936Y953557D01*
X405936Y957043D01*
X407270Y960264D01*
X409736Y962730D01*
X412957Y964064D01*
X416443Y964064D01*
X419664Y962730D01*
X422130Y960264D01*
X423464Y957043D01*
X423464Y953557D01*
X422130Y950336D01*
X419664Y947870D01*
X416443Y946536D01*
X412957Y946536D01*
G37*
%LPD*%
%LPC*%
G36*
X362157Y946536D02*
X362157Y946536D01*
X358936Y947870D01*
X356470Y950336D01*
X355136Y953557D01*
X355136Y957043D01*
X356470Y960264D01*
X358936Y962730D01*
X362157Y964064D01*
X365643Y964064D01*
X368864Y962730D01*
X371330Y960264D01*
X372664Y957043D01*
X372664Y953557D01*
X371330Y950336D01*
X368864Y947870D01*
X365643Y946536D01*
X362157Y946536D01*
G37*
%LPD*%
%LPC*%
G36*
X336757Y946536D02*
X336757Y946536D01*
X333536Y947870D01*
X331070Y950336D01*
X329736Y953557D01*
X329736Y957043D01*
X331070Y960264D01*
X333536Y962730D01*
X336757Y964064D01*
X340243Y964064D01*
X343464Y962730D01*
X345930Y960264D01*
X347264Y957043D01*
X347264Y953557D01*
X345930Y950336D01*
X343464Y947870D01*
X340243Y946536D01*
X336757Y946536D01*
G37*
%LPD*%
%LPC*%
G36*
X311357Y946536D02*
X311357Y946536D01*
X308136Y947870D01*
X305670Y950336D01*
X304336Y953557D01*
X304336Y957043D01*
X305670Y960264D01*
X308136Y962730D01*
X311357Y964064D01*
X314843Y964064D01*
X318064Y962730D01*
X320530Y960264D01*
X321864Y957043D01*
X321864Y953557D01*
X320530Y950336D01*
X318064Y947870D01*
X314843Y946536D01*
X311357Y946536D01*
G37*
%LPD*%
%LPC*%
G36*
X285957Y946536D02*
X285957Y946536D01*
X282736Y947870D01*
X280270Y950336D01*
X278936Y953557D01*
X278936Y957043D01*
X280270Y960264D01*
X282736Y962730D01*
X285957Y964064D01*
X289443Y964064D01*
X292664Y962730D01*
X295130Y960264D01*
X296464Y957043D01*
X296464Y953557D01*
X295130Y950336D01*
X292664Y947870D01*
X289443Y946536D01*
X285957Y946536D01*
G37*
%LPD*%
%LPC*%
G36*
X260557Y946536D02*
X260557Y946536D01*
X257336Y947870D01*
X254870Y950336D01*
X253536Y953557D01*
X253536Y957043D01*
X254870Y960264D01*
X257336Y962730D01*
X260557Y964064D01*
X264043Y964064D01*
X267264Y962730D01*
X269730Y960264D01*
X271064Y957043D01*
X271064Y953557D01*
X269730Y950336D01*
X267264Y947870D01*
X264043Y946536D01*
X260557Y946536D01*
G37*
%LPD*%
%LPC*%
G36*
X235157Y946536D02*
X235157Y946536D01*
X231936Y947870D01*
X229470Y950336D01*
X228136Y953557D01*
X228136Y957043D01*
X229470Y960264D01*
X231936Y962730D01*
X235157Y964064D01*
X238643Y964064D01*
X241864Y962730D01*
X244330Y960264D01*
X245664Y957043D01*
X245664Y953557D01*
X244330Y950336D01*
X241864Y947870D01*
X238643Y946536D01*
X235157Y946536D01*
G37*
%LPD*%
%LPC*%
G36*
X209757Y946536D02*
X209757Y946536D01*
X206536Y947870D01*
X204070Y950336D01*
X202736Y953557D01*
X202736Y957043D01*
X204070Y960264D01*
X206536Y962730D01*
X209757Y964064D01*
X213243Y964064D01*
X216464Y962730D01*
X218930Y960264D01*
X220264Y957043D01*
X220264Y953557D01*
X218930Y950336D01*
X216464Y947870D01*
X213243Y946536D01*
X209757Y946536D01*
G37*
%LPD*%
%LPC*%
G36*
X184357Y946536D02*
X184357Y946536D01*
X181136Y947870D01*
X178670Y950336D01*
X177336Y953557D01*
X177336Y957043D01*
X178670Y960264D01*
X181136Y962730D01*
X184357Y964064D01*
X187843Y964064D01*
X191064Y962730D01*
X193530Y960264D01*
X194864Y957043D01*
X194864Y953557D01*
X193530Y950336D01*
X191064Y947870D01*
X187843Y946536D01*
X184357Y946536D01*
G37*
%LPD*%
%LPC*%
G36*
X158957Y946536D02*
X158957Y946536D01*
X155736Y947870D01*
X153270Y950336D01*
X151936Y953557D01*
X151936Y957043D01*
X153270Y960264D01*
X155736Y962730D01*
X158957Y964064D01*
X162443Y964064D01*
X165664Y962730D01*
X168130Y960264D01*
X169464Y957043D01*
X169464Y953557D01*
X168130Y950336D01*
X165664Y947870D01*
X162443Y946536D01*
X158957Y946536D01*
G37*
%LPD*%
%LPC*%
G36*
X133557Y946536D02*
X133557Y946536D01*
X130336Y947870D01*
X127870Y950336D01*
X126536Y953557D01*
X126536Y957043D01*
X127870Y960264D01*
X130336Y962730D01*
X133557Y964064D01*
X137043Y964064D01*
X140264Y962730D01*
X142730Y960264D01*
X144064Y957043D01*
X144064Y953557D01*
X142730Y950336D01*
X140264Y947870D01*
X137043Y946536D01*
X133557Y946536D01*
G37*
%LPD*%
%LPC*%
G36*
X260557Y667136D02*
X260557Y667136D01*
X257336Y668470D01*
X254870Y670936D01*
X253536Y674157D01*
X253536Y677643D01*
X254870Y680864D01*
X257336Y683330D01*
X260557Y684664D01*
X264043Y684664D01*
X267264Y683330D01*
X269730Y680864D01*
X271064Y677643D01*
X271064Y674157D01*
X269730Y670936D01*
X267264Y668470D01*
X264043Y667136D01*
X260557Y667136D01*
G37*
%LPD*%
%LPC*%
G36*
X235157Y667136D02*
X235157Y667136D01*
X231936Y668470D01*
X229470Y670936D01*
X228136Y674157D01*
X228136Y677643D01*
X229470Y680864D01*
X231936Y683330D01*
X235157Y684664D01*
X238643Y684664D01*
X241864Y683330D01*
X244330Y680864D01*
X245664Y677643D01*
X245664Y674157D01*
X244330Y670936D01*
X241864Y668470D01*
X238643Y667136D01*
X235157Y667136D01*
G37*
%LPD*%
%LPC*%
G36*
X108157Y921136D02*
X108157Y921136D01*
X104936Y922470D01*
X102470Y924936D01*
X101136Y928157D01*
X101136Y931643D01*
X102470Y934864D01*
X104936Y937330D01*
X108157Y938664D01*
X111643Y938664D01*
X114864Y937330D01*
X117330Y934864D01*
X118664Y931643D01*
X118664Y928157D01*
X117330Y924936D01*
X114864Y922470D01*
X111643Y921136D01*
X108157Y921136D01*
G37*
%LPD*%
%LPC*%
G36*
X82757Y921136D02*
X82757Y921136D01*
X79536Y922470D01*
X77070Y924936D01*
X75736Y928157D01*
X75736Y931643D01*
X77070Y934864D01*
X79536Y937330D01*
X82757Y938664D01*
X86243Y938664D01*
X89464Y937330D01*
X91930Y934864D01*
X93264Y931643D01*
X93264Y928157D01*
X91930Y924936D01*
X89464Y922470D01*
X86243Y921136D01*
X82757Y921136D01*
G37*
%LPD*%
%LPC*%
G36*
X514557Y921136D02*
X514557Y921136D01*
X511336Y922470D01*
X508870Y924936D01*
X507536Y928157D01*
X507536Y931643D01*
X508870Y934864D01*
X511336Y937330D01*
X514557Y938664D01*
X518043Y938664D01*
X521264Y937330D01*
X523730Y934864D01*
X525064Y931643D01*
X525064Y928157D01*
X523730Y924936D01*
X521264Y922470D01*
X518043Y921136D01*
X514557Y921136D01*
G37*
%LPD*%
%LPC*%
G36*
X489157Y921136D02*
X489157Y921136D01*
X485936Y922470D01*
X483470Y924936D01*
X482136Y928157D01*
X482136Y931643D01*
X483470Y934864D01*
X485936Y937330D01*
X489157Y938664D01*
X492643Y938664D01*
X495864Y937330D01*
X498330Y934864D01*
X499664Y931643D01*
X499664Y928157D01*
X498330Y924936D01*
X495864Y922470D01*
X492643Y921136D01*
X489157Y921136D01*
G37*
%LPD*%
%LPC*%
G36*
X463757Y921136D02*
X463757Y921136D01*
X460536Y922470D01*
X458070Y924936D01*
X456736Y928157D01*
X456736Y931643D01*
X458070Y934864D01*
X460536Y937330D01*
X463757Y938664D01*
X467243Y938664D01*
X470464Y937330D01*
X472930Y934864D01*
X474264Y931643D01*
X474264Y928157D01*
X472930Y924936D01*
X470464Y922470D01*
X467243Y921136D01*
X463757Y921136D01*
G37*
%LPD*%
%LPC*%
G36*
X438357Y921136D02*
X438357Y921136D01*
X435136Y922470D01*
X432670Y924936D01*
X431336Y928157D01*
X431336Y931643D01*
X432670Y934864D01*
X435136Y937330D01*
X438357Y938664D01*
X441843Y938664D01*
X445064Y937330D01*
X447530Y934864D01*
X448864Y931643D01*
X448864Y928157D01*
X447530Y924936D01*
X445064Y922470D01*
X441843Y921136D01*
X438357Y921136D01*
G37*
%LPD*%
%LPC*%
G36*
X412957Y921136D02*
X412957Y921136D01*
X409736Y922470D01*
X407270Y924936D01*
X405936Y928157D01*
X405936Y931643D01*
X407270Y934864D01*
X409736Y937330D01*
X412957Y938664D01*
X416443Y938664D01*
X419664Y937330D01*
X422130Y934864D01*
X423464Y931643D01*
X423464Y928157D01*
X422130Y924936D01*
X419664Y922470D01*
X416443Y921136D01*
X412957Y921136D01*
G37*
%LPD*%
%LPC*%
G36*
X387557Y921136D02*
X387557Y921136D01*
X384336Y922470D01*
X381870Y924936D01*
X380536Y928157D01*
X380536Y931643D01*
X381870Y934864D01*
X384336Y937330D01*
X387557Y938664D01*
X391043Y938664D01*
X394264Y937330D01*
X396730Y934864D01*
X398064Y931643D01*
X398064Y928157D01*
X396730Y924936D01*
X394264Y922470D01*
X391043Y921136D01*
X387557Y921136D01*
G37*
%LPD*%
%LPC*%
G36*
X362157Y921136D02*
X362157Y921136D01*
X358936Y922470D01*
X356470Y924936D01*
X355136Y928157D01*
X355136Y931643D01*
X356470Y934864D01*
X358936Y937330D01*
X362157Y938664D01*
X365643Y938664D01*
X368864Y937330D01*
X371330Y934864D01*
X372664Y931643D01*
X372664Y928157D01*
X371330Y924936D01*
X368864Y922470D01*
X365643Y921136D01*
X362157Y921136D01*
G37*
%LPD*%
%LPC*%
G36*
X311357Y921136D02*
X311357Y921136D01*
X308136Y922470D01*
X305670Y924936D01*
X304336Y928157D01*
X304336Y931643D01*
X305670Y934864D01*
X308136Y937330D01*
X311357Y938664D01*
X314843Y938664D01*
X318064Y937330D01*
X320530Y934864D01*
X321864Y931643D01*
X321864Y928157D01*
X320530Y924936D01*
X318064Y922470D01*
X314843Y921136D01*
X311357Y921136D01*
G37*
%LPD*%
%LPC*%
G36*
X285957Y921136D02*
X285957Y921136D01*
X282736Y922470D01*
X280270Y924936D01*
X278936Y928157D01*
X278936Y931643D01*
X280270Y934864D01*
X282736Y937330D01*
X285957Y938664D01*
X289443Y938664D01*
X292664Y937330D01*
X295130Y934864D01*
X296464Y931643D01*
X296464Y928157D01*
X295130Y924936D01*
X292664Y922470D01*
X289443Y921136D01*
X285957Y921136D01*
G37*
%LPD*%
%LPC*%
G36*
X235157Y921136D02*
X235157Y921136D01*
X231936Y922470D01*
X229470Y924936D01*
X228136Y928157D01*
X228136Y931643D01*
X229470Y934864D01*
X231936Y937330D01*
X235157Y938664D01*
X238643Y938664D01*
X241864Y937330D01*
X244330Y934864D01*
X245664Y931643D01*
X245664Y928157D01*
X244330Y924936D01*
X241864Y922470D01*
X238643Y921136D01*
X235157Y921136D01*
G37*
%LPD*%
%LPC*%
G36*
X209757Y921136D02*
X209757Y921136D01*
X206536Y922470D01*
X204070Y924936D01*
X202736Y928157D01*
X202736Y931643D01*
X204070Y934864D01*
X206536Y937330D01*
X209757Y938664D01*
X213243Y938664D01*
X216464Y937330D01*
X218930Y934864D01*
X220264Y931643D01*
X220264Y928157D01*
X218930Y924936D01*
X216464Y922470D01*
X213243Y921136D01*
X209757Y921136D01*
G37*
%LPD*%
%LPC*%
G36*
X184357Y921136D02*
X184357Y921136D01*
X181136Y922470D01*
X178670Y924936D01*
X177336Y928157D01*
X177336Y931643D01*
X178670Y934864D01*
X181136Y937330D01*
X184357Y938664D01*
X187843Y938664D01*
X191064Y937330D01*
X193530Y934864D01*
X194864Y931643D01*
X194864Y928157D01*
X193530Y924936D01*
X191064Y922470D01*
X187843Y921136D01*
X184357Y921136D01*
G37*
%LPD*%
%LPC*%
G36*
X158957Y921136D02*
X158957Y921136D01*
X155736Y922470D01*
X153270Y924936D01*
X151936Y928157D01*
X151936Y931643D01*
X153270Y934864D01*
X155736Y937330D01*
X158957Y938664D01*
X162443Y938664D01*
X165664Y937330D01*
X168130Y934864D01*
X169464Y931643D01*
X169464Y928157D01*
X168130Y924936D01*
X165664Y922470D01*
X162443Y921136D01*
X158957Y921136D01*
G37*
%LPD*%
%LPC*%
G36*
X133557Y921136D02*
X133557Y921136D01*
X130336Y922470D01*
X127870Y924936D01*
X126536Y928157D01*
X126536Y931643D01*
X127870Y934864D01*
X130336Y937330D01*
X133557Y938664D01*
X137043Y938664D01*
X140264Y937330D01*
X142730Y934864D01*
X144064Y931643D01*
X144064Y928157D01*
X142730Y924936D01*
X140264Y922470D01*
X137043Y921136D01*
X133557Y921136D01*
G37*
%LPD*%
%LPC*%
G36*
X209757Y667136D02*
X209757Y667136D01*
X206536Y668470D01*
X204070Y670936D01*
X202736Y674157D01*
X202736Y677643D01*
X204070Y680864D01*
X206536Y683330D01*
X209757Y684664D01*
X213243Y684664D01*
X216464Y683330D01*
X218930Y680864D01*
X220264Y677643D01*
X220264Y674157D01*
X218930Y670936D01*
X216464Y668470D01*
X213243Y667136D01*
X209757Y667136D01*
G37*
%LPD*%
%LPC*%
G36*
X184357Y667136D02*
X184357Y667136D01*
X181136Y668470D01*
X178670Y670936D01*
X177336Y674157D01*
X177336Y677643D01*
X178670Y680864D01*
X181136Y683330D01*
X184357Y684664D01*
X187843Y684664D01*
X191064Y683330D01*
X193530Y680864D01*
X194864Y677643D01*
X194864Y674157D01*
X193530Y670936D01*
X191064Y668470D01*
X187843Y667136D01*
X184357Y667136D01*
G37*
%LPD*%
%LPC*%
G36*
X158957Y667136D02*
X158957Y667136D01*
X155736Y668470D01*
X153270Y670936D01*
X151936Y674157D01*
X151936Y677643D01*
X153270Y680864D01*
X155736Y683330D01*
X158957Y684664D01*
X162443Y684664D01*
X165664Y683330D01*
X168130Y680864D01*
X169464Y677643D01*
X169464Y674157D01*
X168130Y670936D01*
X165664Y668470D01*
X162443Y667136D01*
X158957Y667136D01*
G37*
%LPD*%
%LPC*%
G36*
X133557Y667136D02*
X133557Y667136D01*
X130336Y668470D01*
X127870Y670936D01*
X126536Y674157D01*
X126536Y677643D01*
X127870Y680864D01*
X130336Y683330D01*
X133557Y684664D01*
X137043Y684664D01*
X140264Y683330D01*
X142730Y680864D01*
X144064Y677643D01*
X144064Y674157D01*
X142730Y670936D01*
X140264Y668470D01*
X137043Y667136D01*
X133557Y667136D01*
G37*
%LPD*%
%LPC*%
G36*
X514557Y692536D02*
X514557Y692536D01*
X511336Y693870D01*
X508870Y696336D01*
X507536Y699557D01*
X507536Y703043D01*
X508870Y706264D01*
X511336Y708730D01*
X514557Y710064D01*
X518043Y710064D01*
X521264Y708730D01*
X523730Y706264D01*
X525064Y703043D01*
X525064Y699557D01*
X523730Y696336D01*
X521264Y693870D01*
X518043Y692536D01*
X514557Y692536D01*
G37*
%LPD*%
%LPC*%
G36*
X489157Y692536D02*
X489157Y692536D01*
X485936Y693870D01*
X483470Y696336D01*
X482136Y699557D01*
X482136Y703043D01*
X483470Y706264D01*
X485936Y708730D01*
X489157Y710064D01*
X492643Y710064D01*
X495864Y708730D01*
X498330Y706264D01*
X499664Y703043D01*
X499664Y699557D01*
X498330Y696336D01*
X495864Y693870D01*
X492643Y692536D01*
X489157Y692536D01*
G37*
%LPD*%
%LPC*%
G36*
X463757Y692536D02*
X463757Y692536D01*
X460536Y693870D01*
X458070Y696336D01*
X456736Y699557D01*
X456736Y703043D01*
X458070Y706264D01*
X460536Y708730D01*
X463757Y710064D01*
X467243Y710064D01*
X470464Y708730D01*
X472930Y706264D01*
X474264Y703043D01*
X474264Y699557D01*
X472930Y696336D01*
X470464Y693870D01*
X467243Y692536D01*
X463757Y692536D01*
G37*
%LPD*%
%LPC*%
G36*
X438357Y692536D02*
X438357Y692536D01*
X435136Y693870D01*
X432670Y696336D01*
X431336Y699557D01*
X431336Y703043D01*
X432670Y706264D01*
X435136Y708730D01*
X438357Y710064D01*
X441843Y710064D01*
X445064Y708730D01*
X447530Y706264D01*
X448864Y703043D01*
X448864Y699557D01*
X447530Y696336D01*
X445064Y693870D01*
X441843Y692536D01*
X438357Y692536D01*
G37*
%LPD*%
%LPC*%
G36*
X412957Y692536D02*
X412957Y692536D01*
X409736Y693870D01*
X407270Y696336D01*
X405936Y699557D01*
X405936Y703043D01*
X407270Y706264D01*
X409736Y708730D01*
X412957Y710064D01*
X416443Y710064D01*
X419664Y708730D01*
X422130Y706264D01*
X423464Y703043D01*
X423464Y699557D01*
X422130Y696336D01*
X419664Y693870D01*
X416443Y692536D01*
X412957Y692536D01*
G37*
%LPD*%
%LPC*%
G36*
X387557Y692536D02*
X387557Y692536D01*
X384336Y693870D01*
X381870Y696336D01*
X380536Y699557D01*
X380536Y703043D01*
X381870Y706264D01*
X384336Y708730D01*
X387557Y710064D01*
X391043Y710064D01*
X394264Y708730D01*
X396730Y706264D01*
X398064Y703043D01*
X398064Y699557D01*
X396730Y696336D01*
X394264Y693870D01*
X391043Y692536D01*
X387557Y692536D01*
G37*
%LPD*%
%LPC*%
G36*
X362157Y692536D02*
X362157Y692536D01*
X358936Y693870D01*
X356470Y696336D01*
X355136Y699557D01*
X355136Y703043D01*
X356470Y706264D01*
X358936Y708730D01*
X362157Y710064D01*
X365643Y710064D01*
X368864Y708730D01*
X371330Y706264D01*
X372664Y703043D01*
X372664Y699557D01*
X371330Y696336D01*
X368864Y693870D01*
X365643Y692536D01*
X362157Y692536D01*
G37*
%LPD*%
%LPC*%
G36*
X311357Y692536D02*
X311357Y692536D01*
X308136Y693870D01*
X305670Y696336D01*
X304336Y699557D01*
X304336Y703043D01*
X305670Y706264D01*
X308136Y708730D01*
X311357Y710064D01*
X314843Y710064D01*
X318064Y708730D01*
X320530Y706264D01*
X321864Y703043D01*
X321864Y699557D01*
X320530Y696336D01*
X318064Y693870D01*
X314843Y692536D01*
X311357Y692536D01*
G37*
%LPD*%
%LPC*%
G36*
X285957Y692536D02*
X285957Y692536D01*
X282736Y693870D01*
X280270Y696336D01*
X278936Y699557D01*
X278936Y703043D01*
X280270Y706264D01*
X282736Y708730D01*
X285957Y710064D01*
X289443Y710064D01*
X292664Y708730D01*
X295130Y706264D01*
X296464Y703043D01*
X296464Y699557D01*
X295130Y696336D01*
X292664Y693870D01*
X289443Y692536D01*
X285957Y692536D01*
G37*
%LPD*%
%LPC*%
G36*
X235157Y692536D02*
X235157Y692536D01*
X231936Y693870D01*
X229470Y696336D01*
X228136Y699557D01*
X228136Y703043D01*
X229470Y706264D01*
X231936Y708730D01*
X235157Y710064D01*
X238643Y710064D01*
X241864Y708730D01*
X244330Y706264D01*
X245664Y703043D01*
X245664Y699557D01*
X244330Y696336D01*
X241864Y693870D01*
X238643Y692536D01*
X235157Y692536D01*
G37*
%LPD*%
%LPC*%
G36*
X209757Y692536D02*
X209757Y692536D01*
X206536Y693870D01*
X204070Y696336D01*
X202736Y699557D01*
X202736Y703043D01*
X204070Y706264D01*
X206536Y708730D01*
X209757Y710064D01*
X213243Y710064D01*
X216464Y708730D01*
X218930Y706264D01*
X220264Y703043D01*
X220264Y699557D01*
X218930Y696336D01*
X216464Y693870D01*
X213243Y692536D01*
X209757Y692536D01*
G37*
%LPD*%
%LPC*%
G36*
X184357Y692536D02*
X184357Y692536D01*
X181136Y693870D01*
X178670Y696336D01*
X177336Y699557D01*
X177336Y703043D01*
X178670Y706264D01*
X181136Y708730D01*
X184357Y710064D01*
X187843Y710064D01*
X191064Y708730D01*
X193530Y706264D01*
X194864Y703043D01*
X194864Y699557D01*
X193530Y696336D01*
X191064Y693870D01*
X187843Y692536D01*
X184357Y692536D01*
G37*
%LPD*%
%LPC*%
G36*
X158957Y692536D02*
X158957Y692536D01*
X155736Y693870D01*
X153270Y696336D01*
X151936Y699557D01*
X151936Y703043D01*
X153270Y706264D01*
X155736Y708730D01*
X158957Y710064D01*
X162443Y710064D01*
X165664Y708730D01*
X168130Y706264D01*
X169464Y703043D01*
X169464Y699557D01*
X168130Y696336D01*
X165664Y693870D01*
X162443Y692536D01*
X158957Y692536D01*
G37*
%LPD*%
%LPC*%
G36*
X133557Y692536D02*
X133557Y692536D01*
X130336Y693870D01*
X127870Y696336D01*
X126536Y699557D01*
X126536Y703043D01*
X127870Y706264D01*
X130336Y708730D01*
X133557Y710064D01*
X137043Y710064D01*
X140264Y708730D01*
X142730Y706264D01*
X144064Y703043D01*
X144064Y699557D01*
X142730Y696336D01*
X140264Y693870D01*
X137043Y692536D01*
X133557Y692536D01*
G37*
%LPD*%
%LPC*%
G36*
X108157Y692536D02*
X108157Y692536D01*
X104936Y693870D01*
X102470Y696336D01*
X101136Y699557D01*
X101136Y703043D01*
X102470Y706264D01*
X104936Y708730D01*
X108157Y710064D01*
X111643Y710064D01*
X114864Y708730D01*
X117330Y706264D01*
X118664Y703043D01*
X118664Y699557D01*
X117330Y696336D01*
X114864Y693870D01*
X111643Y692536D01*
X108157Y692536D01*
G37*
%LPD*%
%LPC*%
G36*
X82757Y692536D02*
X82757Y692536D01*
X79536Y693870D01*
X77070Y696336D01*
X75736Y699557D01*
X75736Y703043D01*
X77070Y706264D01*
X79536Y708730D01*
X82757Y710064D01*
X86243Y710064D01*
X89464Y708730D01*
X91930Y706264D01*
X93264Y703043D01*
X93264Y699557D01*
X91930Y696336D01*
X89464Y693870D01*
X86243Y692536D01*
X82757Y692536D01*
G37*
%LPD*%
%LPC*%
G36*
X387557Y946536D02*
X387557Y946536D01*
X384336Y947870D01*
X381870Y950336D01*
X380536Y953557D01*
X380536Y957043D01*
X381870Y960264D01*
X384336Y962730D01*
X387557Y964064D01*
X391043Y964064D01*
X394264Y962730D01*
X396730Y960264D01*
X398064Y957043D01*
X398064Y953557D01*
X396730Y950336D01*
X394264Y947870D01*
X391043Y946536D01*
X387557Y946536D01*
G37*
%LPD*%
%LPC*%
G36*
X336757Y667136D02*
X336757Y667136D01*
X333536Y668470D01*
X331070Y670936D01*
X329736Y674157D01*
X329736Y677643D01*
X331070Y680864D01*
X333536Y683330D01*
X336757Y684664D01*
X340243Y684664D01*
X343464Y683330D01*
X345930Y680864D01*
X347264Y677643D01*
X347264Y674157D01*
X345930Y670936D01*
X343464Y668470D01*
X340243Y667136D01*
X336757Y667136D01*
G37*
%LPD*%
%LPC*%
G36*
X311357Y667136D02*
X311357Y667136D01*
X308136Y668470D01*
X305670Y670936D01*
X304336Y674157D01*
X304336Y677643D01*
X305670Y680864D01*
X308136Y683330D01*
X311357Y684664D01*
X314843Y684664D01*
X318064Y683330D01*
X320530Y680864D01*
X321864Y677643D01*
X321864Y674157D01*
X320530Y670936D01*
X318064Y668470D01*
X314843Y667136D01*
X311357Y667136D01*
G37*
%LPD*%
%LPC*%
G36*
X514557Y667136D02*
X514557Y667136D01*
X511336Y668470D01*
X508870Y670936D01*
X507536Y674157D01*
X507536Y677643D01*
X508870Y680864D01*
X511336Y683330D01*
X514557Y684664D01*
X518043Y684664D01*
X521264Y683330D01*
X523730Y680864D01*
X525064Y677643D01*
X525064Y674157D01*
X523730Y670936D01*
X521264Y668470D01*
X518043Y667136D01*
X514557Y667136D01*
G37*
%LPD*%
%LPC*%
G36*
X489157Y667136D02*
X489157Y667136D01*
X485936Y668470D01*
X483470Y670936D01*
X482136Y674157D01*
X482136Y677643D01*
X483470Y680864D01*
X485936Y683330D01*
X489157Y684664D01*
X492643Y684664D01*
X495864Y683330D01*
X498330Y680864D01*
X499664Y677643D01*
X499664Y674157D01*
X498330Y670936D01*
X495864Y668470D01*
X492643Y667136D01*
X489157Y667136D01*
G37*
%LPD*%
%LPC*%
G36*
X463757Y667136D02*
X463757Y667136D01*
X460536Y668470D01*
X458070Y670936D01*
X456736Y674157D01*
X456736Y677643D01*
X458070Y680864D01*
X460536Y683330D01*
X463757Y684664D01*
X467243Y684664D01*
X470464Y683330D01*
X472930Y680864D01*
X474264Y677643D01*
X474264Y674157D01*
X472930Y670936D01*
X470464Y668470D01*
X467243Y667136D01*
X463757Y667136D01*
G37*
%LPD*%
%LPC*%
G36*
X438357Y667136D02*
X438357Y667136D01*
X435136Y668470D01*
X432670Y670936D01*
X431336Y674157D01*
X431336Y677643D01*
X432670Y680864D01*
X435136Y683330D01*
X438357Y684664D01*
X441843Y684664D01*
X445064Y683330D01*
X447530Y680864D01*
X448864Y677643D01*
X448864Y674157D01*
X447530Y670936D01*
X445064Y668470D01*
X441843Y667136D01*
X438357Y667136D01*
G37*
%LPD*%
%LPC*%
G36*
X412957Y667136D02*
X412957Y667136D01*
X409736Y668470D01*
X407270Y670936D01*
X405936Y674157D01*
X405936Y677643D01*
X407270Y680864D01*
X409736Y683330D01*
X412957Y684664D01*
X416443Y684664D01*
X419664Y683330D01*
X422130Y680864D01*
X423464Y677643D01*
X423464Y674157D01*
X422130Y670936D01*
X419664Y668470D01*
X416443Y667136D01*
X412957Y667136D01*
G37*
%LPD*%
%LPC*%
G36*
X1192181Y563359D02*
X1192181Y563359D01*
X1189189Y564599D01*
X1186899Y566889D01*
X1185659Y569881D01*
X1185659Y573119D01*
X1186899Y576111D01*
X1189189Y578401D01*
X1192181Y579641D01*
X1195419Y579641D01*
X1198411Y578401D01*
X1200701Y576111D01*
X1201941Y573119D01*
X1201941Y569881D01*
X1200701Y566889D01*
X1198411Y564599D01*
X1195419Y563359D01*
X1192181Y563359D01*
G37*
%LPD*%
%LPC*%
G36*
X328581Y360159D02*
X328581Y360159D01*
X325589Y361399D01*
X323299Y363689D01*
X322059Y366681D01*
X322059Y369919D01*
X323299Y372911D01*
X325589Y375201D01*
X328581Y376441D01*
X331819Y376441D01*
X334811Y375201D01*
X337101Y372911D01*
X338341Y369919D01*
X338341Y366681D01*
X337101Y363689D01*
X334811Y361399D01*
X331819Y360159D01*
X328581Y360159D01*
G37*
%LPD*%
%LPC*%
G36*
X1192181Y334759D02*
X1192181Y334759D01*
X1189189Y335999D01*
X1186899Y338289D01*
X1185659Y341281D01*
X1185659Y344519D01*
X1186899Y347511D01*
X1189189Y349801D01*
X1192181Y351041D01*
X1195419Y351041D01*
X1198411Y349801D01*
X1200701Y347511D01*
X1201941Y344519D01*
X1201941Y341281D01*
X1200701Y338289D01*
X1198411Y335999D01*
X1195419Y334759D01*
X1192181Y334759D01*
G37*
%LPD*%
%LPC*%
G36*
X328581Y334759D02*
X328581Y334759D01*
X325589Y335999D01*
X323299Y338289D01*
X322059Y341281D01*
X322059Y344519D01*
X323299Y347511D01*
X325589Y349801D01*
X328581Y351041D01*
X331819Y351041D01*
X334811Y349801D01*
X337101Y347511D01*
X338341Y344519D01*
X338341Y341281D01*
X337101Y338289D01*
X334811Y335999D01*
X331819Y334759D01*
X328581Y334759D01*
G37*
%LPD*%
%LPC*%
G36*
X1192181Y309359D02*
X1192181Y309359D01*
X1189189Y310599D01*
X1186899Y312889D01*
X1185659Y315881D01*
X1185659Y319119D01*
X1186899Y322111D01*
X1189189Y324401D01*
X1192181Y325641D01*
X1195419Y325641D01*
X1198411Y324401D01*
X1200701Y322111D01*
X1201941Y319119D01*
X1201941Y315881D01*
X1200701Y312889D01*
X1198411Y310599D01*
X1195419Y309359D01*
X1192181Y309359D01*
G37*
%LPD*%
%LPC*%
G36*
X328581Y309359D02*
X328581Y309359D01*
X325589Y310599D01*
X323299Y312889D01*
X322059Y315881D01*
X322059Y319119D01*
X323299Y322111D01*
X325589Y324401D01*
X328581Y325641D01*
X331819Y325641D01*
X334811Y324401D01*
X337101Y322111D01*
X338341Y319119D01*
X338341Y315881D01*
X337101Y312889D01*
X334811Y310599D01*
X331819Y309359D01*
X328581Y309359D01*
G37*
%LPD*%
%LPC*%
G36*
X1192181Y283959D02*
X1192181Y283959D01*
X1189189Y285199D01*
X1186899Y287489D01*
X1185659Y290481D01*
X1185659Y293719D01*
X1186899Y296711D01*
X1189189Y299001D01*
X1192181Y300241D01*
X1195419Y300241D01*
X1198411Y299001D01*
X1200701Y296711D01*
X1201941Y293719D01*
X1201941Y290481D01*
X1200701Y287489D01*
X1198411Y285199D01*
X1195419Y283959D01*
X1192181Y283959D01*
G37*
%LPD*%
%LPC*%
G36*
X328581Y283959D02*
X328581Y283959D01*
X325589Y285199D01*
X323299Y287489D01*
X322059Y290481D01*
X322059Y293719D01*
X323299Y296711D01*
X325589Y299001D01*
X328581Y300241D01*
X331819Y300241D01*
X334811Y299001D01*
X337101Y296711D01*
X338341Y293719D01*
X338341Y290481D01*
X337101Y287489D01*
X334811Y285199D01*
X331819Y283959D01*
X328581Y283959D01*
G37*
%LPD*%
%LPC*%
G36*
X1192181Y258559D02*
X1192181Y258559D01*
X1189189Y259799D01*
X1186899Y262089D01*
X1185659Y265081D01*
X1185659Y268319D01*
X1186899Y271311D01*
X1189189Y273601D01*
X1192181Y274841D01*
X1195419Y274841D01*
X1198411Y273601D01*
X1200701Y271311D01*
X1201941Y268319D01*
X1201941Y265081D01*
X1200701Y262089D01*
X1198411Y259799D01*
X1195419Y258559D01*
X1192181Y258559D01*
G37*
%LPD*%
%LPC*%
G36*
X328581Y410959D02*
X328581Y410959D01*
X325589Y412199D01*
X323299Y414489D01*
X322059Y417481D01*
X322059Y420719D01*
X323299Y423711D01*
X325589Y426001D01*
X328581Y427241D01*
X331819Y427241D01*
X334811Y426001D01*
X337101Y423711D01*
X338341Y420719D01*
X338341Y417481D01*
X337101Y414489D01*
X334811Y412199D01*
X331819Y410959D01*
X328581Y410959D01*
G37*
%LPD*%
%LPC*%
G36*
X328581Y258559D02*
X328581Y258559D01*
X325589Y259799D01*
X323299Y262089D01*
X322059Y265081D01*
X322059Y268319D01*
X323299Y271311D01*
X325589Y273601D01*
X328581Y274841D01*
X331819Y274841D01*
X334811Y273601D01*
X337101Y271311D01*
X338341Y268319D01*
X338341Y265081D01*
X337101Y262089D01*
X334811Y259799D01*
X331819Y258559D01*
X328581Y258559D01*
G37*
%LPD*%
%LPC*%
G36*
X1192181Y182359D02*
X1192181Y182359D01*
X1189189Y183599D01*
X1186899Y185889D01*
X1185659Y188881D01*
X1185659Y192119D01*
X1186899Y195111D01*
X1189189Y197401D01*
X1192181Y198641D01*
X1195419Y198641D01*
X1198411Y197401D01*
X1200701Y195111D01*
X1201941Y192119D01*
X1201941Y188881D01*
X1200701Y185889D01*
X1198411Y183599D01*
X1195419Y182359D01*
X1192181Y182359D01*
G37*
%LPD*%
%LPC*%
G36*
X1192181Y233159D02*
X1192181Y233159D01*
X1189189Y234399D01*
X1186899Y236689D01*
X1185659Y239681D01*
X1185659Y242919D01*
X1186899Y245911D01*
X1189189Y248201D01*
X1192181Y249441D01*
X1195419Y249441D01*
X1198411Y248201D01*
X1200701Y245911D01*
X1201941Y242919D01*
X1201941Y239681D01*
X1200701Y236689D01*
X1198411Y234399D01*
X1195419Y233159D01*
X1192181Y233159D01*
G37*
%LPD*%
%LPC*%
G36*
X1192181Y588759D02*
X1192181Y588759D01*
X1189189Y589999D01*
X1186899Y592289D01*
X1185659Y595281D01*
X1185659Y598519D01*
X1186899Y601511D01*
X1189189Y603801D01*
X1192181Y605041D01*
X1195419Y605041D01*
X1198411Y603801D01*
X1200701Y601511D01*
X1201941Y598519D01*
X1201941Y595281D01*
X1200701Y592289D01*
X1198411Y589999D01*
X1195419Y588759D01*
X1192181Y588759D01*
G37*
%LPD*%
%LPC*%
G36*
X328581Y233159D02*
X328581Y233159D01*
X325589Y234399D01*
X323299Y236689D01*
X322059Y239681D01*
X322059Y242919D01*
X323299Y245911D01*
X325589Y248201D01*
X328581Y249441D01*
X331819Y249441D01*
X334811Y248201D01*
X337101Y245911D01*
X338341Y242919D01*
X338341Y239681D01*
X337101Y236689D01*
X334811Y234399D01*
X331819Y233159D01*
X328581Y233159D01*
G37*
%LPD*%
%LPC*%
G36*
X1192181Y207759D02*
X1192181Y207759D01*
X1189189Y208999D01*
X1186899Y211289D01*
X1185659Y214281D01*
X1185659Y217519D01*
X1186899Y220511D01*
X1189189Y222801D01*
X1192181Y224041D01*
X1195419Y224041D01*
X1198411Y222801D01*
X1200701Y220511D01*
X1201941Y217519D01*
X1201941Y214281D01*
X1200701Y211289D01*
X1198411Y208999D01*
X1195419Y207759D01*
X1192181Y207759D01*
G37*
%LPD*%
%LPC*%
G36*
X328581Y207759D02*
X328581Y207759D01*
X325589Y208999D01*
X323299Y211289D01*
X322059Y214281D01*
X322059Y217519D01*
X323299Y220511D01*
X325589Y222801D01*
X328581Y224041D01*
X331819Y224041D01*
X334811Y222801D01*
X337101Y220511D01*
X338341Y217519D01*
X338341Y214281D01*
X337101Y211289D01*
X334811Y208999D01*
X331819Y207759D01*
X328581Y207759D01*
G37*
%LPD*%
%LPC*%
G36*
X328581Y182359D02*
X328581Y182359D01*
X325589Y183599D01*
X323299Y185889D01*
X322059Y188881D01*
X322059Y192119D01*
X323299Y195111D01*
X325589Y197401D01*
X328581Y198641D01*
X331819Y198641D01*
X334811Y197401D01*
X337101Y195111D01*
X338341Y192119D01*
X338341Y188881D01*
X337101Y185889D01*
X334811Y183599D01*
X331819Y182359D01*
X328581Y182359D01*
G37*
%LPD*%
%LPC*%
G36*
X1192181Y156959D02*
X1192181Y156959D01*
X1189189Y158199D01*
X1186899Y160489D01*
X1185659Y163481D01*
X1185659Y166719D01*
X1186899Y169711D01*
X1189189Y172001D01*
X1192181Y173241D01*
X1195419Y173241D01*
X1198411Y172001D01*
X1200701Y169711D01*
X1201941Y166719D01*
X1201941Y163481D01*
X1200701Y160489D01*
X1198411Y158199D01*
X1195419Y156959D01*
X1192181Y156959D01*
G37*
%LPD*%
%LPC*%
G36*
X328581Y563359D02*
X328581Y563359D01*
X325589Y564599D01*
X323299Y566889D01*
X322059Y569881D01*
X322059Y573119D01*
X323299Y576111D01*
X325589Y578401D01*
X328581Y579641D01*
X331819Y579641D01*
X334811Y578401D01*
X337101Y576111D01*
X338341Y573119D01*
X338341Y569881D01*
X337101Y566889D01*
X334811Y564599D01*
X331819Y563359D01*
X328581Y563359D01*
G37*
%LPD*%
%LPC*%
G36*
X163481Y557759D02*
X163481Y557759D01*
X160489Y558999D01*
X158199Y561289D01*
X156959Y564281D01*
X156959Y567519D01*
X158199Y570511D01*
X160489Y572801D01*
X163481Y574041D01*
X166719Y574041D01*
X169711Y572801D01*
X172001Y570511D01*
X173241Y567519D01*
X173241Y564281D01*
X172001Y561289D01*
X169711Y558999D01*
X166719Y557759D01*
X163481Y557759D01*
G37*
%LPD*%
%LPC*%
G36*
X1192181Y537959D02*
X1192181Y537959D01*
X1189189Y539199D01*
X1186899Y541489D01*
X1185659Y544481D01*
X1185659Y547719D01*
X1186899Y550711D01*
X1189189Y553001D01*
X1192181Y554241D01*
X1195419Y554241D01*
X1198411Y553001D01*
X1200701Y550711D01*
X1201941Y547719D01*
X1201941Y544481D01*
X1200701Y541489D01*
X1198411Y539199D01*
X1195419Y537959D01*
X1192181Y537959D01*
G37*
%LPD*%
%LPC*%
G36*
X328581Y537959D02*
X328581Y537959D01*
X325589Y539199D01*
X323299Y541489D01*
X322059Y544481D01*
X322059Y547719D01*
X323299Y550711D01*
X325589Y553001D01*
X328581Y554241D01*
X331819Y554241D01*
X334811Y553001D01*
X337101Y550711D01*
X338341Y547719D01*
X338341Y544481D01*
X337101Y541489D01*
X334811Y539199D01*
X331819Y537959D01*
X328581Y537959D01*
G37*
%LPD*%
%LPC*%
G36*
X1192181Y512559D02*
X1192181Y512559D01*
X1189189Y513799D01*
X1186899Y516089D01*
X1185659Y519081D01*
X1185659Y522319D01*
X1186899Y525311D01*
X1189189Y527601D01*
X1192181Y528841D01*
X1195419Y528841D01*
X1198411Y527601D01*
X1200701Y525311D01*
X1201941Y522319D01*
X1201941Y519081D01*
X1200701Y516089D01*
X1198411Y513799D01*
X1195419Y512559D01*
X1192181Y512559D01*
G37*
%LPD*%
%LPC*%
G36*
X328581Y512559D02*
X328581Y512559D01*
X325589Y513799D01*
X323299Y516089D01*
X322059Y519081D01*
X322059Y522319D01*
X323299Y525311D01*
X325589Y527601D01*
X328581Y528841D01*
X331819Y528841D01*
X334811Y527601D01*
X337101Y525311D01*
X338341Y522319D01*
X338341Y519081D01*
X337101Y516089D01*
X334811Y513799D01*
X331819Y512559D01*
X328581Y512559D01*
G37*
%LPD*%
%LPC*%
G36*
X328581Y156959D02*
X328581Y156959D01*
X325589Y158199D01*
X323299Y160489D01*
X322059Y163481D01*
X322059Y166719D01*
X323299Y169711D01*
X325589Y172001D01*
X328581Y173241D01*
X331819Y173241D01*
X334811Y172001D01*
X337101Y169711D01*
X338341Y166719D01*
X338341Y163481D01*
X337101Y160489D01*
X334811Y158199D01*
X331819Y156959D01*
X328581Y156959D01*
G37*
%LPD*%
%LPC*%
G36*
X1192181Y131559D02*
X1192181Y131559D01*
X1189189Y132799D01*
X1186899Y135089D01*
X1185659Y138081D01*
X1185659Y141319D01*
X1186899Y144311D01*
X1189189Y146601D01*
X1192181Y147841D01*
X1195419Y147841D01*
X1198411Y146601D01*
X1200701Y144311D01*
X1201941Y141319D01*
X1201941Y138081D01*
X1200701Y135089D01*
X1198411Y132799D01*
X1195419Y131559D01*
X1192181Y131559D01*
G37*
%LPD*%
%LPC*%
G36*
X1192181Y487159D02*
X1192181Y487159D01*
X1189189Y488399D01*
X1186899Y490689D01*
X1185659Y493681D01*
X1185659Y496919D01*
X1186899Y499911D01*
X1189189Y502201D01*
X1192181Y503441D01*
X1195419Y503441D01*
X1198411Y502201D01*
X1200701Y499911D01*
X1201941Y496919D01*
X1201941Y493681D01*
X1200701Y490689D01*
X1198411Y488399D01*
X1195419Y487159D01*
X1192181Y487159D01*
G37*
%LPD*%
%LPC*%
G36*
X328581Y487159D02*
X328581Y487159D01*
X325589Y488399D01*
X323299Y490689D01*
X322059Y493681D01*
X322059Y496919D01*
X323299Y499911D01*
X325589Y502201D01*
X328581Y503441D01*
X331819Y503441D01*
X334811Y502201D01*
X337101Y499911D01*
X338341Y496919D01*
X338341Y493681D01*
X337101Y490689D01*
X334811Y488399D01*
X331819Y487159D01*
X328581Y487159D01*
G37*
%LPD*%
%LPC*%
G36*
X328581Y131559D02*
X328581Y131559D01*
X325589Y132799D01*
X323299Y135089D01*
X322059Y138081D01*
X322059Y141319D01*
X323299Y144311D01*
X325589Y146601D01*
X328581Y147841D01*
X331819Y147841D01*
X334811Y146601D01*
X337101Y144311D01*
X338341Y141319D01*
X338341Y138081D01*
X337101Y135089D01*
X334811Y132799D01*
X331819Y131559D01*
X328581Y131559D01*
G37*
%LPD*%
%LPC*%
G36*
X1192181Y106159D02*
X1192181Y106159D01*
X1189189Y107399D01*
X1186899Y109689D01*
X1185659Y112681D01*
X1185659Y115919D01*
X1186899Y118911D01*
X1189189Y121201D01*
X1192181Y122441D01*
X1195419Y122441D01*
X1198411Y121201D01*
X1200701Y118911D01*
X1201941Y115919D01*
X1201941Y112681D01*
X1200701Y109689D01*
X1198411Y107399D01*
X1195419Y106159D01*
X1192181Y106159D01*
G37*
%LPD*%
%LPC*%
G36*
X1192181Y461759D02*
X1192181Y461759D01*
X1189189Y462999D01*
X1186899Y465289D01*
X1185659Y468281D01*
X1185659Y471519D01*
X1186899Y474511D01*
X1189189Y476801D01*
X1192181Y478041D01*
X1195419Y478041D01*
X1198411Y476801D01*
X1200701Y474511D01*
X1201941Y471519D01*
X1201941Y468281D01*
X1200701Y465289D01*
X1198411Y462999D01*
X1195419Y461759D01*
X1192181Y461759D01*
G37*
%LPD*%
%LPC*%
G36*
X328581Y106159D02*
X328581Y106159D01*
X325589Y107399D01*
X323299Y109689D01*
X322059Y112681D01*
X322059Y115919D01*
X323299Y118911D01*
X325589Y121201D01*
X328581Y122441D01*
X331819Y122441D01*
X334811Y121201D01*
X337101Y118911D01*
X338341Y115919D01*
X338341Y112681D01*
X337101Y109689D01*
X334811Y107399D01*
X331819Y106159D01*
X328581Y106159D01*
G37*
%LPD*%
%LPC*%
G36*
X1192181Y436359D02*
X1192181Y436359D01*
X1189189Y437599D01*
X1186899Y439889D01*
X1185659Y442881D01*
X1185659Y446119D01*
X1186899Y449111D01*
X1189189Y451401D01*
X1192181Y452641D01*
X1195419Y452641D01*
X1198411Y451401D01*
X1200701Y449111D01*
X1201941Y446119D01*
X1201941Y442881D01*
X1200701Y439889D01*
X1198411Y437599D01*
X1195419Y436359D01*
X1192181Y436359D01*
G37*
%LPD*%
%LPC*%
G36*
X328581Y436359D02*
X328581Y436359D01*
X325589Y437599D01*
X323299Y439889D01*
X322059Y442881D01*
X322059Y446119D01*
X323299Y449111D01*
X325589Y451401D01*
X328581Y452641D01*
X331819Y452641D01*
X334811Y451401D01*
X337101Y449111D01*
X338341Y446119D01*
X338341Y442881D01*
X337101Y439889D01*
X334811Y437599D01*
X331819Y436359D01*
X328581Y436359D01*
G37*
%LPD*%
%LPC*%
G36*
X1192181Y410959D02*
X1192181Y410959D01*
X1189189Y412199D01*
X1186899Y414489D01*
X1185659Y417481D01*
X1185659Y420719D01*
X1186899Y423711D01*
X1189189Y426001D01*
X1192181Y427241D01*
X1195419Y427241D01*
X1198411Y426001D01*
X1200701Y423711D01*
X1201941Y420719D01*
X1201941Y417481D01*
X1200701Y414489D01*
X1198411Y412199D01*
X1195419Y410959D01*
X1192181Y410959D01*
G37*
%LPD*%
%LPC*%
G36*
X328581Y461759D02*
X328581Y461759D01*
X325589Y462999D01*
X323299Y465289D01*
X322059Y468281D01*
X322059Y471519D01*
X323299Y474511D01*
X325589Y476801D01*
X328581Y478041D01*
X331819Y478041D01*
X334811Y476801D01*
X337101Y474511D01*
X338341Y471519D01*
X338341Y468281D01*
X337101Y465289D01*
X334811Y462999D01*
X331819Y461759D01*
X328581Y461759D01*
G37*
%LPD*%
%LPC*%
G36*
X1192181Y385559D02*
X1192181Y385559D01*
X1189189Y386799D01*
X1186899Y389089D01*
X1185659Y392081D01*
X1185659Y395319D01*
X1186899Y398311D01*
X1189189Y400601D01*
X1192181Y401841D01*
X1195419Y401841D01*
X1198411Y400601D01*
X1200701Y398311D01*
X1201941Y395319D01*
X1201941Y392081D01*
X1200701Y389089D01*
X1198411Y386799D01*
X1195419Y385559D01*
X1192181Y385559D01*
G37*
%LPD*%
%LPC*%
G36*
X328581Y385559D02*
X328581Y385559D01*
X325589Y386799D01*
X323299Y389089D01*
X322059Y392081D01*
X322059Y395319D01*
X323299Y398311D01*
X325589Y400601D01*
X328581Y401841D01*
X331819Y401841D01*
X334811Y400601D01*
X337101Y398311D01*
X338341Y395319D01*
X338341Y392081D01*
X337101Y389089D01*
X334811Y386799D01*
X331819Y385559D01*
X328581Y385559D01*
G37*
%LPD*%
%LPC*%
G36*
X1192181Y360159D02*
X1192181Y360159D01*
X1189189Y361399D01*
X1186899Y363689D01*
X1185659Y366681D01*
X1185659Y369919D01*
X1186899Y372911D01*
X1189189Y375201D01*
X1192181Y376441D01*
X1195419Y376441D01*
X1198411Y375201D01*
X1200701Y372911D01*
X1201941Y369919D01*
X1201941Y366681D01*
X1200701Y363689D01*
X1198411Y361399D01*
X1195419Y360159D01*
X1192181Y360159D01*
G37*
%LPD*%
%LPC*%
G36*
X1294288Y362711D02*
X1294288Y362711D01*
X1292234Y363562D01*
X1290662Y365134D01*
X1289811Y367188D01*
X1289811Y369412D01*
X1290662Y371466D01*
X1292234Y373038D01*
X1294288Y373889D01*
X1296512Y373889D01*
X1298566Y373038D01*
X1300138Y371466D01*
X1300989Y369412D01*
X1300989Y367188D01*
X1300138Y365134D01*
X1298566Y363562D01*
X1296512Y362711D01*
X1294288Y362711D01*
G37*
%LPD*%
%LPC*%
G36*
X786288Y927861D02*
X786288Y927861D01*
X784234Y928712D01*
X782662Y930284D01*
X781811Y932338D01*
X781811Y934562D01*
X782662Y936616D01*
X784234Y938188D01*
X786288Y939039D01*
X788512Y939039D01*
X790566Y938188D01*
X792138Y936616D01*
X792989Y934562D01*
X792989Y932338D01*
X792138Y930284D01*
X790566Y928712D01*
X788512Y927861D01*
X786288Y927861D01*
G37*
%LPD*%
%LPC*%
G36*
X741838Y927861D02*
X741838Y927861D01*
X739784Y928712D01*
X738212Y930284D01*
X737361Y932338D01*
X737361Y934562D01*
X738212Y936616D01*
X739784Y938188D01*
X741838Y939039D01*
X744062Y939039D01*
X746116Y938188D01*
X747688Y936616D01*
X748539Y934562D01*
X748539Y932338D01*
X747688Y930284D01*
X746116Y928712D01*
X744062Y927861D01*
X741838Y927861D01*
G37*
%LPD*%
%LPC*%
G36*
X49688Y273811D02*
X49688Y273811D01*
X47634Y274662D01*
X46062Y276234D01*
X45211Y278288D01*
X45211Y280512D01*
X46062Y282566D01*
X47634Y284138D01*
X49688Y284989D01*
X51912Y284989D01*
X53966Y284138D01*
X55538Y282566D01*
X56389Y280512D01*
X56389Y278288D01*
X55538Y276234D01*
X53966Y274662D01*
X51912Y273811D01*
X49688Y273811D01*
G37*
%LPD*%
%LPC*%
G36*
X741679Y1005839D02*
X741679Y1005839D01*
X741679Y1012624D01*
X742845Y1012246D01*
X744199Y1011556D01*
X745428Y1010663D01*
X746503Y1009588D01*
X747396Y1008359D01*
X748086Y1007005D01*
X748464Y1005839D01*
X741679Y1005839D01*
G37*
%LPD*%
%LPC*%
G36*
X741679Y1000761D02*
X741679Y1000761D01*
X748464Y1000761D01*
X748086Y999595D01*
X747396Y998241D01*
X746503Y997012D01*
X745428Y995937D01*
X744199Y995044D01*
X742845Y994354D01*
X741679Y993976D01*
X741679Y1000761D01*
G37*
%LPD*%
%LPC*%
G36*
X729816Y1005839D02*
X729816Y1005839D01*
X730194Y1007005D01*
X730884Y1008359D01*
X731777Y1009588D01*
X732852Y1010663D01*
X734081Y1011556D01*
X735435Y1012246D01*
X736601Y1012624D01*
X736601Y1005839D01*
X729816Y1005839D01*
G37*
%LPD*%
%LPC*%
G36*
X735435Y994354D02*
X735435Y994354D01*
X734081Y995044D01*
X732852Y995937D01*
X731777Y997012D01*
X730884Y998241D01*
X730194Y999595D01*
X729816Y1000761D01*
X736601Y1000761D01*
X736601Y993976D01*
X735435Y994354D01*
G37*
%LPD*%
%LPC*%
G36*
X340722Y703522D02*
X340722Y703522D01*
X340722Y709793D01*
X341056Y709727D01*
X342651Y709066D01*
X344087Y708107D01*
X345307Y706887D01*
X346266Y705451D01*
X346927Y703856D01*
X346993Y703522D01*
X340722Y703522D01*
G37*
%LPD*%
%LPC*%
G36*
X264522Y703522D02*
X264522Y703522D01*
X264522Y709793D01*
X264856Y709727D01*
X266451Y709066D01*
X267887Y708107D01*
X269107Y706887D01*
X270066Y705451D01*
X270727Y703856D01*
X270793Y703522D01*
X264522Y703522D01*
G37*
%LPD*%
%LPC*%
G36*
X264522Y932122D02*
X264522Y932122D01*
X264522Y938393D01*
X264856Y938327D01*
X266451Y937666D01*
X267887Y936707D01*
X269107Y935487D01*
X270066Y934051D01*
X270727Y932456D01*
X270793Y932122D01*
X264522Y932122D01*
G37*
%LPD*%
%LPC*%
G36*
X340722Y932122D02*
X340722Y932122D01*
X340722Y938393D01*
X341056Y938327D01*
X342651Y937666D01*
X344087Y936707D01*
X345307Y935487D01*
X346266Y934051D01*
X346927Y932456D01*
X346993Y932122D01*
X340722Y932122D01*
G37*
%LPD*%
%LPC*%
G36*
X253807Y932122D02*
X253807Y932122D01*
X253873Y932456D01*
X254534Y934051D01*
X255493Y935487D01*
X256713Y936707D01*
X258149Y937666D01*
X259744Y938327D01*
X260078Y938393D01*
X260078Y932122D01*
X253807Y932122D01*
G37*
%LPD*%
%LPC*%
G36*
X340722Y699078D02*
X340722Y699078D01*
X346993Y699078D01*
X346927Y698744D01*
X346266Y697149D01*
X345307Y695713D01*
X344087Y694493D01*
X342651Y693534D01*
X341056Y692873D01*
X340722Y692807D01*
X340722Y699078D01*
G37*
%LPD*%
%LPC*%
G36*
X264522Y699078D02*
X264522Y699078D01*
X270793Y699078D01*
X270727Y698744D01*
X270066Y697149D01*
X269107Y695713D01*
X267887Y694493D01*
X266451Y693534D01*
X264856Y692873D01*
X264522Y692807D01*
X264522Y699078D01*
G37*
%LPD*%
%LPC*%
G36*
X264522Y927678D02*
X264522Y927678D01*
X270793Y927678D01*
X270727Y927344D01*
X270066Y925749D01*
X269107Y924313D01*
X267887Y923093D01*
X266451Y922134D01*
X264856Y921473D01*
X264522Y921407D01*
X264522Y927678D01*
G37*
%LPD*%
%LPC*%
G36*
X330007Y932122D02*
X330007Y932122D01*
X330073Y932456D01*
X330734Y934051D01*
X331693Y935487D01*
X332913Y936707D01*
X334349Y937666D01*
X335944Y938327D01*
X336278Y938393D01*
X336278Y932122D01*
X330007Y932122D01*
G37*
%LPD*%
%LPC*%
G36*
X253807Y703522D02*
X253807Y703522D01*
X253873Y703856D01*
X254534Y705451D01*
X255493Y706887D01*
X256713Y708107D01*
X258149Y709066D01*
X259744Y709727D01*
X260078Y709793D01*
X260078Y703522D01*
X253807Y703522D01*
G37*
%LPD*%
%LPC*%
G36*
X330007Y703522D02*
X330007Y703522D01*
X330073Y703856D01*
X330734Y705451D01*
X331693Y706887D01*
X332913Y708107D01*
X334349Y709066D01*
X335944Y709727D01*
X336278Y709793D01*
X336278Y703522D01*
X330007Y703522D01*
G37*
%LPD*%
%LPC*%
G36*
X340722Y927678D02*
X340722Y927678D01*
X346993Y927678D01*
X346927Y927344D01*
X346266Y925749D01*
X345307Y924313D01*
X344087Y923093D01*
X342651Y922134D01*
X341056Y921473D01*
X340722Y921407D01*
X340722Y927678D01*
G37*
%LPD*%
%LPC*%
G36*
X259744Y692873D02*
X259744Y692873D01*
X258149Y693534D01*
X256713Y694493D01*
X255493Y695713D01*
X254534Y697149D01*
X253873Y698744D01*
X253807Y699078D01*
X260078Y699078D01*
X260078Y692807D01*
X259744Y692873D01*
G37*
%LPD*%
%LPC*%
G36*
X335944Y921473D02*
X335944Y921473D01*
X334349Y922134D01*
X332913Y923093D01*
X331693Y924313D01*
X330734Y925749D01*
X330073Y927344D01*
X330007Y927678D01*
X336278Y927678D01*
X336278Y921407D01*
X335944Y921473D01*
G37*
%LPD*%
%LPC*%
G36*
X335944Y692873D02*
X335944Y692873D01*
X334349Y693534D01*
X332913Y694493D01*
X331693Y695713D01*
X330734Y697149D01*
X330073Y698744D01*
X330007Y699078D01*
X336278Y699078D01*
X336278Y692807D01*
X335944Y692873D01*
G37*
%LPD*%
%LPC*%
G36*
X259744Y921473D02*
X259744Y921473D01*
X258149Y922134D01*
X256713Y923093D01*
X255493Y924313D01*
X254534Y925749D01*
X253873Y927344D01*
X253807Y927678D01*
X260078Y927678D01*
X260078Y921407D01*
X259744Y921473D01*
G37*
%LPD*%
%LPC*%
G36*
X332199Y598899D02*
X332199Y598899D01*
X332199Y604803D01*
X332575Y604728D01*
X334056Y604114D01*
X335389Y603223D01*
X336523Y602089D01*
X337414Y600756D01*
X338028Y599275D01*
X338103Y598899D01*
X332199Y598899D01*
G37*
%LPD*%
%LPC*%
G36*
X167099Y502899D02*
X167099Y502899D01*
X167099Y508803D01*
X167475Y508728D01*
X168956Y508114D01*
X170289Y507223D01*
X171423Y506089D01*
X172314Y504756D01*
X172928Y503275D01*
X173003Y502899D01*
X167099Y502899D01*
G37*
%LPD*%
%LPC*%
G36*
X322297Y598899D02*
X322297Y598899D01*
X322372Y599275D01*
X322986Y600756D01*
X323877Y602089D01*
X325011Y603223D01*
X326344Y604114D01*
X327825Y604728D01*
X328201Y604803D01*
X328201Y598899D01*
X322297Y598899D01*
G37*
%LPD*%
%LPC*%
G36*
X167099Y498901D02*
X167099Y498901D01*
X173003Y498901D01*
X172928Y498525D01*
X172314Y497044D01*
X171423Y495711D01*
X170289Y494577D01*
X168956Y493686D01*
X167475Y493072D01*
X167099Y492997D01*
X167099Y498901D01*
G37*
%LPD*%
%LPC*%
G36*
X332199Y594901D02*
X332199Y594901D01*
X338103Y594901D01*
X338028Y594525D01*
X337414Y593044D01*
X336523Y591711D01*
X335389Y590577D01*
X334056Y589686D01*
X332575Y589072D01*
X332199Y588997D01*
X332199Y594901D01*
G37*
%LPD*%
%LPC*%
G36*
X157197Y502899D02*
X157197Y502899D01*
X157272Y503275D01*
X157886Y504756D01*
X158777Y506089D01*
X159911Y507223D01*
X161244Y508114D01*
X162725Y508728D01*
X163101Y508803D01*
X163101Y502899D01*
X157197Y502899D01*
G37*
%LPD*%
%LPC*%
G36*
X162725Y493072D02*
X162725Y493072D01*
X161244Y493686D01*
X159911Y494577D01*
X158777Y495711D01*
X157886Y497044D01*
X157272Y498525D01*
X157197Y498901D01*
X163101Y498901D01*
X163101Y492997D01*
X162725Y493072D01*
G37*
%LPD*%
%LPC*%
G36*
X327825Y589072D02*
X327825Y589072D01*
X326344Y589686D01*
X325011Y590577D01*
X323877Y591711D01*
X322986Y593044D01*
X322372Y594525D01*
X322297Y594901D01*
X328201Y594901D01*
X328201Y588997D01*
X327825Y589072D01*
G37*
%LPD*%
%LPC*%
G36*
X739139Y1003299D02*
X739139Y1003299D01*
X739139Y1003301D01*
X739141Y1003301D01*
X739141Y1003299D01*
X739139Y1003299D01*
G37*
%LPD*%
D10*
X789940Y1003300D03*
X764540Y1003300D03*
X739140Y1003300D03*
X713740Y1003300D03*
D11*
X165100Y500900D03*
X165100Y565900D03*
D12*
X38100Y50800D03*
X38100Y1028700D03*
X1422400Y1028700D03*
X1422400Y50800D03*
D13*
X84500Y955300D03*
X84500Y929900D03*
X109900Y955300D03*
X109900Y929900D03*
X135300Y955300D03*
X135300Y929900D03*
X160700Y955300D03*
X160700Y929900D03*
X186100Y955300D03*
X186100Y929900D03*
X211500Y955300D03*
X211500Y929900D03*
X236900Y955300D03*
X236900Y929900D03*
X262300Y955300D03*
X262300Y929900D03*
X287700Y955300D03*
X287700Y929900D03*
X313100Y955300D03*
X313100Y929900D03*
X338500Y955300D03*
X338500Y929900D03*
X363900Y955300D03*
X363900Y929900D03*
X389300Y955300D03*
X389300Y929900D03*
X414700Y955300D03*
X414700Y929900D03*
X440100Y955300D03*
X440100Y929900D03*
X465500Y955300D03*
X465500Y929900D03*
X490900Y955300D03*
X490900Y929900D03*
X516300Y955300D03*
X516300Y929900D03*
X84500Y701300D03*
X84500Y675900D03*
X109900Y701300D03*
X109900Y675900D03*
X135300Y701300D03*
X135300Y675900D03*
X160700Y701300D03*
X160700Y675900D03*
X186100Y701300D03*
X186100Y675900D03*
X211500Y701300D03*
X211500Y675900D03*
X236900Y701300D03*
X236900Y675900D03*
X262300Y701300D03*
X262300Y675900D03*
X287700Y701300D03*
X287700Y675900D03*
X313100Y701300D03*
X313100Y675900D03*
X338500Y701300D03*
X338500Y675900D03*
X363900Y701300D03*
X363900Y675900D03*
X389300Y701300D03*
X389300Y675900D03*
X414700Y701300D03*
X414700Y675900D03*
X440100Y701300D03*
X440100Y675900D03*
X465500Y701300D03*
X465500Y675900D03*
X490900Y701300D03*
X490900Y675900D03*
X516300Y701300D03*
X516300Y675900D03*
D14*
X240300Y240900D03*
X240300Y190900D03*
X115300Y190900D03*
X115300Y240900D03*
X1396000Y240900D03*
X1396000Y190900D03*
X1271000Y190900D03*
X1271000Y240900D03*
D11*
X330200Y596900D03*
X330200Y571500D03*
X330200Y546100D03*
X330200Y520700D03*
X330200Y495300D03*
X330200Y469900D03*
X330200Y444500D03*
X330200Y419100D03*
X330200Y393700D03*
X330200Y368300D03*
X330200Y342900D03*
X330200Y317500D03*
X330200Y292100D03*
X330200Y266700D03*
X330200Y241300D03*
X330200Y215900D03*
X330200Y190500D03*
X330200Y165100D03*
X330200Y139700D03*
X330200Y114300D03*
X1193800Y596900D03*
X1193800Y571500D03*
X1193800Y546100D03*
X1193800Y520700D03*
X1193800Y495300D03*
X1193800Y469900D03*
X1193800Y444500D03*
X1193800Y419100D03*
X1193800Y393700D03*
X1193800Y368300D03*
X1193800Y342900D03*
X1193800Y317500D03*
X1193800Y292100D03*
X1193800Y266700D03*
X1193800Y241300D03*
X1193800Y215900D03*
X1193800Y190500D03*
X1193800Y165100D03*
X1193800Y139700D03*
X1193800Y114300D03*
D15*
X1352550Y342900D03*
X1295400Y368300D03*
X50800Y279400D03*
X742950Y933450D03*
X787400Y933450D03*
M02*
