G04 EAGLE Gerber RS-274X export*
G75*
%MOMM*%
%FSLAX34Y34*%
%LPD*%
%INTop Copper*%
%IPPOS*%
%AMOC8*
5,1,8,0,0,1.08239X$1,22.5*%
G01*
%ADD10C,1.778000*%
%ADD11C,1.120000*%
%ADD12C,1.016000*%
%ADD13C,4.445000*%
%ADD14R,1.524000X1.524000*%
%ADD15P,1.649562X8X22.500000*%
%ADD16C,1.960000*%
%ADD17R,1.031241X0.949959*%
%ADD18R,0.949959X1.031241*%
%ADD19R,1.120000X1.120000*%
%ADD20R,1.600000X1.803000*%
%ADD21C,0.254000*%
%ADD22C,0.609600*%

G36*
X1470644Y1063108D02*
X1470644Y1063108D01*
X1470637Y1063227D01*
X1470624Y1063265D01*
X1470619Y1063306D01*
X1470576Y1063416D01*
X1470539Y1063529D01*
X1470517Y1063564D01*
X1470502Y1063601D01*
X1470433Y1063697D01*
X1470369Y1063798D01*
X1470339Y1063826D01*
X1470316Y1063859D01*
X1470224Y1063935D01*
X1470137Y1064016D01*
X1470102Y1064036D01*
X1470071Y1064061D01*
X1469963Y1064112D01*
X1469859Y1064170D01*
X1469819Y1064180D01*
X1469783Y1064197D01*
X1469666Y1064219D01*
X1469551Y1064249D01*
X1469491Y1064253D01*
X1469471Y1064257D01*
X1469450Y1064255D01*
X1469390Y1064259D01*
X3810Y1064259D01*
X3692Y1064244D01*
X3573Y1064237D01*
X3535Y1064224D01*
X3494Y1064219D01*
X3384Y1064176D01*
X3271Y1064139D01*
X3236Y1064117D01*
X3199Y1064102D01*
X3103Y1064033D01*
X3002Y1063969D01*
X2974Y1063939D01*
X2941Y1063916D01*
X2865Y1063824D01*
X2784Y1063737D01*
X2764Y1063702D01*
X2739Y1063671D01*
X2688Y1063563D01*
X2630Y1063459D01*
X2620Y1063419D01*
X2603Y1063383D01*
X2581Y1063266D01*
X2551Y1063151D01*
X2547Y1063091D01*
X2543Y1063071D01*
X2545Y1063050D01*
X2541Y1062990D01*
X2541Y3810D01*
X2556Y3692D01*
X2563Y3573D01*
X2576Y3535D01*
X2581Y3494D01*
X2624Y3384D01*
X2661Y3271D01*
X2683Y3236D01*
X2698Y3199D01*
X2767Y3103D01*
X2831Y3002D01*
X2861Y2974D01*
X2884Y2941D01*
X2976Y2865D01*
X3063Y2784D01*
X3098Y2764D01*
X3129Y2739D01*
X3237Y2688D01*
X3341Y2630D01*
X3381Y2620D01*
X3417Y2603D01*
X3534Y2581D01*
X3649Y2551D01*
X3709Y2547D01*
X3729Y2543D01*
X3750Y2545D01*
X3810Y2541D01*
X1469390Y2541D01*
X1469508Y2556D01*
X1469627Y2563D01*
X1469665Y2576D01*
X1469706Y2581D01*
X1469816Y2624D01*
X1469929Y2661D01*
X1469964Y2683D01*
X1470001Y2698D01*
X1470097Y2767D01*
X1470198Y2831D01*
X1470226Y2861D01*
X1470259Y2884D01*
X1470335Y2976D01*
X1470416Y3063D01*
X1470436Y3098D01*
X1470461Y3129D01*
X1470512Y3237D01*
X1470570Y3341D01*
X1470580Y3381D01*
X1470597Y3417D01*
X1470619Y3534D01*
X1470649Y3649D01*
X1470653Y3709D01*
X1470657Y3729D01*
X1470655Y3750D01*
X1470659Y3810D01*
X1470659Y1062990D01*
X1470644Y1063108D01*
G37*
%LPC*%
G36*
X88900Y989331D02*
X88900Y989331D01*
X89018Y989346D01*
X89137Y989353D01*
X89175Y989366D01*
X89216Y989371D01*
X89326Y989414D01*
X89439Y989451D01*
X89474Y989473D01*
X89511Y989488D01*
X89607Y989558D01*
X89708Y989621D01*
X89736Y989651D01*
X89769Y989674D01*
X89845Y989766D01*
X89926Y989853D01*
X89946Y989888D01*
X89971Y989919D01*
X90022Y990027D01*
X90080Y990131D01*
X90090Y990171D01*
X90107Y990207D01*
X90129Y990324D01*
X90159Y990439D01*
X90163Y990500D01*
X90167Y990520D01*
X90165Y990540D01*
X90169Y990600D01*
X90169Y1052831D01*
X1370331Y1052831D01*
X1370331Y990600D01*
X1370346Y990482D01*
X1370353Y990363D01*
X1370366Y990325D01*
X1370371Y990284D01*
X1370414Y990174D01*
X1370451Y990061D01*
X1370473Y990026D01*
X1370488Y989989D01*
X1370558Y989893D01*
X1370621Y989792D01*
X1370651Y989764D01*
X1370674Y989731D01*
X1370766Y989656D01*
X1370853Y989574D01*
X1370888Y989554D01*
X1370919Y989529D01*
X1371027Y989478D01*
X1371131Y989420D01*
X1371171Y989410D01*
X1371207Y989393D01*
X1371324Y989371D01*
X1371439Y989341D01*
X1371500Y989337D01*
X1371520Y989333D01*
X1371540Y989335D01*
X1371600Y989331D01*
X1459231Y989331D01*
X1459231Y90169D01*
X1371600Y90169D01*
X1371482Y90154D01*
X1371363Y90147D01*
X1371325Y90134D01*
X1371284Y90129D01*
X1371174Y90086D01*
X1371061Y90049D01*
X1371026Y90027D01*
X1370989Y90012D01*
X1370893Y89943D01*
X1370792Y89879D01*
X1370764Y89849D01*
X1370731Y89826D01*
X1370656Y89734D01*
X1370574Y89647D01*
X1370554Y89612D01*
X1370529Y89581D01*
X1370478Y89473D01*
X1370420Y89369D01*
X1370410Y89329D01*
X1370393Y89293D01*
X1370371Y89176D01*
X1370341Y89061D01*
X1370337Y89001D01*
X1370333Y88981D01*
X1370335Y88960D01*
X1370331Y88900D01*
X1370331Y13969D01*
X90169Y13969D01*
X90169Y88900D01*
X90154Y89018D01*
X90147Y89137D01*
X90134Y89175D01*
X90129Y89216D01*
X90086Y89326D01*
X90049Y89439D01*
X90027Y89474D01*
X90012Y89511D01*
X89943Y89607D01*
X89879Y89708D01*
X89849Y89736D01*
X89826Y89769D01*
X89734Y89845D01*
X89647Y89926D01*
X89612Y89946D01*
X89581Y89971D01*
X89473Y90022D01*
X89369Y90080D01*
X89329Y90090D01*
X89293Y90107D01*
X89176Y90129D01*
X89061Y90159D01*
X89001Y90163D01*
X88981Y90167D01*
X88960Y90165D01*
X88900Y90169D01*
X13969Y90169D01*
X13969Y989331D01*
X88900Y989331D01*
G37*
%LPD*%
%LPC*%
G36*
X40639Y1031239D02*
X40639Y1031239D01*
X40639Y1053336D01*
X42255Y1053154D01*
X44967Y1052535D01*
X47592Y1051617D01*
X50099Y1050410D01*
X52454Y1048930D01*
X54629Y1047195D01*
X56595Y1045229D01*
X58330Y1043054D01*
X59810Y1040699D01*
X61017Y1038192D01*
X61935Y1035567D01*
X62554Y1032855D01*
X62736Y1031239D01*
X40639Y1031239D01*
G37*
%LPD*%
%LPC*%
G36*
X1424939Y1031239D02*
X1424939Y1031239D01*
X1424939Y1053336D01*
X1426555Y1053154D01*
X1429267Y1052535D01*
X1431892Y1051617D01*
X1434399Y1050410D01*
X1436754Y1048930D01*
X1438929Y1047195D01*
X1440895Y1045229D01*
X1442630Y1043054D01*
X1444110Y1040699D01*
X1445317Y1038192D01*
X1446235Y1035567D01*
X1446854Y1032855D01*
X1447036Y1031239D01*
X1424939Y1031239D01*
G37*
%LPD*%
%LPC*%
G36*
X40639Y53339D02*
X40639Y53339D01*
X40639Y75436D01*
X42255Y75254D01*
X44967Y74635D01*
X47592Y73717D01*
X50099Y72510D01*
X52454Y71030D01*
X54629Y69295D01*
X56595Y67329D01*
X58330Y65154D01*
X59810Y62799D01*
X61017Y60292D01*
X61935Y57667D01*
X62554Y54955D01*
X62736Y53339D01*
X40639Y53339D01*
G37*
%LPD*%
%LPC*%
G36*
X1424939Y53339D02*
X1424939Y53339D01*
X1424939Y75436D01*
X1426555Y75254D01*
X1429267Y74635D01*
X1431892Y73717D01*
X1434399Y72510D01*
X1436754Y71030D01*
X1438929Y69295D01*
X1440895Y67329D01*
X1442630Y65154D01*
X1444110Y62799D01*
X1445317Y60292D01*
X1446235Y57667D01*
X1446854Y54955D01*
X1447036Y53339D01*
X1424939Y53339D01*
G37*
%LPD*%
%LPC*%
G36*
X13464Y1031239D02*
X13464Y1031239D01*
X13646Y1032855D01*
X14265Y1035567D01*
X15183Y1038192D01*
X16390Y1040699D01*
X17870Y1043054D01*
X19605Y1045229D01*
X21571Y1047195D01*
X23746Y1048930D01*
X26101Y1050410D01*
X28608Y1051617D01*
X31233Y1052535D01*
X33945Y1053154D01*
X35561Y1053336D01*
X35561Y1031239D01*
X13464Y1031239D01*
G37*
%LPD*%
%LPC*%
G36*
X1397764Y1031239D02*
X1397764Y1031239D01*
X1397946Y1032855D01*
X1398565Y1035567D01*
X1399483Y1038192D01*
X1400690Y1040699D01*
X1402170Y1043054D01*
X1403905Y1045229D01*
X1405871Y1047195D01*
X1408046Y1048930D01*
X1410401Y1050410D01*
X1412908Y1051617D01*
X1415533Y1052535D01*
X1418245Y1053154D01*
X1419861Y1053336D01*
X1419861Y1031239D01*
X1397764Y1031239D01*
G37*
%LPD*%
%LPC*%
G36*
X1424939Y1026161D02*
X1424939Y1026161D01*
X1447036Y1026161D01*
X1446854Y1024545D01*
X1446235Y1021833D01*
X1445317Y1019208D01*
X1444110Y1016701D01*
X1442630Y1014346D01*
X1440895Y1012171D01*
X1438929Y1010205D01*
X1436754Y1008470D01*
X1434399Y1006990D01*
X1431892Y1005783D01*
X1429267Y1004865D01*
X1426555Y1004246D01*
X1424939Y1004064D01*
X1424939Y1026161D01*
G37*
%LPD*%
%LPC*%
G36*
X40639Y1026161D02*
X40639Y1026161D01*
X62736Y1026161D01*
X62554Y1024545D01*
X61935Y1021833D01*
X61017Y1019208D01*
X59810Y1016701D01*
X58330Y1014346D01*
X56595Y1012171D01*
X54629Y1010205D01*
X52454Y1008470D01*
X50099Y1006990D01*
X47592Y1005783D01*
X44967Y1004865D01*
X42255Y1004246D01*
X40639Y1004064D01*
X40639Y1026161D01*
G37*
%LPD*%
%LPC*%
G36*
X13464Y53339D02*
X13464Y53339D01*
X13646Y54955D01*
X14265Y57667D01*
X15183Y60292D01*
X16390Y62799D01*
X17870Y65154D01*
X19605Y67329D01*
X21571Y69295D01*
X23746Y71030D01*
X26101Y72510D01*
X28608Y73717D01*
X31233Y74635D01*
X33945Y75254D01*
X35561Y75436D01*
X35561Y53339D01*
X13464Y53339D01*
G37*
%LPD*%
%LPC*%
G36*
X1397764Y53339D02*
X1397764Y53339D01*
X1397946Y54955D01*
X1398565Y57667D01*
X1399483Y60292D01*
X1400690Y62799D01*
X1402170Y65154D01*
X1403905Y67329D01*
X1405871Y69295D01*
X1408046Y71030D01*
X1410401Y72510D01*
X1412908Y73717D01*
X1415533Y74635D01*
X1418245Y75254D01*
X1419861Y75436D01*
X1419861Y53339D01*
X1397764Y53339D01*
G37*
%LPD*%
%LPC*%
G36*
X1424939Y48261D02*
X1424939Y48261D01*
X1447036Y48261D01*
X1446854Y46645D01*
X1446235Y43933D01*
X1445317Y41308D01*
X1444110Y38801D01*
X1442630Y36446D01*
X1440895Y34271D01*
X1438929Y32305D01*
X1436754Y30570D01*
X1434399Y29090D01*
X1431892Y27883D01*
X1429267Y26965D01*
X1426555Y26346D01*
X1424939Y26164D01*
X1424939Y48261D01*
G37*
%LPD*%
%LPC*%
G36*
X40639Y48261D02*
X40639Y48261D01*
X62736Y48261D01*
X62554Y46645D01*
X61935Y43933D01*
X61017Y41308D01*
X59810Y38801D01*
X58330Y36446D01*
X56595Y34271D01*
X54629Y32305D01*
X52454Y30570D01*
X50099Y29090D01*
X47592Y27883D01*
X44967Y26965D01*
X42255Y26346D01*
X40639Y26164D01*
X40639Y48261D01*
G37*
%LPD*%
%LPC*%
G36*
X1418245Y1004246D02*
X1418245Y1004246D01*
X1415533Y1004865D01*
X1412908Y1005783D01*
X1410401Y1006990D01*
X1408046Y1008470D01*
X1405871Y1010205D01*
X1403905Y1012171D01*
X1402170Y1014346D01*
X1400690Y1016701D01*
X1399483Y1019208D01*
X1398565Y1021833D01*
X1397946Y1024545D01*
X1397764Y1026161D01*
X1419861Y1026161D01*
X1419861Y1004064D01*
X1418245Y1004246D01*
G37*
%LPD*%
%LPC*%
G36*
X33945Y1004246D02*
X33945Y1004246D01*
X31233Y1004865D01*
X28608Y1005783D01*
X26101Y1006990D01*
X23746Y1008470D01*
X21571Y1010205D01*
X19605Y1012171D01*
X17870Y1014346D01*
X16390Y1016701D01*
X15183Y1019208D01*
X14265Y1021833D01*
X13646Y1024545D01*
X13464Y1026161D01*
X35561Y1026161D01*
X35561Y1004064D01*
X33945Y1004246D01*
G37*
%LPD*%
%LPC*%
G36*
X1418245Y26346D02*
X1418245Y26346D01*
X1415533Y26965D01*
X1412908Y27883D01*
X1410401Y29090D01*
X1408046Y30570D01*
X1405871Y32305D01*
X1403905Y34271D01*
X1402170Y36446D01*
X1400690Y38801D01*
X1399483Y41308D01*
X1398565Y43933D01*
X1397946Y46645D01*
X1397764Y48261D01*
X1419861Y48261D01*
X1419861Y26164D01*
X1418245Y26346D01*
G37*
%LPD*%
%LPC*%
G36*
X33945Y26346D02*
X33945Y26346D01*
X31233Y26965D01*
X28608Y27883D01*
X26101Y29090D01*
X23746Y30570D01*
X21571Y32305D01*
X19605Y34271D01*
X17870Y36446D01*
X16390Y38801D01*
X15183Y41308D01*
X14265Y43933D01*
X13646Y46645D01*
X13464Y48261D01*
X35561Y48261D01*
X35561Y26164D01*
X33945Y26346D01*
G37*
%LPD*%
%LPC*%
G36*
X1422399Y1028699D02*
X1422399Y1028699D01*
X1422399Y1028701D01*
X1422401Y1028701D01*
X1422401Y1028699D01*
X1422399Y1028699D01*
G37*
%LPD*%
%LPC*%
G36*
X38099Y1028699D02*
X38099Y1028699D01*
X38099Y1028701D01*
X38101Y1028701D01*
X38101Y1028699D01*
X38099Y1028699D01*
G37*
%LPD*%
%LPC*%
G36*
X1422399Y50799D02*
X1422399Y50799D01*
X1422399Y50801D01*
X1422401Y50801D01*
X1422401Y50799D01*
X1422399Y50799D01*
G37*
%LPD*%
%LPC*%
G36*
X38099Y50799D02*
X38099Y50799D01*
X38099Y50801D01*
X38101Y50801D01*
X38101Y50799D01*
X38099Y50799D01*
G37*
%LPD*%
D10*
X789940Y1003300D03*
X764540Y1003300D03*
X739140Y1003300D03*
X713740Y1003300D03*
D11*
X165100Y500900D03*
X165100Y565900D03*
D12*
X76200Y139700D03*
X1435100Y139700D03*
X1435100Y952500D03*
D13*
X38100Y50800D03*
X38100Y1028700D03*
X1422400Y1028700D03*
X1422400Y50800D03*
D14*
X84500Y955300D03*
D15*
X84500Y929900D03*
X109900Y955300D03*
X109900Y929900D03*
X135300Y955300D03*
X135300Y929900D03*
X160700Y955300D03*
X160700Y929900D03*
X186100Y955300D03*
X186100Y929900D03*
X211500Y955300D03*
X211500Y929900D03*
X236900Y955300D03*
X236900Y929900D03*
X262300Y955300D03*
X262300Y929900D03*
X287700Y955300D03*
X287700Y929900D03*
X313100Y955300D03*
X313100Y929900D03*
X338500Y955300D03*
X338500Y929900D03*
X363900Y955300D03*
X363900Y929900D03*
X389300Y955300D03*
X389300Y929900D03*
X414700Y955300D03*
X414700Y929900D03*
X440100Y955300D03*
X440100Y929900D03*
X465500Y955300D03*
X465500Y929900D03*
X490900Y955300D03*
X490900Y929900D03*
X516300Y955300D03*
X516300Y929900D03*
D14*
X84500Y701300D03*
D15*
X84500Y675900D03*
X109900Y701300D03*
X109900Y675900D03*
X135300Y701300D03*
X135300Y675900D03*
X160700Y701300D03*
X160700Y675900D03*
X186100Y701300D03*
X186100Y675900D03*
X211500Y701300D03*
X211500Y675900D03*
X236900Y701300D03*
X236900Y675900D03*
X262300Y701300D03*
X262300Y675900D03*
X287700Y701300D03*
X287700Y675900D03*
X313100Y701300D03*
X313100Y675900D03*
X338500Y701300D03*
X338500Y675900D03*
X363900Y701300D03*
X363900Y675900D03*
X389300Y701300D03*
X389300Y675900D03*
X414700Y701300D03*
X414700Y675900D03*
X440100Y701300D03*
X440100Y675900D03*
X465500Y701300D03*
X465500Y675900D03*
X490900Y701300D03*
X490900Y675900D03*
X516300Y701300D03*
X516300Y675900D03*
D16*
X240300Y240900D03*
X240300Y190900D03*
X115300Y190900D03*
X115300Y240900D03*
X1396000Y240900D03*
X1396000Y190900D03*
X1271000Y190900D03*
X1271000Y240900D03*
D17*
X787400Y973201D03*
X787400Y957199D03*
X758190Y973201D03*
X758190Y957199D03*
D18*
X77851Y273050D03*
X61849Y273050D03*
D17*
X1295400Y341249D03*
X1295400Y357251D03*
D19*
X330200Y596900D03*
D11*
X330200Y571500D03*
X330200Y546100D03*
X330200Y520700D03*
X330200Y495300D03*
X330200Y469900D03*
X330200Y444500D03*
X330200Y419100D03*
X330200Y393700D03*
X330200Y368300D03*
X330200Y342900D03*
X330200Y317500D03*
X330200Y292100D03*
X330200Y266700D03*
X330200Y241300D03*
X330200Y215900D03*
X330200Y190500D03*
X330200Y165100D03*
X330200Y139700D03*
X330200Y114300D03*
X1193800Y596900D03*
X1193800Y571500D03*
X1193800Y546100D03*
X1193800Y520700D03*
X1193800Y495300D03*
X1193800Y469900D03*
X1193800Y444500D03*
X1193800Y419100D03*
X1193800Y393700D03*
X1193800Y368300D03*
X1193800Y342900D03*
X1193800Y317500D03*
X1193800Y292100D03*
X1193800Y266700D03*
X1193800Y241300D03*
X1193800Y215900D03*
X1193800Y190500D03*
X1193800Y165100D03*
X1193800Y139700D03*
X1193800Y114300D03*
D20*
X1370080Y342900D03*
X1398520Y342900D03*
D21*
X1370080Y342900D02*
X1352550Y342900D01*
D22*
X1352550Y342900D03*
D21*
X1295400Y357251D02*
X1295400Y368300D01*
D22*
X1295400Y368300D03*
D21*
X61849Y273050D02*
X50800Y273050D01*
X50800Y279400D01*
D22*
X50800Y279400D03*
D21*
X758190Y948690D02*
X758190Y957199D01*
X758190Y948690D02*
X742950Y933450D01*
D22*
X742950Y933450D03*
D21*
X787400Y933450D02*
X787400Y957199D01*
D22*
X787400Y933450D03*
D21*
X789940Y975741D02*
X789940Y1003300D01*
X789940Y975741D02*
X787400Y973201D01*
X745791Y926592D02*
X740109Y926592D01*
X769620Y982980D02*
X789940Y1003300D01*
X423936Y929900D02*
X414700Y929900D01*
X423936Y929900D02*
X435366Y941330D01*
X725371Y941330D01*
X740109Y926592D01*
X745791Y926592D02*
X769620Y950421D01*
X769620Y982980D01*
X764540Y979551D02*
X764540Y1003300D01*
X764540Y979551D02*
X758190Y973201D01*
X403270Y943870D02*
X389300Y929900D01*
X403270Y943870D02*
X403270Y960035D01*
X471936Y1028700D01*
X762000Y1028700D01*
X764540Y1026160D01*
X764540Y1003300D01*
X95930Y689870D02*
X84500Y701300D01*
X95930Y635070D02*
X165100Y565900D01*
X95930Y635070D02*
X95930Y689870D01*
X114600Y241600D02*
X115300Y240900D01*
X114600Y241600D02*
X102200Y254000D01*
X88900Y254000D01*
X77851Y265049D01*
X77851Y273050D01*
X84500Y588600D02*
X84500Y675900D01*
X84500Y588600D02*
X107950Y565150D01*
X107950Y495300D01*
X114600Y336250D02*
X114600Y241600D01*
X76200Y463550D02*
X107950Y495300D01*
X76200Y463550D02*
X76200Y374650D01*
X114600Y336250D01*
X115300Y240900D02*
X240300Y240900D01*
X1271000Y240900D02*
X1396000Y240900D01*
X1301750Y271650D02*
X1271000Y240900D01*
X1301750Y334899D02*
X1295400Y341249D01*
X1301750Y334899D02*
X1301750Y271650D01*
X209550Y576250D02*
X109900Y675900D01*
X209550Y576250D02*
X209550Y393700D01*
X327140Y276110D01*
X1189902Y231890D02*
X1197698Y231890D01*
X1206708Y240900D02*
X1271000Y240900D01*
X1206708Y240900D02*
X1197698Y231890D01*
X1145682Y276110D02*
X327140Y276110D01*
X1145682Y276110D02*
X1189902Y231890D01*
X160700Y742865D02*
X160700Y929900D01*
X160700Y742865D02*
X197530Y706035D01*
X197530Y654730D02*
X196850Y654050D01*
X196850Y647700D01*
X254000Y590550D01*
X254000Y539750D01*
X273050Y520700D01*
X330200Y520700D01*
X197530Y654730D02*
X197530Y706035D01*
X355600Y520700D02*
X330200Y495300D01*
X355600Y668036D02*
X352470Y671166D01*
X352470Y707980D01*
X330200Y730250D02*
X330200Y774700D01*
X186100Y918800D02*
X186100Y929900D01*
X355600Y668036D02*
X355600Y520700D01*
X352470Y707980D02*
X330200Y730250D01*
X330200Y774700D02*
X186100Y918800D01*
X349250Y732115D02*
X375330Y706035D01*
X375330Y515030D02*
X330200Y469900D01*
X375330Y515030D02*
X375330Y706035D01*
X217850Y923550D02*
X211500Y929900D01*
X217850Y923550D02*
X217850Y912450D01*
X349250Y781050D02*
X349250Y732115D01*
X349250Y781050D02*
X217850Y912450D01*
X135300Y929900D02*
X135300Y742865D01*
X172130Y706035D01*
X172130Y661080D02*
X171450Y660400D01*
X171450Y654050D01*
X241300Y584200D02*
X241300Y469900D01*
X266700Y444500D01*
X330200Y444500D01*
X172130Y661080D02*
X172130Y706035D01*
X171450Y654050D02*
X241300Y584200D01*
X109900Y742865D02*
X109900Y929900D01*
X146730Y671166D02*
X146050Y670486D01*
X146050Y660400D01*
X146730Y671166D02*
X146730Y706035D01*
X228600Y577850D02*
X228600Y463550D01*
X273050Y419100D01*
X330200Y419100D01*
X146730Y706035D02*
X109900Y742865D01*
X146050Y660400D02*
X228600Y577850D01*
X330200Y393700D02*
X438150Y501650D01*
X438150Y628650D01*
X457200Y647700D01*
X495300Y647700D01*
X504870Y657270D01*
X516300Y692065D02*
X516300Y701300D01*
X504870Y680635D02*
X504870Y657270D01*
X504870Y680635D02*
X516300Y692065D01*
X1422400Y114300D02*
X1422400Y50800D01*
X1422400Y114300D02*
X1390650Y146050D01*
X1390650Y152400D01*
X1441450Y203200D01*
X1441450Y279400D01*
X1398520Y322330D02*
X1398520Y342900D01*
X1398520Y322330D02*
X1441450Y279400D01*
X1398520Y342900D02*
X1398520Y754130D01*
X1352550Y800100D01*
X1352550Y958850D01*
X1422400Y1028700D01*
M02*
