G04 EAGLE Gerber RS-274X export*
G75*
%MOMM*%
%FSLAX34Y34*%
%LPD*%
%INSilkscreen Top*%
%IPPOS*%
%AMOC8*
5,1,8,0,0,1.08239X$1,22.5*%
G01*
%ADD10C,0.152400*%
%ADD11C,0.508000*%
%ADD12C,0.076200*%
%ADD13C,0.127000*%
%ADD14C,0.101600*%
%ADD15C,0.254000*%
%ADD16C,0.304800*%


D10*
X1021729Y991362D02*
X1016762Y991362D01*
X1016762Y1002538D01*
X1021729Y1002538D01*
X1020487Y997571D02*
X1016762Y997571D01*
X1026640Y1002538D02*
X1026640Y991362D01*
X1032849Y991362D02*
X1026640Y1002538D01*
X1032849Y1002538D02*
X1032849Y991362D01*
X1043178Y997571D02*
X1045041Y997571D01*
X1045041Y991362D01*
X1041315Y991362D01*
X1041217Y991364D01*
X1041120Y991370D01*
X1041023Y991379D01*
X1040926Y991393D01*
X1040830Y991410D01*
X1040735Y991431D01*
X1040641Y991455D01*
X1040547Y991484D01*
X1040455Y991516D01*
X1040364Y991551D01*
X1040275Y991590D01*
X1040187Y991633D01*
X1040101Y991679D01*
X1040017Y991728D01*
X1039935Y991781D01*
X1039855Y991836D01*
X1039777Y991895D01*
X1039702Y991957D01*
X1039629Y992022D01*
X1039559Y992090D01*
X1039491Y992160D01*
X1039426Y992233D01*
X1039364Y992308D01*
X1039305Y992386D01*
X1039250Y992466D01*
X1039197Y992548D01*
X1039148Y992632D01*
X1039102Y992718D01*
X1039059Y992806D01*
X1039020Y992895D01*
X1038985Y992986D01*
X1038953Y993078D01*
X1038924Y993172D01*
X1038900Y993266D01*
X1038879Y993361D01*
X1038862Y993457D01*
X1038848Y993554D01*
X1038839Y993651D01*
X1038833Y993748D01*
X1038831Y993846D01*
X1038832Y993846D02*
X1038832Y1000054D01*
X1038831Y1000054D02*
X1038833Y1000152D01*
X1038839Y1000249D01*
X1038848Y1000346D01*
X1038862Y1000443D01*
X1038879Y1000539D01*
X1038900Y1000634D01*
X1038924Y1000728D01*
X1038953Y1000822D01*
X1038985Y1000914D01*
X1039020Y1001005D01*
X1039059Y1001094D01*
X1039102Y1001182D01*
X1039148Y1001268D01*
X1039197Y1001352D01*
X1039250Y1001434D01*
X1039305Y1001514D01*
X1039364Y1001592D01*
X1039426Y1001667D01*
X1039491Y1001740D01*
X1039559Y1001810D01*
X1039629Y1001878D01*
X1039702Y1001943D01*
X1039777Y1002005D01*
X1039855Y1002064D01*
X1039935Y1002119D01*
X1040017Y1002172D01*
X1040101Y1002221D01*
X1040187Y1002267D01*
X1040275Y1002310D01*
X1040364Y1002349D01*
X1040455Y1002384D01*
X1040547Y1002416D01*
X1040641Y1002445D01*
X1040735Y1002469D01*
X1040830Y1002490D01*
X1040926Y1002507D01*
X1041023Y1002521D01*
X1041120Y1002530D01*
X1041217Y1002536D01*
X1041315Y1002538D01*
X1045041Y1002538D01*
X1051461Y1002538D02*
X1051461Y991362D01*
X1050219Y991362D02*
X1052703Y991362D01*
X1052703Y1002538D02*
X1050219Y1002538D01*
X1063597Y991362D02*
X1066701Y991362D01*
X1066812Y991364D01*
X1066922Y991370D01*
X1067033Y991380D01*
X1067143Y991394D01*
X1067252Y991411D01*
X1067361Y991433D01*
X1067469Y991458D01*
X1067575Y991488D01*
X1067681Y991521D01*
X1067786Y991558D01*
X1067889Y991598D01*
X1067990Y991643D01*
X1068090Y991690D01*
X1068189Y991742D01*
X1068285Y991797D01*
X1068379Y991855D01*
X1068471Y991916D01*
X1068561Y991981D01*
X1068649Y992049D01*
X1068734Y992120D01*
X1068816Y992194D01*
X1068896Y992271D01*
X1068973Y992351D01*
X1069047Y992433D01*
X1069118Y992518D01*
X1069186Y992606D01*
X1069251Y992696D01*
X1069312Y992788D01*
X1069370Y992882D01*
X1069425Y992978D01*
X1069477Y993077D01*
X1069524Y993177D01*
X1069569Y993278D01*
X1069609Y993381D01*
X1069646Y993486D01*
X1069679Y993592D01*
X1069709Y993698D01*
X1069734Y993806D01*
X1069756Y993915D01*
X1069773Y994024D01*
X1069787Y994134D01*
X1069797Y994245D01*
X1069803Y994355D01*
X1069805Y994466D01*
X1069803Y994577D01*
X1069797Y994687D01*
X1069787Y994798D01*
X1069773Y994908D01*
X1069756Y995017D01*
X1069734Y995126D01*
X1069709Y995234D01*
X1069679Y995340D01*
X1069646Y995446D01*
X1069609Y995551D01*
X1069569Y995654D01*
X1069524Y995755D01*
X1069477Y995855D01*
X1069425Y995954D01*
X1069370Y996050D01*
X1069312Y996144D01*
X1069251Y996236D01*
X1069186Y996326D01*
X1069118Y996414D01*
X1069047Y996499D01*
X1068973Y996581D01*
X1068896Y996661D01*
X1068816Y996738D01*
X1068734Y996812D01*
X1068649Y996883D01*
X1068561Y996951D01*
X1068471Y997016D01*
X1068379Y997077D01*
X1068285Y997135D01*
X1068189Y997190D01*
X1068090Y997242D01*
X1067990Y997289D01*
X1067889Y997334D01*
X1067786Y997374D01*
X1067681Y997411D01*
X1067575Y997444D01*
X1067469Y997474D01*
X1067361Y997499D01*
X1067252Y997521D01*
X1067143Y997538D01*
X1067033Y997552D01*
X1066922Y997562D01*
X1066812Y997568D01*
X1066701Y997570D01*
X1067322Y1002538D02*
X1063597Y1002538D01*
X1067322Y1002538D02*
X1067421Y1002536D01*
X1067519Y1002530D01*
X1067618Y1002520D01*
X1067715Y1002507D01*
X1067813Y1002489D01*
X1067909Y1002468D01*
X1068005Y1002442D01*
X1068099Y1002413D01*
X1068192Y1002381D01*
X1068284Y1002344D01*
X1068374Y1002304D01*
X1068463Y1002260D01*
X1068550Y1002213D01*
X1068635Y1002163D01*
X1068717Y1002109D01*
X1068798Y1002052D01*
X1068876Y1001992D01*
X1068952Y1001928D01*
X1069025Y1001862D01*
X1069096Y1001793D01*
X1069164Y1001721D01*
X1069228Y1001646D01*
X1069290Y1001569D01*
X1069349Y1001490D01*
X1069404Y1001408D01*
X1069457Y1001324D01*
X1069505Y1001239D01*
X1069551Y1001151D01*
X1069593Y1001061D01*
X1069631Y1000970D01*
X1069665Y1000878D01*
X1069696Y1000784D01*
X1069723Y1000689D01*
X1069747Y1000593D01*
X1069766Y1000496D01*
X1069782Y1000399D01*
X1069794Y1000301D01*
X1069802Y1000202D01*
X1069806Y1000103D01*
X1069806Y1000005D01*
X1069802Y999906D01*
X1069794Y999807D01*
X1069782Y999709D01*
X1069766Y999612D01*
X1069747Y999515D01*
X1069723Y999419D01*
X1069696Y999324D01*
X1069665Y999230D01*
X1069631Y999138D01*
X1069593Y999047D01*
X1069551Y998957D01*
X1069505Y998869D01*
X1069457Y998784D01*
X1069404Y998700D01*
X1069349Y998618D01*
X1069290Y998539D01*
X1069228Y998462D01*
X1069164Y998387D01*
X1069096Y998315D01*
X1069025Y998246D01*
X1068952Y998180D01*
X1068876Y998116D01*
X1068798Y998056D01*
X1068717Y997999D01*
X1068635Y997945D01*
X1068550Y997895D01*
X1068463Y997848D01*
X1068374Y997804D01*
X1068284Y997764D01*
X1068192Y997727D01*
X1068099Y997695D01*
X1068005Y997666D01*
X1067909Y997640D01*
X1067813Y997619D01*
X1067715Y997601D01*
X1067618Y997588D01*
X1067519Y997578D01*
X1067421Y997572D01*
X1067322Y997570D01*
X1067322Y997571D02*
X1064838Y997571D01*
X1075027Y996950D02*
X1075030Y997170D01*
X1075037Y997390D01*
X1075051Y997609D01*
X1075069Y997828D01*
X1075093Y998047D01*
X1075121Y998265D01*
X1075155Y998482D01*
X1075194Y998698D01*
X1075239Y998914D01*
X1075288Y999128D01*
X1075343Y999341D01*
X1075402Y999553D01*
X1075467Y999763D01*
X1075537Y999971D01*
X1075611Y1000178D01*
X1075691Y1000383D01*
X1075775Y1000586D01*
X1075864Y1000787D01*
X1075958Y1000986D01*
X1075991Y1001075D01*
X1076027Y1001163D01*
X1076067Y1001249D01*
X1076110Y1001334D01*
X1076157Y1001416D01*
X1076208Y1001497D01*
X1076261Y1001575D01*
X1076318Y1001651D01*
X1076378Y1001725D01*
X1076441Y1001796D01*
X1076506Y1001865D01*
X1076575Y1001931D01*
X1076646Y1001993D01*
X1076720Y1002053D01*
X1076796Y1002110D01*
X1076874Y1002164D01*
X1076955Y1002214D01*
X1077037Y1002261D01*
X1077122Y1002304D01*
X1077208Y1002344D01*
X1077296Y1002381D01*
X1077385Y1002413D01*
X1077475Y1002442D01*
X1077567Y1002468D01*
X1077659Y1002489D01*
X1077753Y1002507D01*
X1077847Y1002520D01*
X1077941Y1002530D01*
X1078036Y1002536D01*
X1078131Y1002538D01*
X1078226Y1002536D01*
X1078321Y1002530D01*
X1078415Y1002520D01*
X1078509Y1002507D01*
X1078603Y1002489D01*
X1078695Y1002468D01*
X1078787Y1002442D01*
X1078877Y1002413D01*
X1078966Y1002381D01*
X1079054Y1002344D01*
X1079140Y1002304D01*
X1079225Y1002261D01*
X1079307Y1002214D01*
X1079388Y1002164D01*
X1079466Y1002110D01*
X1079542Y1002053D01*
X1079616Y1001993D01*
X1079687Y1001931D01*
X1079756Y1001865D01*
X1079821Y1001796D01*
X1079884Y1001725D01*
X1079944Y1001651D01*
X1080001Y1001575D01*
X1080054Y1001497D01*
X1080105Y1001416D01*
X1080152Y1001333D01*
X1080195Y1001249D01*
X1080235Y1001163D01*
X1080271Y1001075D01*
X1080304Y1000986D01*
X1080305Y1000986D02*
X1080399Y1000787D01*
X1080488Y1000586D01*
X1080572Y1000383D01*
X1080652Y1000178D01*
X1080726Y999971D01*
X1080796Y999763D01*
X1080861Y999553D01*
X1080920Y999341D01*
X1080975Y999128D01*
X1081024Y998914D01*
X1081069Y998698D01*
X1081108Y998482D01*
X1081142Y998265D01*
X1081170Y998047D01*
X1081194Y997828D01*
X1081212Y997609D01*
X1081226Y997390D01*
X1081233Y997170D01*
X1081236Y996950D01*
X1075027Y996950D02*
X1075030Y996730D01*
X1075037Y996510D01*
X1075051Y996291D01*
X1075069Y996072D01*
X1075093Y995853D01*
X1075121Y995635D01*
X1075155Y995418D01*
X1075194Y995202D01*
X1075239Y994986D01*
X1075288Y994772D01*
X1075343Y994559D01*
X1075402Y994348D01*
X1075467Y994137D01*
X1075537Y993929D01*
X1075611Y993722D01*
X1075691Y993517D01*
X1075775Y993314D01*
X1075864Y993113D01*
X1075958Y992914D01*
X1075991Y992825D01*
X1076027Y992737D01*
X1076067Y992651D01*
X1076110Y992566D01*
X1076157Y992484D01*
X1076208Y992403D01*
X1076261Y992325D01*
X1076318Y992249D01*
X1076378Y992175D01*
X1076441Y992104D01*
X1076506Y992035D01*
X1076575Y991969D01*
X1076646Y991907D01*
X1076720Y991847D01*
X1076796Y991790D01*
X1076874Y991736D01*
X1076955Y991686D01*
X1077037Y991639D01*
X1077122Y991596D01*
X1077208Y991556D01*
X1077296Y991519D01*
X1077385Y991487D01*
X1077475Y991458D01*
X1077567Y991432D01*
X1077659Y991411D01*
X1077753Y991393D01*
X1077847Y991380D01*
X1077941Y991370D01*
X1078036Y991364D01*
X1078131Y991362D01*
X1080305Y992914D02*
X1080399Y993113D01*
X1080488Y993314D01*
X1080572Y993517D01*
X1080652Y993722D01*
X1080726Y993929D01*
X1080796Y994137D01*
X1080861Y994347D01*
X1080920Y994559D01*
X1080975Y994772D01*
X1081024Y994986D01*
X1081069Y995202D01*
X1081108Y995418D01*
X1081142Y995635D01*
X1081170Y995853D01*
X1081194Y996072D01*
X1081212Y996291D01*
X1081226Y996510D01*
X1081233Y996730D01*
X1081236Y996950D01*
X1080304Y992914D02*
X1080271Y992825D01*
X1080235Y992737D01*
X1080195Y992651D01*
X1080152Y992566D01*
X1080105Y992484D01*
X1080054Y992403D01*
X1080001Y992325D01*
X1079944Y992249D01*
X1079884Y992175D01*
X1079821Y992104D01*
X1079756Y992035D01*
X1079687Y991969D01*
X1079616Y991907D01*
X1079542Y991847D01*
X1079466Y991790D01*
X1079388Y991736D01*
X1079307Y991686D01*
X1079225Y991639D01*
X1079140Y991596D01*
X1079054Y991556D01*
X1078966Y991519D01*
X1078877Y991487D01*
X1078787Y991458D01*
X1078695Y991432D01*
X1078603Y991411D01*
X1078509Y991393D01*
X1078415Y991380D01*
X1078321Y991370D01*
X1078226Y991364D01*
X1078131Y991362D01*
X1075648Y993846D02*
X1080615Y1000054D01*
X1086457Y1000054D02*
X1089561Y1002538D01*
X1089561Y991362D01*
X1086457Y991362D02*
X1092666Y991362D01*
X1104575Y991362D02*
X1104575Y1002538D01*
X1107680Y1002538D01*
X1107791Y1002536D01*
X1107901Y1002530D01*
X1108012Y1002520D01*
X1108122Y1002506D01*
X1108231Y1002489D01*
X1108340Y1002467D01*
X1108448Y1002442D01*
X1108554Y1002412D01*
X1108660Y1002379D01*
X1108765Y1002342D01*
X1108868Y1002302D01*
X1108969Y1002257D01*
X1109069Y1002210D01*
X1109168Y1002158D01*
X1109264Y1002103D01*
X1109358Y1002045D01*
X1109450Y1001984D01*
X1109540Y1001919D01*
X1109628Y1001851D01*
X1109713Y1001780D01*
X1109795Y1001706D01*
X1109875Y1001629D01*
X1109952Y1001549D01*
X1110026Y1001467D01*
X1110097Y1001382D01*
X1110165Y1001294D01*
X1110230Y1001204D01*
X1110291Y1001112D01*
X1110349Y1001018D01*
X1110404Y1000922D01*
X1110456Y1000823D01*
X1110503Y1000723D01*
X1110548Y1000622D01*
X1110588Y1000519D01*
X1110625Y1000414D01*
X1110658Y1000308D01*
X1110688Y1000202D01*
X1110713Y1000094D01*
X1110735Y999985D01*
X1110752Y999876D01*
X1110766Y999766D01*
X1110776Y999655D01*
X1110782Y999545D01*
X1110784Y999434D01*
X1110782Y999323D01*
X1110776Y999213D01*
X1110766Y999102D01*
X1110752Y998992D01*
X1110735Y998883D01*
X1110713Y998774D01*
X1110688Y998666D01*
X1110658Y998560D01*
X1110625Y998454D01*
X1110588Y998349D01*
X1110548Y998246D01*
X1110503Y998145D01*
X1110456Y998045D01*
X1110404Y997946D01*
X1110349Y997850D01*
X1110291Y997756D01*
X1110230Y997664D01*
X1110165Y997574D01*
X1110097Y997486D01*
X1110026Y997401D01*
X1109952Y997319D01*
X1109875Y997239D01*
X1109795Y997162D01*
X1109713Y997088D01*
X1109628Y997017D01*
X1109540Y996949D01*
X1109450Y996884D01*
X1109358Y996823D01*
X1109264Y996765D01*
X1109168Y996710D01*
X1109069Y996658D01*
X1108969Y996611D01*
X1108868Y996566D01*
X1108765Y996526D01*
X1108660Y996489D01*
X1108554Y996456D01*
X1108448Y996426D01*
X1108340Y996401D01*
X1108231Y996379D01*
X1108122Y996362D01*
X1108012Y996348D01*
X1107901Y996338D01*
X1107791Y996332D01*
X1107680Y996330D01*
X1107680Y996329D02*
X1104575Y996329D01*
X1115736Y998813D02*
X1115736Y991362D01*
X1115736Y998813D02*
X1119461Y998813D01*
X1119461Y997571D01*
X1123272Y996329D02*
X1123272Y993846D01*
X1123272Y996329D02*
X1123274Y996428D01*
X1123280Y996526D01*
X1123290Y996625D01*
X1123303Y996722D01*
X1123321Y996820D01*
X1123342Y996916D01*
X1123368Y997012D01*
X1123397Y997106D01*
X1123429Y997199D01*
X1123466Y997291D01*
X1123506Y997381D01*
X1123550Y997470D01*
X1123597Y997557D01*
X1123647Y997642D01*
X1123701Y997724D01*
X1123758Y997805D01*
X1123818Y997883D01*
X1123882Y997959D01*
X1123948Y998032D01*
X1124017Y998103D01*
X1124089Y998171D01*
X1124164Y998235D01*
X1124241Y998297D01*
X1124320Y998356D01*
X1124402Y998411D01*
X1124486Y998464D01*
X1124571Y998512D01*
X1124659Y998558D01*
X1124749Y998600D01*
X1124840Y998638D01*
X1124932Y998672D01*
X1125026Y998703D01*
X1125121Y998730D01*
X1125217Y998754D01*
X1125314Y998773D01*
X1125411Y998789D01*
X1125509Y998801D01*
X1125608Y998809D01*
X1125707Y998813D01*
X1125805Y998813D01*
X1125904Y998809D01*
X1126003Y998801D01*
X1126101Y998789D01*
X1126198Y998773D01*
X1126295Y998754D01*
X1126391Y998730D01*
X1126486Y998703D01*
X1126580Y998672D01*
X1126672Y998638D01*
X1126763Y998600D01*
X1126853Y998558D01*
X1126941Y998512D01*
X1127026Y998464D01*
X1127110Y998411D01*
X1127192Y998356D01*
X1127271Y998297D01*
X1127348Y998235D01*
X1127423Y998171D01*
X1127495Y998103D01*
X1127564Y998032D01*
X1127630Y997959D01*
X1127694Y997883D01*
X1127754Y997805D01*
X1127811Y997724D01*
X1127865Y997642D01*
X1127915Y997557D01*
X1127962Y997470D01*
X1128006Y997381D01*
X1128046Y997291D01*
X1128083Y997199D01*
X1128115Y997106D01*
X1128144Y997012D01*
X1128170Y996916D01*
X1128191Y996820D01*
X1128209Y996722D01*
X1128222Y996625D01*
X1128232Y996526D01*
X1128238Y996428D01*
X1128240Y996329D01*
X1128240Y993846D01*
X1128238Y993747D01*
X1128232Y993649D01*
X1128222Y993550D01*
X1128209Y993453D01*
X1128191Y993355D01*
X1128170Y993259D01*
X1128144Y993163D01*
X1128115Y993069D01*
X1128083Y992976D01*
X1128046Y992884D01*
X1128006Y992794D01*
X1127962Y992705D01*
X1127915Y992618D01*
X1127865Y992533D01*
X1127811Y992451D01*
X1127754Y992370D01*
X1127694Y992292D01*
X1127630Y992216D01*
X1127564Y992143D01*
X1127495Y992072D01*
X1127423Y992004D01*
X1127348Y991940D01*
X1127271Y991878D01*
X1127192Y991819D01*
X1127110Y991764D01*
X1127026Y991711D01*
X1126941Y991663D01*
X1126853Y991617D01*
X1126763Y991575D01*
X1126672Y991537D01*
X1126580Y991503D01*
X1126486Y991472D01*
X1126391Y991445D01*
X1126295Y991421D01*
X1126198Y991402D01*
X1126101Y991386D01*
X1126003Y991374D01*
X1125904Y991366D01*
X1125805Y991362D01*
X1125707Y991362D01*
X1125608Y991366D01*
X1125509Y991374D01*
X1125411Y991386D01*
X1125314Y991402D01*
X1125217Y991421D01*
X1125121Y991445D01*
X1125026Y991472D01*
X1124932Y991503D01*
X1124840Y991537D01*
X1124749Y991575D01*
X1124659Y991617D01*
X1124571Y991663D01*
X1124486Y991711D01*
X1124402Y991764D01*
X1124320Y991819D01*
X1124241Y991878D01*
X1124164Y991940D01*
X1124089Y992004D01*
X1124017Y992072D01*
X1123948Y992143D01*
X1123882Y992216D01*
X1123818Y992292D01*
X1123758Y992370D01*
X1123701Y992451D01*
X1123647Y992533D01*
X1123597Y992618D01*
X1123550Y992705D01*
X1123506Y992794D01*
X1123466Y992884D01*
X1123429Y992976D01*
X1123397Y993069D01*
X1123368Y993163D01*
X1123342Y993259D01*
X1123321Y993355D01*
X1123303Y993453D01*
X1123290Y993550D01*
X1123280Y993649D01*
X1123274Y993747D01*
X1123272Y993846D01*
X1132748Y989499D02*
X1132748Y998813D01*
X1132748Y989499D02*
X1132746Y989413D01*
X1132740Y989327D01*
X1132730Y989242D01*
X1132716Y989157D01*
X1132699Y989072D01*
X1132677Y988989D01*
X1132651Y988907D01*
X1132622Y988826D01*
X1132589Y988747D01*
X1132553Y988669D01*
X1132513Y988592D01*
X1132469Y988518D01*
X1132422Y988446D01*
X1132372Y988376D01*
X1132318Y988309D01*
X1132262Y988244D01*
X1132202Y988182D01*
X1132140Y988122D01*
X1132075Y988066D01*
X1132008Y988012D01*
X1131938Y987962D01*
X1131866Y987915D01*
X1131792Y987871D01*
X1131715Y987831D01*
X1131638Y987795D01*
X1131558Y987762D01*
X1131477Y987733D01*
X1131395Y987707D01*
X1131312Y987685D01*
X1131227Y987668D01*
X1131142Y987654D01*
X1131057Y987644D01*
X1130971Y987638D01*
X1130885Y987636D01*
X1130885Y987637D02*
X1130265Y987637D01*
X1132438Y1001917D02*
X1132438Y1002538D01*
X1133059Y1002538D01*
X1133059Y1001917D01*
X1132438Y1001917D01*
X1139613Y991362D02*
X1142718Y991362D01*
X1139613Y991362D02*
X1139529Y991364D01*
X1139446Y991369D01*
X1139363Y991379D01*
X1139280Y991392D01*
X1139198Y991409D01*
X1139117Y991429D01*
X1139037Y991453D01*
X1138958Y991481D01*
X1138881Y991512D01*
X1138805Y991546D01*
X1138730Y991584D01*
X1138657Y991626D01*
X1138587Y991670D01*
X1138518Y991718D01*
X1138451Y991768D01*
X1138387Y991822D01*
X1138326Y991878D01*
X1138266Y991938D01*
X1138210Y991999D01*
X1138156Y992063D01*
X1138106Y992130D01*
X1138058Y992199D01*
X1138014Y992269D01*
X1137972Y992342D01*
X1137934Y992417D01*
X1137900Y992493D01*
X1137869Y992570D01*
X1137841Y992649D01*
X1137817Y992729D01*
X1137797Y992810D01*
X1137780Y992892D01*
X1137767Y992975D01*
X1137757Y993058D01*
X1137752Y993141D01*
X1137750Y993225D01*
X1137750Y996329D01*
X1137752Y996428D01*
X1137758Y996526D01*
X1137768Y996625D01*
X1137781Y996722D01*
X1137799Y996820D01*
X1137820Y996916D01*
X1137846Y997012D01*
X1137875Y997106D01*
X1137907Y997199D01*
X1137944Y997291D01*
X1137984Y997381D01*
X1138028Y997470D01*
X1138075Y997557D01*
X1138125Y997642D01*
X1138179Y997724D01*
X1138236Y997805D01*
X1138296Y997883D01*
X1138360Y997959D01*
X1138426Y998032D01*
X1138495Y998103D01*
X1138567Y998171D01*
X1138642Y998235D01*
X1138719Y998297D01*
X1138798Y998356D01*
X1138880Y998411D01*
X1138964Y998464D01*
X1139049Y998512D01*
X1139137Y998558D01*
X1139227Y998600D01*
X1139318Y998638D01*
X1139410Y998672D01*
X1139504Y998703D01*
X1139599Y998730D01*
X1139695Y998754D01*
X1139792Y998773D01*
X1139889Y998789D01*
X1139987Y998801D01*
X1140086Y998809D01*
X1140185Y998813D01*
X1140283Y998813D01*
X1140382Y998809D01*
X1140481Y998801D01*
X1140579Y998789D01*
X1140676Y998773D01*
X1140773Y998754D01*
X1140869Y998730D01*
X1140964Y998703D01*
X1141058Y998672D01*
X1141150Y998638D01*
X1141241Y998600D01*
X1141331Y998558D01*
X1141419Y998512D01*
X1141504Y998464D01*
X1141588Y998411D01*
X1141670Y998356D01*
X1141749Y998297D01*
X1141826Y998235D01*
X1141901Y998171D01*
X1141973Y998103D01*
X1142042Y998032D01*
X1142108Y997959D01*
X1142172Y997883D01*
X1142232Y997805D01*
X1142289Y997724D01*
X1142343Y997642D01*
X1142393Y997557D01*
X1142440Y997470D01*
X1142484Y997381D01*
X1142524Y997291D01*
X1142561Y997199D01*
X1142593Y997106D01*
X1142622Y997012D01*
X1142648Y996916D01*
X1142669Y996820D01*
X1142687Y996722D01*
X1142700Y996625D01*
X1142710Y996526D01*
X1142716Y996428D01*
X1142718Y996329D01*
X1142718Y995087D01*
X1137750Y995087D01*
X1149536Y991362D02*
X1152019Y991362D01*
X1149536Y991362D02*
X1149452Y991364D01*
X1149369Y991369D01*
X1149286Y991379D01*
X1149203Y991392D01*
X1149121Y991409D01*
X1149040Y991429D01*
X1148960Y991453D01*
X1148881Y991481D01*
X1148804Y991512D01*
X1148728Y991546D01*
X1148653Y991584D01*
X1148580Y991626D01*
X1148510Y991670D01*
X1148441Y991718D01*
X1148374Y991768D01*
X1148310Y991822D01*
X1148249Y991878D01*
X1148189Y991938D01*
X1148133Y991999D01*
X1148079Y992063D01*
X1148029Y992130D01*
X1147981Y992199D01*
X1147937Y992269D01*
X1147895Y992342D01*
X1147857Y992417D01*
X1147823Y992493D01*
X1147792Y992570D01*
X1147764Y992649D01*
X1147740Y992729D01*
X1147720Y992810D01*
X1147703Y992892D01*
X1147690Y992975D01*
X1147680Y993058D01*
X1147675Y993141D01*
X1147673Y993225D01*
X1147673Y996950D01*
X1147675Y997034D01*
X1147681Y997117D01*
X1147690Y997200D01*
X1147703Y997283D01*
X1147720Y997365D01*
X1147740Y997446D01*
X1147764Y997526D01*
X1147792Y997605D01*
X1147823Y997682D01*
X1147857Y997758D01*
X1147895Y997833D01*
X1147937Y997906D01*
X1147981Y997976D01*
X1148029Y998045D01*
X1148079Y998112D01*
X1148133Y998176D01*
X1148189Y998237D01*
X1148249Y998297D01*
X1148310Y998353D01*
X1148374Y998407D01*
X1148441Y998457D01*
X1148510Y998505D01*
X1148580Y998549D01*
X1148653Y998591D01*
X1148728Y998629D01*
X1148804Y998663D01*
X1148881Y998694D01*
X1148960Y998722D01*
X1149040Y998746D01*
X1149121Y998766D01*
X1149203Y998783D01*
X1149286Y998796D01*
X1149369Y998806D01*
X1149452Y998811D01*
X1149536Y998813D01*
X1152019Y998813D01*
X1155401Y998813D02*
X1159126Y998813D01*
X1156643Y1002538D02*
X1156643Y993225D01*
X1156642Y993225D02*
X1156644Y993141D01*
X1156649Y993058D01*
X1156659Y992975D01*
X1156672Y992892D01*
X1156689Y992810D01*
X1156709Y992729D01*
X1156733Y992649D01*
X1156761Y992570D01*
X1156792Y992493D01*
X1156826Y992417D01*
X1156864Y992342D01*
X1156906Y992269D01*
X1156950Y992199D01*
X1156998Y992130D01*
X1157048Y992063D01*
X1157102Y991999D01*
X1157158Y991938D01*
X1157218Y991878D01*
X1157279Y991822D01*
X1157343Y991768D01*
X1157410Y991718D01*
X1157479Y991670D01*
X1157549Y991626D01*
X1157622Y991584D01*
X1157697Y991546D01*
X1157773Y991512D01*
X1157850Y991481D01*
X1157929Y991453D01*
X1158009Y991429D01*
X1158090Y991409D01*
X1158172Y991392D01*
X1158255Y991379D01*
X1158338Y991369D01*
X1158421Y991364D01*
X1158505Y991362D01*
X1159126Y991362D01*
X1169895Y996950D02*
X1169898Y997170D01*
X1169905Y997390D01*
X1169919Y997609D01*
X1169937Y997828D01*
X1169961Y998047D01*
X1169989Y998265D01*
X1170023Y998482D01*
X1170062Y998698D01*
X1170107Y998914D01*
X1170156Y999128D01*
X1170211Y999341D01*
X1170270Y999553D01*
X1170335Y999763D01*
X1170405Y999971D01*
X1170479Y1000178D01*
X1170559Y1000383D01*
X1170643Y1000586D01*
X1170732Y1000787D01*
X1170826Y1000986D01*
X1170827Y1000986D02*
X1170860Y1001075D01*
X1170896Y1001163D01*
X1170936Y1001249D01*
X1170979Y1001334D01*
X1171026Y1001416D01*
X1171077Y1001497D01*
X1171130Y1001575D01*
X1171187Y1001651D01*
X1171247Y1001725D01*
X1171310Y1001796D01*
X1171375Y1001865D01*
X1171444Y1001931D01*
X1171515Y1001993D01*
X1171589Y1002053D01*
X1171665Y1002110D01*
X1171743Y1002164D01*
X1171824Y1002214D01*
X1171906Y1002261D01*
X1171991Y1002304D01*
X1172077Y1002344D01*
X1172165Y1002381D01*
X1172254Y1002413D01*
X1172344Y1002442D01*
X1172436Y1002468D01*
X1172528Y1002489D01*
X1172622Y1002507D01*
X1172716Y1002520D01*
X1172810Y1002530D01*
X1172905Y1002536D01*
X1173000Y1002538D01*
X1173095Y1002536D01*
X1173190Y1002530D01*
X1173284Y1002520D01*
X1173378Y1002507D01*
X1173472Y1002489D01*
X1173564Y1002468D01*
X1173656Y1002442D01*
X1173746Y1002413D01*
X1173835Y1002381D01*
X1173923Y1002344D01*
X1174009Y1002304D01*
X1174094Y1002261D01*
X1174176Y1002214D01*
X1174257Y1002164D01*
X1174335Y1002110D01*
X1174411Y1002053D01*
X1174485Y1001993D01*
X1174556Y1001931D01*
X1174625Y1001865D01*
X1174690Y1001796D01*
X1174753Y1001725D01*
X1174813Y1001651D01*
X1174870Y1001575D01*
X1174923Y1001497D01*
X1174974Y1001416D01*
X1175021Y1001333D01*
X1175064Y1001249D01*
X1175104Y1001163D01*
X1175140Y1001075D01*
X1175173Y1000986D01*
X1175174Y1000986D02*
X1175268Y1000787D01*
X1175357Y1000586D01*
X1175441Y1000383D01*
X1175521Y1000178D01*
X1175595Y999971D01*
X1175665Y999763D01*
X1175730Y999553D01*
X1175789Y999341D01*
X1175844Y999128D01*
X1175893Y998914D01*
X1175938Y998698D01*
X1175977Y998482D01*
X1176011Y998265D01*
X1176039Y998047D01*
X1176063Y997828D01*
X1176081Y997609D01*
X1176095Y997390D01*
X1176102Y997170D01*
X1176105Y996950D01*
X1169896Y996950D02*
X1169899Y996730D01*
X1169906Y996510D01*
X1169920Y996291D01*
X1169938Y996072D01*
X1169962Y995853D01*
X1169990Y995635D01*
X1170024Y995418D01*
X1170063Y995202D01*
X1170108Y994986D01*
X1170157Y994772D01*
X1170212Y994559D01*
X1170271Y994348D01*
X1170336Y994137D01*
X1170406Y993929D01*
X1170480Y993722D01*
X1170560Y993517D01*
X1170644Y993314D01*
X1170733Y993113D01*
X1170827Y992914D01*
X1170860Y992825D01*
X1170896Y992737D01*
X1170936Y992651D01*
X1170979Y992566D01*
X1171026Y992484D01*
X1171077Y992403D01*
X1171130Y992325D01*
X1171187Y992249D01*
X1171247Y992175D01*
X1171310Y992104D01*
X1171375Y992035D01*
X1171444Y991969D01*
X1171515Y991907D01*
X1171589Y991847D01*
X1171665Y991790D01*
X1171743Y991736D01*
X1171824Y991686D01*
X1171906Y991639D01*
X1171991Y991596D01*
X1172077Y991556D01*
X1172165Y991519D01*
X1172254Y991487D01*
X1172344Y991458D01*
X1172436Y991432D01*
X1172528Y991411D01*
X1172622Y991393D01*
X1172716Y991380D01*
X1172810Y991370D01*
X1172905Y991364D01*
X1173000Y991362D01*
X1175173Y992914D02*
X1175267Y993113D01*
X1175356Y993314D01*
X1175440Y993517D01*
X1175520Y993722D01*
X1175594Y993929D01*
X1175664Y994137D01*
X1175729Y994347D01*
X1175788Y994559D01*
X1175843Y994772D01*
X1175892Y994986D01*
X1175937Y995202D01*
X1175976Y995418D01*
X1176010Y995635D01*
X1176038Y995853D01*
X1176062Y996072D01*
X1176080Y996291D01*
X1176094Y996510D01*
X1176101Y996730D01*
X1176104Y996950D01*
X1175173Y992914D02*
X1175140Y992825D01*
X1175104Y992737D01*
X1175064Y992651D01*
X1175021Y992566D01*
X1174974Y992484D01*
X1174923Y992403D01*
X1174870Y992325D01*
X1174813Y992249D01*
X1174753Y992175D01*
X1174690Y992104D01*
X1174625Y992035D01*
X1174556Y991969D01*
X1174485Y991907D01*
X1174411Y991847D01*
X1174335Y991790D01*
X1174257Y991736D01*
X1174176Y991686D01*
X1174094Y991639D01*
X1174009Y991596D01*
X1173923Y991556D01*
X1173835Y991519D01*
X1173746Y991487D01*
X1173656Y991458D01*
X1173564Y991432D01*
X1173472Y991411D01*
X1173378Y991393D01*
X1173284Y991380D01*
X1173190Y991370D01*
X1173095Y991364D01*
X1173000Y991362D01*
X1170516Y993846D02*
X1175483Y1000054D01*
X1184740Y1002538D02*
X1184844Y1002536D01*
X1184949Y1002530D01*
X1185053Y1002520D01*
X1185156Y1002507D01*
X1185259Y1002489D01*
X1185362Y1002468D01*
X1185463Y1002443D01*
X1185564Y1002414D01*
X1185663Y1002381D01*
X1185761Y1002345D01*
X1185857Y1002305D01*
X1185952Y1002261D01*
X1186046Y1002214D01*
X1186137Y1002164D01*
X1186226Y1002110D01*
X1186314Y1002053D01*
X1186399Y1001992D01*
X1186482Y1001928D01*
X1186562Y1001862D01*
X1186640Y1001792D01*
X1186716Y1001720D01*
X1186788Y1001644D01*
X1186858Y1001566D01*
X1186924Y1001486D01*
X1186988Y1001403D01*
X1187049Y1001318D01*
X1187106Y1001230D01*
X1187160Y1001141D01*
X1187210Y1001050D01*
X1187257Y1000956D01*
X1187301Y1000861D01*
X1187341Y1000765D01*
X1187377Y1000667D01*
X1187410Y1000568D01*
X1187439Y1000467D01*
X1187464Y1000366D01*
X1187485Y1000263D01*
X1187503Y1000160D01*
X1187516Y1000057D01*
X1187526Y999953D01*
X1187532Y999848D01*
X1187534Y999744D01*
X1184740Y1002539D02*
X1184621Y1002537D01*
X1184503Y1002531D01*
X1184384Y1002521D01*
X1184266Y1002508D01*
X1184149Y1002490D01*
X1184032Y1002468D01*
X1183916Y1002443D01*
X1183801Y1002414D01*
X1183686Y1002381D01*
X1183573Y1002344D01*
X1183462Y1002304D01*
X1183351Y1002260D01*
X1183243Y1002212D01*
X1183136Y1002161D01*
X1183030Y1002106D01*
X1182927Y1002047D01*
X1182825Y1001986D01*
X1182726Y1001921D01*
X1182628Y1001852D01*
X1182534Y1001781D01*
X1182441Y1001706D01*
X1182351Y1001629D01*
X1182264Y1001548D01*
X1182179Y1001465D01*
X1182097Y1001379D01*
X1182018Y1001290D01*
X1181942Y1001199D01*
X1181869Y1001105D01*
X1181800Y1001009D01*
X1181733Y1000910D01*
X1181670Y1000810D01*
X1181610Y1000707D01*
X1181553Y1000603D01*
X1181501Y1000496D01*
X1181451Y1000388D01*
X1181405Y1000279D01*
X1181363Y1000167D01*
X1181325Y1000055D01*
X1186603Y997571D02*
X1186678Y997645D01*
X1186750Y997722D01*
X1186820Y997801D01*
X1186887Y997883D01*
X1186951Y997967D01*
X1187012Y998053D01*
X1187070Y998141D01*
X1187125Y998232D01*
X1187177Y998324D01*
X1187225Y998418D01*
X1187270Y998513D01*
X1187312Y998611D01*
X1187350Y998709D01*
X1187385Y998809D01*
X1187416Y998910D01*
X1187443Y999012D01*
X1187467Y999115D01*
X1187488Y999218D01*
X1187504Y999323D01*
X1187517Y999428D01*
X1187527Y999533D01*
X1187532Y999638D01*
X1187534Y999744D01*
X1186603Y997571D02*
X1181325Y991362D01*
X1187534Y991362D01*
X1198993Y995708D02*
X1206443Y995708D01*
X1218494Y991362D02*
X1218494Y1002538D01*
X1221598Y1002538D01*
X1221709Y1002536D01*
X1221819Y1002530D01*
X1221930Y1002520D01*
X1222040Y1002506D01*
X1222149Y1002489D01*
X1222258Y1002467D01*
X1222366Y1002442D01*
X1222472Y1002412D01*
X1222578Y1002379D01*
X1222683Y1002342D01*
X1222786Y1002302D01*
X1222887Y1002257D01*
X1222987Y1002210D01*
X1223086Y1002158D01*
X1223182Y1002103D01*
X1223276Y1002045D01*
X1223368Y1001984D01*
X1223458Y1001919D01*
X1223546Y1001851D01*
X1223631Y1001780D01*
X1223713Y1001706D01*
X1223793Y1001629D01*
X1223870Y1001549D01*
X1223944Y1001467D01*
X1224015Y1001382D01*
X1224083Y1001294D01*
X1224148Y1001204D01*
X1224209Y1001112D01*
X1224267Y1001018D01*
X1224322Y1000922D01*
X1224374Y1000823D01*
X1224421Y1000723D01*
X1224466Y1000622D01*
X1224506Y1000519D01*
X1224543Y1000414D01*
X1224576Y1000308D01*
X1224606Y1000202D01*
X1224631Y1000094D01*
X1224653Y999985D01*
X1224670Y999876D01*
X1224684Y999766D01*
X1224694Y999655D01*
X1224700Y999545D01*
X1224702Y999434D01*
X1224700Y999323D01*
X1224694Y999213D01*
X1224684Y999102D01*
X1224670Y998992D01*
X1224653Y998883D01*
X1224631Y998774D01*
X1224606Y998666D01*
X1224576Y998560D01*
X1224543Y998454D01*
X1224506Y998349D01*
X1224466Y998246D01*
X1224421Y998145D01*
X1224374Y998045D01*
X1224322Y997946D01*
X1224267Y997850D01*
X1224209Y997756D01*
X1224148Y997664D01*
X1224083Y997574D01*
X1224015Y997486D01*
X1223944Y997401D01*
X1223870Y997319D01*
X1223793Y997239D01*
X1223713Y997162D01*
X1223631Y997088D01*
X1223546Y997017D01*
X1223458Y996949D01*
X1223368Y996884D01*
X1223276Y996823D01*
X1223182Y996765D01*
X1223086Y996710D01*
X1222987Y996658D01*
X1222887Y996611D01*
X1222786Y996566D01*
X1222683Y996526D01*
X1222578Y996489D01*
X1222472Y996456D01*
X1222366Y996426D01*
X1222258Y996401D01*
X1222149Y996379D01*
X1222040Y996362D01*
X1221930Y996348D01*
X1221819Y996338D01*
X1221709Y996332D01*
X1221598Y996330D01*
X1221598Y996329D02*
X1218494Y996329D01*
X1229190Y996329D02*
X1229190Y993846D01*
X1229190Y996329D02*
X1229192Y996428D01*
X1229198Y996526D01*
X1229208Y996625D01*
X1229221Y996722D01*
X1229239Y996820D01*
X1229260Y996916D01*
X1229286Y997012D01*
X1229315Y997106D01*
X1229347Y997199D01*
X1229384Y997291D01*
X1229424Y997381D01*
X1229468Y997470D01*
X1229515Y997557D01*
X1229565Y997642D01*
X1229619Y997724D01*
X1229676Y997805D01*
X1229736Y997883D01*
X1229800Y997959D01*
X1229866Y998032D01*
X1229935Y998103D01*
X1230007Y998171D01*
X1230082Y998235D01*
X1230159Y998297D01*
X1230238Y998356D01*
X1230320Y998411D01*
X1230404Y998464D01*
X1230489Y998512D01*
X1230577Y998558D01*
X1230667Y998600D01*
X1230758Y998638D01*
X1230850Y998672D01*
X1230944Y998703D01*
X1231039Y998730D01*
X1231135Y998754D01*
X1231232Y998773D01*
X1231329Y998789D01*
X1231427Y998801D01*
X1231526Y998809D01*
X1231625Y998813D01*
X1231723Y998813D01*
X1231822Y998809D01*
X1231921Y998801D01*
X1232019Y998789D01*
X1232116Y998773D01*
X1232213Y998754D01*
X1232309Y998730D01*
X1232404Y998703D01*
X1232498Y998672D01*
X1232590Y998638D01*
X1232681Y998600D01*
X1232771Y998558D01*
X1232859Y998512D01*
X1232944Y998464D01*
X1233028Y998411D01*
X1233110Y998356D01*
X1233189Y998297D01*
X1233266Y998235D01*
X1233341Y998171D01*
X1233413Y998103D01*
X1233482Y998032D01*
X1233548Y997959D01*
X1233612Y997883D01*
X1233672Y997805D01*
X1233729Y997724D01*
X1233783Y997642D01*
X1233833Y997557D01*
X1233880Y997470D01*
X1233924Y997381D01*
X1233964Y997291D01*
X1234001Y997199D01*
X1234033Y997106D01*
X1234062Y997012D01*
X1234088Y996916D01*
X1234109Y996820D01*
X1234127Y996722D01*
X1234140Y996625D01*
X1234150Y996526D01*
X1234156Y996428D01*
X1234158Y996329D01*
X1234157Y996329D02*
X1234157Y993846D01*
X1234158Y993846D02*
X1234156Y993747D01*
X1234150Y993649D01*
X1234140Y993550D01*
X1234127Y993453D01*
X1234109Y993355D01*
X1234088Y993259D01*
X1234062Y993163D01*
X1234033Y993069D01*
X1234001Y992976D01*
X1233964Y992884D01*
X1233924Y992794D01*
X1233880Y992705D01*
X1233833Y992618D01*
X1233783Y992533D01*
X1233729Y992451D01*
X1233672Y992370D01*
X1233612Y992292D01*
X1233548Y992216D01*
X1233482Y992143D01*
X1233413Y992072D01*
X1233341Y992004D01*
X1233266Y991940D01*
X1233189Y991878D01*
X1233110Y991819D01*
X1233028Y991764D01*
X1232944Y991711D01*
X1232859Y991663D01*
X1232771Y991617D01*
X1232681Y991575D01*
X1232590Y991537D01*
X1232498Y991503D01*
X1232404Y991472D01*
X1232309Y991445D01*
X1232213Y991421D01*
X1232116Y991402D01*
X1232019Y991386D01*
X1231921Y991374D01*
X1231822Y991366D01*
X1231723Y991362D01*
X1231625Y991362D01*
X1231526Y991366D01*
X1231427Y991374D01*
X1231329Y991386D01*
X1231232Y991402D01*
X1231135Y991421D01*
X1231039Y991445D01*
X1230944Y991472D01*
X1230850Y991503D01*
X1230758Y991537D01*
X1230667Y991575D01*
X1230577Y991617D01*
X1230489Y991663D01*
X1230404Y991711D01*
X1230320Y991764D01*
X1230238Y991819D01*
X1230159Y991878D01*
X1230082Y991940D01*
X1230007Y992004D01*
X1229935Y992072D01*
X1229866Y992143D01*
X1229800Y992216D01*
X1229736Y992292D01*
X1229676Y992370D01*
X1229619Y992451D01*
X1229565Y992533D01*
X1229515Y992618D01*
X1229468Y992705D01*
X1229424Y992794D01*
X1229384Y992884D01*
X1229347Y992976D01*
X1229315Y993069D01*
X1229286Y993163D01*
X1229260Y993259D01*
X1229239Y993355D01*
X1229221Y993453D01*
X1229208Y993550D01*
X1229198Y993649D01*
X1229192Y993747D01*
X1229190Y993846D01*
X1239647Y991362D02*
X1239647Y1002538D01*
X1244614Y998813D02*
X1239647Y995087D01*
X1241820Y996640D02*
X1244614Y991362D01*
X1250865Y991362D02*
X1253969Y991362D01*
X1250865Y991362D02*
X1250781Y991364D01*
X1250698Y991369D01*
X1250615Y991379D01*
X1250532Y991392D01*
X1250450Y991409D01*
X1250369Y991429D01*
X1250289Y991453D01*
X1250210Y991481D01*
X1250133Y991512D01*
X1250057Y991546D01*
X1249982Y991584D01*
X1249909Y991626D01*
X1249839Y991670D01*
X1249770Y991718D01*
X1249703Y991768D01*
X1249639Y991822D01*
X1249578Y991878D01*
X1249518Y991938D01*
X1249462Y991999D01*
X1249408Y992063D01*
X1249358Y992130D01*
X1249310Y992199D01*
X1249266Y992269D01*
X1249224Y992342D01*
X1249186Y992417D01*
X1249152Y992493D01*
X1249121Y992570D01*
X1249093Y992649D01*
X1249069Y992729D01*
X1249049Y992810D01*
X1249032Y992892D01*
X1249019Y992975D01*
X1249009Y993058D01*
X1249004Y993141D01*
X1249002Y993225D01*
X1249002Y996329D01*
X1249004Y996428D01*
X1249010Y996526D01*
X1249020Y996625D01*
X1249033Y996722D01*
X1249051Y996820D01*
X1249072Y996916D01*
X1249098Y997012D01*
X1249127Y997106D01*
X1249159Y997199D01*
X1249196Y997291D01*
X1249236Y997381D01*
X1249280Y997470D01*
X1249327Y997557D01*
X1249377Y997642D01*
X1249431Y997724D01*
X1249488Y997805D01*
X1249548Y997883D01*
X1249612Y997959D01*
X1249678Y998032D01*
X1249747Y998103D01*
X1249819Y998171D01*
X1249894Y998235D01*
X1249971Y998297D01*
X1250050Y998356D01*
X1250132Y998411D01*
X1250216Y998464D01*
X1250301Y998512D01*
X1250389Y998558D01*
X1250479Y998600D01*
X1250570Y998638D01*
X1250662Y998672D01*
X1250756Y998703D01*
X1250851Y998730D01*
X1250947Y998754D01*
X1251044Y998773D01*
X1251141Y998789D01*
X1251239Y998801D01*
X1251338Y998809D01*
X1251437Y998813D01*
X1251535Y998813D01*
X1251634Y998809D01*
X1251733Y998801D01*
X1251831Y998789D01*
X1251928Y998773D01*
X1252025Y998754D01*
X1252121Y998730D01*
X1252216Y998703D01*
X1252310Y998672D01*
X1252402Y998638D01*
X1252493Y998600D01*
X1252583Y998558D01*
X1252671Y998512D01*
X1252756Y998464D01*
X1252840Y998411D01*
X1252922Y998356D01*
X1253001Y998297D01*
X1253078Y998235D01*
X1253153Y998171D01*
X1253225Y998103D01*
X1253294Y998032D01*
X1253360Y997959D01*
X1253424Y997883D01*
X1253484Y997805D01*
X1253541Y997724D01*
X1253595Y997642D01*
X1253645Y997557D01*
X1253692Y997470D01*
X1253736Y997381D01*
X1253776Y997291D01*
X1253813Y997199D01*
X1253845Y997106D01*
X1253874Y997012D01*
X1253900Y996916D01*
X1253921Y996820D01*
X1253939Y996722D01*
X1253952Y996625D01*
X1253962Y996526D01*
X1253968Y996428D01*
X1253970Y996329D01*
X1253969Y996329D02*
X1253969Y995087D01*
X1249002Y995087D01*
X1258527Y987637D02*
X1259769Y987637D01*
X1263494Y998813D01*
X1258527Y998813D02*
X1261011Y991362D01*
X1276731Y991362D02*
X1279215Y991362D01*
X1276731Y991362D02*
X1276633Y991364D01*
X1276536Y991370D01*
X1276439Y991379D01*
X1276342Y991393D01*
X1276246Y991410D01*
X1276151Y991431D01*
X1276057Y991455D01*
X1275963Y991484D01*
X1275871Y991516D01*
X1275780Y991551D01*
X1275691Y991590D01*
X1275603Y991633D01*
X1275517Y991679D01*
X1275433Y991728D01*
X1275351Y991781D01*
X1275271Y991836D01*
X1275193Y991895D01*
X1275118Y991957D01*
X1275045Y992022D01*
X1274975Y992090D01*
X1274907Y992160D01*
X1274842Y992233D01*
X1274780Y992308D01*
X1274721Y992386D01*
X1274666Y992466D01*
X1274613Y992548D01*
X1274564Y992632D01*
X1274518Y992718D01*
X1274475Y992806D01*
X1274436Y992895D01*
X1274401Y992986D01*
X1274369Y993078D01*
X1274340Y993172D01*
X1274316Y993266D01*
X1274295Y993361D01*
X1274278Y993457D01*
X1274264Y993554D01*
X1274255Y993651D01*
X1274249Y993748D01*
X1274247Y993846D01*
X1274248Y993846D02*
X1274248Y1000054D01*
X1274247Y1000054D02*
X1274249Y1000152D01*
X1274255Y1000249D01*
X1274264Y1000346D01*
X1274278Y1000443D01*
X1274295Y1000539D01*
X1274316Y1000634D01*
X1274340Y1000728D01*
X1274369Y1000822D01*
X1274401Y1000914D01*
X1274436Y1001005D01*
X1274475Y1001094D01*
X1274518Y1001182D01*
X1274564Y1001268D01*
X1274613Y1001352D01*
X1274666Y1001434D01*
X1274721Y1001514D01*
X1274780Y1001592D01*
X1274842Y1001667D01*
X1274907Y1001740D01*
X1274975Y1001810D01*
X1275045Y1001878D01*
X1275118Y1001943D01*
X1275193Y1002005D01*
X1275271Y1002064D01*
X1275351Y1002119D01*
X1275433Y1002172D01*
X1275517Y1002221D01*
X1275603Y1002267D01*
X1275691Y1002310D01*
X1275780Y1002349D01*
X1275871Y1002384D01*
X1275963Y1002416D01*
X1276057Y1002445D01*
X1276151Y1002469D01*
X1276246Y1002490D01*
X1276342Y1002507D01*
X1276439Y1002521D01*
X1276536Y1002530D01*
X1276633Y1002536D01*
X1276731Y1002538D01*
X1279215Y1002538D01*
X1283765Y1002538D02*
X1283765Y993225D01*
X1283764Y993225D02*
X1283766Y993141D01*
X1283771Y993058D01*
X1283781Y992975D01*
X1283794Y992892D01*
X1283811Y992810D01*
X1283831Y992729D01*
X1283855Y992649D01*
X1283883Y992570D01*
X1283914Y992493D01*
X1283948Y992417D01*
X1283986Y992342D01*
X1284028Y992269D01*
X1284072Y992199D01*
X1284120Y992130D01*
X1284170Y992063D01*
X1284224Y991999D01*
X1284280Y991938D01*
X1284340Y991878D01*
X1284401Y991822D01*
X1284465Y991768D01*
X1284532Y991718D01*
X1284601Y991670D01*
X1284671Y991626D01*
X1284744Y991584D01*
X1284819Y991546D01*
X1284895Y991512D01*
X1284972Y991481D01*
X1285051Y991453D01*
X1285131Y991429D01*
X1285212Y991409D01*
X1285294Y991392D01*
X1285377Y991379D01*
X1285460Y991369D01*
X1285543Y991364D01*
X1285627Y991362D01*
X1289586Y991362D02*
X1289586Y998813D01*
X1289275Y1001917D02*
X1289275Y1002538D01*
X1289896Y1002538D01*
X1289896Y1001917D01*
X1289275Y1001917D01*
X1296220Y991362D02*
X1298704Y991362D01*
X1296220Y991362D02*
X1296136Y991364D01*
X1296053Y991369D01*
X1295970Y991379D01*
X1295887Y991392D01*
X1295805Y991409D01*
X1295724Y991429D01*
X1295644Y991453D01*
X1295565Y991481D01*
X1295488Y991512D01*
X1295412Y991546D01*
X1295337Y991584D01*
X1295264Y991626D01*
X1295194Y991670D01*
X1295125Y991718D01*
X1295058Y991768D01*
X1294994Y991822D01*
X1294933Y991878D01*
X1294873Y991938D01*
X1294817Y991999D01*
X1294763Y992063D01*
X1294713Y992130D01*
X1294665Y992199D01*
X1294621Y992269D01*
X1294579Y992342D01*
X1294541Y992417D01*
X1294507Y992493D01*
X1294476Y992570D01*
X1294448Y992649D01*
X1294424Y992729D01*
X1294404Y992810D01*
X1294387Y992892D01*
X1294374Y992975D01*
X1294364Y993058D01*
X1294359Y993141D01*
X1294357Y993225D01*
X1294358Y993225D02*
X1294358Y996950D01*
X1294357Y996950D02*
X1294359Y997034D01*
X1294365Y997117D01*
X1294374Y997200D01*
X1294387Y997283D01*
X1294404Y997365D01*
X1294424Y997446D01*
X1294448Y997526D01*
X1294476Y997605D01*
X1294507Y997682D01*
X1294541Y997758D01*
X1294579Y997833D01*
X1294621Y997906D01*
X1294665Y997976D01*
X1294713Y998045D01*
X1294763Y998112D01*
X1294817Y998176D01*
X1294873Y998237D01*
X1294933Y998297D01*
X1294994Y998353D01*
X1295058Y998407D01*
X1295125Y998457D01*
X1295194Y998505D01*
X1295264Y998549D01*
X1295337Y998591D01*
X1295412Y998629D01*
X1295488Y998663D01*
X1295565Y998694D01*
X1295644Y998722D01*
X1295724Y998746D01*
X1295805Y998766D01*
X1295887Y998783D01*
X1295970Y998796D01*
X1296053Y998806D01*
X1296136Y998811D01*
X1296220Y998813D01*
X1298704Y998813D01*
X1303654Y1002538D02*
X1303654Y991362D01*
X1303654Y995087D02*
X1308621Y998813D01*
X1305827Y996640D02*
X1308621Y991362D01*
X1314873Y991362D02*
X1317977Y991362D01*
X1314873Y991362D02*
X1314789Y991364D01*
X1314706Y991369D01*
X1314623Y991379D01*
X1314540Y991392D01*
X1314458Y991409D01*
X1314377Y991429D01*
X1314297Y991453D01*
X1314218Y991481D01*
X1314141Y991512D01*
X1314065Y991546D01*
X1313990Y991584D01*
X1313917Y991626D01*
X1313847Y991670D01*
X1313778Y991718D01*
X1313711Y991768D01*
X1313647Y991822D01*
X1313586Y991878D01*
X1313526Y991938D01*
X1313470Y991999D01*
X1313416Y992063D01*
X1313366Y992130D01*
X1313318Y992199D01*
X1313274Y992269D01*
X1313232Y992342D01*
X1313194Y992417D01*
X1313160Y992493D01*
X1313129Y992570D01*
X1313101Y992649D01*
X1313077Y992729D01*
X1313057Y992810D01*
X1313040Y992892D01*
X1313027Y992975D01*
X1313017Y993058D01*
X1313012Y993141D01*
X1313010Y993225D01*
X1313010Y996329D01*
X1313009Y996329D02*
X1313011Y996428D01*
X1313017Y996526D01*
X1313027Y996625D01*
X1313040Y996722D01*
X1313058Y996820D01*
X1313079Y996916D01*
X1313105Y997012D01*
X1313134Y997106D01*
X1313166Y997199D01*
X1313203Y997291D01*
X1313243Y997381D01*
X1313287Y997470D01*
X1313334Y997557D01*
X1313384Y997642D01*
X1313438Y997724D01*
X1313495Y997805D01*
X1313555Y997883D01*
X1313619Y997959D01*
X1313685Y998032D01*
X1313754Y998103D01*
X1313826Y998171D01*
X1313901Y998235D01*
X1313978Y998297D01*
X1314057Y998356D01*
X1314139Y998411D01*
X1314223Y998464D01*
X1314308Y998512D01*
X1314396Y998558D01*
X1314486Y998600D01*
X1314577Y998638D01*
X1314669Y998672D01*
X1314763Y998703D01*
X1314858Y998730D01*
X1314954Y998754D01*
X1315051Y998773D01*
X1315148Y998789D01*
X1315246Y998801D01*
X1315345Y998809D01*
X1315444Y998813D01*
X1315542Y998813D01*
X1315641Y998809D01*
X1315740Y998801D01*
X1315838Y998789D01*
X1315935Y998773D01*
X1316032Y998754D01*
X1316128Y998730D01*
X1316223Y998703D01*
X1316317Y998672D01*
X1316409Y998638D01*
X1316500Y998600D01*
X1316590Y998558D01*
X1316678Y998512D01*
X1316763Y998464D01*
X1316847Y998411D01*
X1316929Y998356D01*
X1317008Y998297D01*
X1317085Y998235D01*
X1317160Y998171D01*
X1317232Y998103D01*
X1317301Y998032D01*
X1317367Y997959D01*
X1317431Y997883D01*
X1317491Y997805D01*
X1317548Y997724D01*
X1317602Y997642D01*
X1317652Y997557D01*
X1317699Y997470D01*
X1317743Y997381D01*
X1317783Y997291D01*
X1317820Y997199D01*
X1317852Y997106D01*
X1317881Y997012D01*
X1317907Y996916D01*
X1317928Y996820D01*
X1317946Y996722D01*
X1317959Y996625D01*
X1317969Y996526D01*
X1317975Y996428D01*
X1317977Y996329D01*
X1317977Y995087D01*
X1313010Y995087D01*
X1323380Y991362D02*
X1323380Y998813D01*
X1327105Y998813D01*
X1327105Y997571D01*
X1016762Y977138D02*
X1016762Y965962D01*
X1016762Y977138D02*
X1019866Y977138D01*
X1019977Y977136D01*
X1020087Y977130D01*
X1020198Y977120D01*
X1020308Y977106D01*
X1020417Y977089D01*
X1020526Y977067D01*
X1020634Y977042D01*
X1020740Y977012D01*
X1020846Y976979D01*
X1020951Y976942D01*
X1021054Y976902D01*
X1021155Y976857D01*
X1021255Y976810D01*
X1021354Y976758D01*
X1021450Y976703D01*
X1021544Y976645D01*
X1021636Y976584D01*
X1021726Y976519D01*
X1021814Y976451D01*
X1021899Y976380D01*
X1021981Y976306D01*
X1022061Y976229D01*
X1022138Y976149D01*
X1022212Y976067D01*
X1022283Y975982D01*
X1022351Y975894D01*
X1022416Y975804D01*
X1022477Y975712D01*
X1022535Y975618D01*
X1022590Y975522D01*
X1022642Y975423D01*
X1022689Y975323D01*
X1022734Y975222D01*
X1022774Y975119D01*
X1022811Y975014D01*
X1022844Y974908D01*
X1022874Y974802D01*
X1022899Y974694D01*
X1022921Y974585D01*
X1022938Y974476D01*
X1022952Y974366D01*
X1022962Y974255D01*
X1022968Y974145D01*
X1022970Y974034D01*
X1022968Y973923D01*
X1022962Y973813D01*
X1022952Y973702D01*
X1022938Y973592D01*
X1022921Y973483D01*
X1022899Y973374D01*
X1022874Y973266D01*
X1022844Y973160D01*
X1022811Y973054D01*
X1022774Y972949D01*
X1022734Y972846D01*
X1022689Y972745D01*
X1022642Y972645D01*
X1022590Y972546D01*
X1022535Y972450D01*
X1022477Y972356D01*
X1022416Y972264D01*
X1022351Y972174D01*
X1022283Y972086D01*
X1022212Y972001D01*
X1022138Y971919D01*
X1022061Y971839D01*
X1021981Y971762D01*
X1021899Y971688D01*
X1021814Y971617D01*
X1021726Y971549D01*
X1021636Y971484D01*
X1021544Y971423D01*
X1021450Y971365D01*
X1021354Y971310D01*
X1021255Y971258D01*
X1021155Y971211D01*
X1021054Y971166D01*
X1020951Y971126D01*
X1020846Y971089D01*
X1020740Y971056D01*
X1020634Y971026D01*
X1020526Y971001D01*
X1020417Y970979D01*
X1020308Y970962D01*
X1020198Y970948D01*
X1020087Y970938D01*
X1019977Y970932D01*
X1019866Y970930D01*
X1019866Y970929D02*
X1016762Y970929D01*
X1020487Y970929D02*
X1022971Y965962D01*
X1029822Y965962D02*
X1032926Y965962D01*
X1029822Y965962D02*
X1029738Y965964D01*
X1029655Y965969D01*
X1029572Y965979D01*
X1029489Y965992D01*
X1029407Y966009D01*
X1029326Y966029D01*
X1029246Y966053D01*
X1029167Y966081D01*
X1029090Y966112D01*
X1029014Y966146D01*
X1028939Y966184D01*
X1028866Y966226D01*
X1028796Y966270D01*
X1028727Y966318D01*
X1028660Y966368D01*
X1028596Y966422D01*
X1028535Y966478D01*
X1028475Y966538D01*
X1028419Y966599D01*
X1028365Y966663D01*
X1028315Y966730D01*
X1028267Y966799D01*
X1028223Y966869D01*
X1028181Y966942D01*
X1028143Y967017D01*
X1028109Y967093D01*
X1028078Y967170D01*
X1028050Y967249D01*
X1028026Y967329D01*
X1028006Y967410D01*
X1027989Y967492D01*
X1027976Y967575D01*
X1027966Y967658D01*
X1027961Y967741D01*
X1027959Y967825D01*
X1027959Y970929D01*
X1027958Y970929D02*
X1027960Y971028D01*
X1027966Y971126D01*
X1027976Y971225D01*
X1027989Y971322D01*
X1028007Y971420D01*
X1028028Y971516D01*
X1028054Y971612D01*
X1028083Y971706D01*
X1028115Y971799D01*
X1028152Y971891D01*
X1028192Y971981D01*
X1028236Y972070D01*
X1028283Y972157D01*
X1028333Y972242D01*
X1028387Y972324D01*
X1028444Y972405D01*
X1028504Y972483D01*
X1028568Y972559D01*
X1028634Y972632D01*
X1028703Y972703D01*
X1028775Y972771D01*
X1028850Y972835D01*
X1028927Y972897D01*
X1029006Y972956D01*
X1029088Y973011D01*
X1029172Y973064D01*
X1029257Y973112D01*
X1029345Y973158D01*
X1029435Y973200D01*
X1029526Y973238D01*
X1029618Y973272D01*
X1029712Y973303D01*
X1029807Y973330D01*
X1029903Y973354D01*
X1030000Y973373D01*
X1030097Y973389D01*
X1030195Y973401D01*
X1030294Y973409D01*
X1030393Y973413D01*
X1030491Y973413D01*
X1030590Y973409D01*
X1030689Y973401D01*
X1030787Y973389D01*
X1030884Y973373D01*
X1030981Y973354D01*
X1031077Y973330D01*
X1031172Y973303D01*
X1031266Y973272D01*
X1031358Y973238D01*
X1031449Y973200D01*
X1031539Y973158D01*
X1031627Y973112D01*
X1031712Y973064D01*
X1031796Y973011D01*
X1031878Y972956D01*
X1031957Y972897D01*
X1032034Y972835D01*
X1032109Y972771D01*
X1032181Y972703D01*
X1032250Y972632D01*
X1032316Y972559D01*
X1032380Y972483D01*
X1032440Y972405D01*
X1032497Y972324D01*
X1032551Y972242D01*
X1032601Y972157D01*
X1032648Y972070D01*
X1032692Y971981D01*
X1032732Y971891D01*
X1032769Y971799D01*
X1032801Y971706D01*
X1032830Y971612D01*
X1032856Y971516D01*
X1032877Y971420D01*
X1032895Y971322D01*
X1032908Y971225D01*
X1032918Y971126D01*
X1032924Y971028D01*
X1032926Y970929D01*
X1032926Y969687D01*
X1027959Y969687D01*
X1037484Y973413D02*
X1039967Y965962D01*
X1042451Y973413D01*
X1053246Y974654D02*
X1056350Y977138D01*
X1056350Y965962D01*
X1053246Y965962D02*
X1059455Y965962D01*
X1064041Y965962D02*
X1064041Y966583D01*
X1064662Y966583D01*
X1064662Y965962D01*
X1064041Y965962D01*
X1069248Y971550D02*
X1069251Y971770D01*
X1069258Y971990D01*
X1069272Y972209D01*
X1069290Y972428D01*
X1069314Y972647D01*
X1069342Y972865D01*
X1069376Y973082D01*
X1069415Y973298D01*
X1069460Y973514D01*
X1069509Y973728D01*
X1069564Y973941D01*
X1069623Y974153D01*
X1069688Y974363D01*
X1069758Y974571D01*
X1069832Y974778D01*
X1069912Y974983D01*
X1069996Y975186D01*
X1070085Y975387D01*
X1070179Y975586D01*
X1070212Y975675D01*
X1070248Y975763D01*
X1070288Y975849D01*
X1070331Y975934D01*
X1070378Y976016D01*
X1070429Y976097D01*
X1070482Y976175D01*
X1070539Y976251D01*
X1070599Y976325D01*
X1070662Y976396D01*
X1070727Y976465D01*
X1070796Y976531D01*
X1070867Y976593D01*
X1070941Y976653D01*
X1071017Y976710D01*
X1071095Y976764D01*
X1071176Y976814D01*
X1071258Y976861D01*
X1071343Y976904D01*
X1071429Y976944D01*
X1071517Y976981D01*
X1071606Y977013D01*
X1071696Y977042D01*
X1071788Y977068D01*
X1071880Y977089D01*
X1071974Y977107D01*
X1072068Y977120D01*
X1072162Y977130D01*
X1072257Y977136D01*
X1072352Y977138D01*
X1072447Y977136D01*
X1072542Y977130D01*
X1072636Y977120D01*
X1072730Y977107D01*
X1072824Y977089D01*
X1072916Y977068D01*
X1073008Y977042D01*
X1073098Y977013D01*
X1073187Y976981D01*
X1073275Y976944D01*
X1073361Y976904D01*
X1073446Y976861D01*
X1073528Y976814D01*
X1073609Y976764D01*
X1073687Y976710D01*
X1073763Y976653D01*
X1073837Y976593D01*
X1073908Y976531D01*
X1073977Y976465D01*
X1074042Y976396D01*
X1074105Y976325D01*
X1074165Y976251D01*
X1074222Y976175D01*
X1074275Y976097D01*
X1074326Y976016D01*
X1074373Y975933D01*
X1074416Y975849D01*
X1074456Y975763D01*
X1074492Y975675D01*
X1074525Y975586D01*
X1074526Y975586D02*
X1074620Y975387D01*
X1074709Y975186D01*
X1074793Y974983D01*
X1074873Y974778D01*
X1074947Y974571D01*
X1075017Y974363D01*
X1075082Y974153D01*
X1075141Y973941D01*
X1075196Y973728D01*
X1075245Y973514D01*
X1075290Y973298D01*
X1075329Y973082D01*
X1075363Y972865D01*
X1075391Y972647D01*
X1075415Y972428D01*
X1075433Y972209D01*
X1075447Y971990D01*
X1075454Y971770D01*
X1075457Y971550D01*
X1069248Y971550D02*
X1069251Y971330D01*
X1069258Y971110D01*
X1069272Y970891D01*
X1069290Y970672D01*
X1069314Y970453D01*
X1069342Y970235D01*
X1069376Y970018D01*
X1069415Y969802D01*
X1069460Y969586D01*
X1069509Y969372D01*
X1069564Y969159D01*
X1069623Y968948D01*
X1069688Y968737D01*
X1069758Y968529D01*
X1069832Y968322D01*
X1069912Y968117D01*
X1069996Y967914D01*
X1070085Y967713D01*
X1070179Y967514D01*
X1070212Y967425D01*
X1070248Y967337D01*
X1070288Y967251D01*
X1070331Y967166D01*
X1070378Y967084D01*
X1070429Y967003D01*
X1070482Y966925D01*
X1070539Y966849D01*
X1070599Y966775D01*
X1070662Y966704D01*
X1070727Y966635D01*
X1070796Y966569D01*
X1070867Y966507D01*
X1070941Y966447D01*
X1071017Y966390D01*
X1071095Y966336D01*
X1071176Y966286D01*
X1071258Y966239D01*
X1071343Y966196D01*
X1071429Y966156D01*
X1071517Y966119D01*
X1071606Y966087D01*
X1071696Y966058D01*
X1071788Y966032D01*
X1071880Y966011D01*
X1071974Y965993D01*
X1072068Y965980D01*
X1072162Y965970D01*
X1072257Y965964D01*
X1072352Y965962D01*
X1074526Y967514D02*
X1074620Y967713D01*
X1074709Y967914D01*
X1074793Y968117D01*
X1074873Y968322D01*
X1074947Y968529D01*
X1075017Y968737D01*
X1075082Y968947D01*
X1075141Y969159D01*
X1075196Y969372D01*
X1075245Y969586D01*
X1075290Y969802D01*
X1075329Y970018D01*
X1075363Y970235D01*
X1075391Y970453D01*
X1075415Y970672D01*
X1075433Y970891D01*
X1075447Y971110D01*
X1075454Y971330D01*
X1075457Y971550D01*
X1074525Y967514D02*
X1074492Y967425D01*
X1074456Y967337D01*
X1074416Y967251D01*
X1074373Y967166D01*
X1074326Y967084D01*
X1074275Y967003D01*
X1074222Y966925D01*
X1074165Y966849D01*
X1074105Y966775D01*
X1074042Y966704D01*
X1073977Y966635D01*
X1073908Y966569D01*
X1073837Y966507D01*
X1073763Y966447D01*
X1073687Y966390D01*
X1073609Y966336D01*
X1073528Y966286D01*
X1073446Y966239D01*
X1073361Y966196D01*
X1073275Y966156D01*
X1073187Y966119D01*
X1073098Y966087D01*
X1073008Y966058D01*
X1072916Y966032D01*
X1072824Y966011D01*
X1072730Y965993D01*
X1072636Y965980D01*
X1072542Y965970D01*
X1072447Y965964D01*
X1072352Y965962D01*
X1069869Y968446D02*
X1074836Y974654D01*
X1016762Y948634D02*
X1016762Y943666D01*
X1016762Y948634D02*
X1016764Y948745D01*
X1016770Y948855D01*
X1016780Y948966D01*
X1016794Y949076D01*
X1016811Y949185D01*
X1016833Y949294D01*
X1016858Y949402D01*
X1016888Y949508D01*
X1016921Y949614D01*
X1016958Y949719D01*
X1016998Y949822D01*
X1017043Y949923D01*
X1017090Y950023D01*
X1017142Y950122D01*
X1017197Y950218D01*
X1017255Y950312D01*
X1017316Y950404D01*
X1017381Y950494D01*
X1017449Y950582D01*
X1017520Y950667D01*
X1017594Y950749D01*
X1017671Y950829D01*
X1017751Y950906D01*
X1017833Y950980D01*
X1017918Y951051D01*
X1018006Y951119D01*
X1018096Y951184D01*
X1018188Y951245D01*
X1018282Y951303D01*
X1018378Y951358D01*
X1018477Y951410D01*
X1018577Y951457D01*
X1018678Y951502D01*
X1018781Y951542D01*
X1018886Y951579D01*
X1018992Y951612D01*
X1019098Y951642D01*
X1019206Y951667D01*
X1019315Y951689D01*
X1019424Y951706D01*
X1019534Y951720D01*
X1019645Y951730D01*
X1019755Y951736D01*
X1019866Y951738D01*
X1019977Y951736D01*
X1020087Y951730D01*
X1020198Y951720D01*
X1020308Y951706D01*
X1020417Y951689D01*
X1020526Y951667D01*
X1020634Y951642D01*
X1020740Y951612D01*
X1020846Y951579D01*
X1020951Y951542D01*
X1021054Y951502D01*
X1021155Y951457D01*
X1021255Y951410D01*
X1021354Y951358D01*
X1021450Y951303D01*
X1021544Y951245D01*
X1021636Y951184D01*
X1021726Y951119D01*
X1021814Y951051D01*
X1021899Y950980D01*
X1021981Y950906D01*
X1022061Y950829D01*
X1022138Y950749D01*
X1022212Y950667D01*
X1022283Y950582D01*
X1022351Y950494D01*
X1022416Y950404D01*
X1022477Y950312D01*
X1022535Y950218D01*
X1022590Y950122D01*
X1022642Y950023D01*
X1022689Y949923D01*
X1022734Y949822D01*
X1022774Y949719D01*
X1022811Y949614D01*
X1022844Y949508D01*
X1022874Y949402D01*
X1022899Y949294D01*
X1022921Y949185D01*
X1022938Y949076D01*
X1022952Y948966D01*
X1022962Y948855D01*
X1022968Y948745D01*
X1022970Y948634D01*
X1022971Y948634D02*
X1022971Y943666D01*
X1022970Y943666D02*
X1022968Y943555D01*
X1022962Y943445D01*
X1022952Y943334D01*
X1022938Y943224D01*
X1022921Y943115D01*
X1022899Y943006D01*
X1022874Y942898D01*
X1022844Y942792D01*
X1022811Y942686D01*
X1022774Y942581D01*
X1022734Y942478D01*
X1022689Y942377D01*
X1022642Y942277D01*
X1022590Y942178D01*
X1022535Y942082D01*
X1022477Y941988D01*
X1022416Y941896D01*
X1022351Y941806D01*
X1022283Y941718D01*
X1022212Y941633D01*
X1022138Y941551D01*
X1022061Y941471D01*
X1021981Y941394D01*
X1021899Y941320D01*
X1021814Y941249D01*
X1021726Y941181D01*
X1021636Y941116D01*
X1021544Y941055D01*
X1021450Y940997D01*
X1021354Y940942D01*
X1021255Y940890D01*
X1021155Y940843D01*
X1021054Y940798D01*
X1020951Y940758D01*
X1020846Y940721D01*
X1020740Y940688D01*
X1020634Y940658D01*
X1020526Y940633D01*
X1020417Y940611D01*
X1020308Y940594D01*
X1020198Y940580D01*
X1020087Y940570D01*
X1019977Y940564D01*
X1019866Y940562D01*
X1019755Y940564D01*
X1019645Y940570D01*
X1019534Y940580D01*
X1019424Y940594D01*
X1019315Y940611D01*
X1019206Y940633D01*
X1019098Y940658D01*
X1018992Y940688D01*
X1018886Y940721D01*
X1018781Y940758D01*
X1018678Y940798D01*
X1018577Y940843D01*
X1018477Y940890D01*
X1018378Y940942D01*
X1018282Y940997D01*
X1018188Y941055D01*
X1018096Y941116D01*
X1018006Y941181D01*
X1017918Y941249D01*
X1017833Y941320D01*
X1017751Y941394D01*
X1017671Y941471D01*
X1017594Y941551D01*
X1017520Y941633D01*
X1017449Y941718D01*
X1017381Y941806D01*
X1017316Y941896D01*
X1017255Y941988D01*
X1017197Y942082D01*
X1017142Y942178D01*
X1017090Y942277D01*
X1017043Y942377D01*
X1016998Y942478D01*
X1016958Y942581D01*
X1016921Y942686D01*
X1016888Y942792D01*
X1016858Y942898D01*
X1016833Y943006D01*
X1016811Y943115D01*
X1016794Y943224D01*
X1016780Y943334D01*
X1016770Y943445D01*
X1016764Y943555D01*
X1016762Y943666D01*
X1028573Y940562D02*
X1028573Y951738D01*
X1031677Y951738D01*
X1031788Y951736D01*
X1031898Y951730D01*
X1032009Y951720D01*
X1032119Y951706D01*
X1032228Y951689D01*
X1032337Y951667D01*
X1032445Y951642D01*
X1032551Y951612D01*
X1032657Y951579D01*
X1032762Y951542D01*
X1032865Y951502D01*
X1032966Y951457D01*
X1033066Y951410D01*
X1033165Y951358D01*
X1033261Y951303D01*
X1033355Y951245D01*
X1033447Y951184D01*
X1033537Y951119D01*
X1033625Y951051D01*
X1033710Y950980D01*
X1033792Y950906D01*
X1033872Y950829D01*
X1033949Y950749D01*
X1034023Y950667D01*
X1034094Y950582D01*
X1034162Y950494D01*
X1034227Y950404D01*
X1034288Y950312D01*
X1034346Y950218D01*
X1034401Y950122D01*
X1034453Y950023D01*
X1034500Y949923D01*
X1034545Y949822D01*
X1034585Y949719D01*
X1034622Y949614D01*
X1034655Y949508D01*
X1034685Y949402D01*
X1034710Y949294D01*
X1034732Y949185D01*
X1034749Y949076D01*
X1034763Y948966D01*
X1034773Y948855D01*
X1034779Y948745D01*
X1034781Y948634D01*
X1034782Y948634D02*
X1034782Y943666D01*
X1034781Y943666D02*
X1034779Y943555D01*
X1034773Y943445D01*
X1034763Y943334D01*
X1034749Y943224D01*
X1034732Y943115D01*
X1034710Y943006D01*
X1034685Y942898D01*
X1034655Y942792D01*
X1034622Y942686D01*
X1034585Y942581D01*
X1034545Y942478D01*
X1034500Y942377D01*
X1034453Y942277D01*
X1034401Y942178D01*
X1034346Y942082D01*
X1034288Y941988D01*
X1034227Y941896D01*
X1034162Y941806D01*
X1034094Y941718D01*
X1034023Y941633D01*
X1033949Y941551D01*
X1033872Y941471D01*
X1033792Y941394D01*
X1033710Y941320D01*
X1033625Y941249D01*
X1033537Y941181D01*
X1033447Y941116D01*
X1033355Y941055D01*
X1033261Y940997D01*
X1033165Y940942D01*
X1033066Y940890D01*
X1032966Y940843D01*
X1032865Y940798D01*
X1032762Y940758D01*
X1032657Y940721D01*
X1032551Y940688D01*
X1032445Y940658D01*
X1032337Y940633D01*
X1032228Y940611D01*
X1032119Y940594D01*
X1032009Y940580D01*
X1031898Y940570D01*
X1031788Y940564D01*
X1031677Y940562D01*
X1028573Y940562D01*
X1043728Y940562D02*
X1043825Y940564D01*
X1043923Y940570D01*
X1044020Y940579D01*
X1044117Y940593D01*
X1044213Y940610D01*
X1044308Y940631D01*
X1044402Y940655D01*
X1044496Y940684D01*
X1044588Y940716D01*
X1044679Y940751D01*
X1044768Y940790D01*
X1044856Y940833D01*
X1044942Y940879D01*
X1045026Y940928D01*
X1045108Y940981D01*
X1045188Y941036D01*
X1045266Y941095D01*
X1045341Y941157D01*
X1045414Y941222D01*
X1045484Y941290D01*
X1045552Y941360D01*
X1045617Y941433D01*
X1045679Y941508D01*
X1045738Y941586D01*
X1045793Y941666D01*
X1045846Y941748D01*
X1045895Y941832D01*
X1045941Y941918D01*
X1045984Y942006D01*
X1046023Y942095D01*
X1046058Y942186D01*
X1046090Y942278D01*
X1046119Y942372D01*
X1046143Y942466D01*
X1046164Y942561D01*
X1046181Y942657D01*
X1046195Y942754D01*
X1046204Y942851D01*
X1046210Y942948D01*
X1046212Y943046D01*
X1043728Y940562D02*
X1043585Y940564D01*
X1043442Y940570D01*
X1043300Y940579D01*
X1043158Y940593D01*
X1043016Y940611D01*
X1042875Y940632D01*
X1042734Y940657D01*
X1042594Y940686D01*
X1042455Y940719D01*
X1042317Y940755D01*
X1042180Y940796D01*
X1042044Y940840D01*
X1041909Y940887D01*
X1041776Y940939D01*
X1041644Y940994D01*
X1041514Y941052D01*
X1041385Y941114D01*
X1041258Y941180D01*
X1041133Y941249D01*
X1041010Y941321D01*
X1040889Y941397D01*
X1040770Y941475D01*
X1040653Y941558D01*
X1040538Y941643D01*
X1040426Y941731D01*
X1040316Y941823D01*
X1040209Y941917D01*
X1040104Y942014D01*
X1040002Y942114D01*
X1040313Y949254D02*
X1040315Y949352D01*
X1040321Y949449D01*
X1040330Y949546D01*
X1040344Y949643D01*
X1040361Y949739D01*
X1040382Y949834D01*
X1040406Y949928D01*
X1040435Y950022D01*
X1040467Y950114D01*
X1040502Y950205D01*
X1040541Y950294D01*
X1040584Y950382D01*
X1040630Y950468D01*
X1040679Y950552D01*
X1040732Y950634D01*
X1040787Y950714D01*
X1040846Y950792D01*
X1040908Y950867D01*
X1040973Y950940D01*
X1041041Y951010D01*
X1041111Y951078D01*
X1041184Y951143D01*
X1041259Y951205D01*
X1041337Y951264D01*
X1041417Y951319D01*
X1041499Y951372D01*
X1041583Y951421D01*
X1041669Y951467D01*
X1041757Y951510D01*
X1041846Y951549D01*
X1041937Y951584D01*
X1042029Y951616D01*
X1042123Y951645D01*
X1042217Y951669D01*
X1042312Y951690D01*
X1042408Y951707D01*
X1042505Y951721D01*
X1042602Y951730D01*
X1042699Y951736D01*
X1042797Y951738D01*
X1042927Y951736D01*
X1043057Y951731D01*
X1043187Y951722D01*
X1043317Y951709D01*
X1043446Y951693D01*
X1043575Y951673D01*
X1043703Y951649D01*
X1043831Y951622D01*
X1043957Y951591D01*
X1044083Y951557D01*
X1044208Y951519D01*
X1044331Y951478D01*
X1044454Y951433D01*
X1044575Y951385D01*
X1044695Y951334D01*
X1044813Y951279D01*
X1044929Y951221D01*
X1045044Y951160D01*
X1045158Y951095D01*
X1045269Y951028D01*
X1045378Y950957D01*
X1045486Y950883D01*
X1045591Y950807D01*
X1041556Y947081D02*
X1041473Y947132D01*
X1041392Y947186D01*
X1041314Y947243D01*
X1041238Y947303D01*
X1041164Y947366D01*
X1041093Y947432D01*
X1041024Y947500D01*
X1040958Y947571D01*
X1040894Y947644D01*
X1040834Y947720D01*
X1040777Y947798D01*
X1040722Y947879D01*
X1040671Y947961D01*
X1040623Y948045D01*
X1040578Y948131D01*
X1040536Y948219D01*
X1040498Y948308D01*
X1040464Y948398D01*
X1040432Y948490D01*
X1040405Y948583D01*
X1040381Y948677D01*
X1040360Y948772D01*
X1040344Y948868D01*
X1040331Y948964D01*
X1040321Y949060D01*
X1040316Y949157D01*
X1040314Y949254D01*
X1044969Y945219D02*
X1045052Y945168D01*
X1045133Y945114D01*
X1045211Y945057D01*
X1045287Y944997D01*
X1045361Y944934D01*
X1045432Y944868D01*
X1045501Y944800D01*
X1045567Y944729D01*
X1045631Y944656D01*
X1045691Y944580D01*
X1045748Y944502D01*
X1045803Y944421D01*
X1045854Y944339D01*
X1045902Y944255D01*
X1045947Y944169D01*
X1045989Y944081D01*
X1046027Y943992D01*
X1046061Y943902D01*
X1046093Y943810D01*
X1046120Y943717D01*
X1046144Y943623D01*
X1046165Y943528D01*
X1046181Y943432D01*
X1046194Y943336D01*
X1046204Y943240D01*
X1046209Y943143D01*
X1046211Y943046D01*
X1044970Y945219D02*
X1041555Y947081D01*
X146812Y145288D02*
X146812Y134112D01*
X146812Y145288D02*
X149916Y145288D01*
X150027Y145286D01*
X150137Y145280D01*
X150248Y145270D01*
X150358Y145256D01*
X150467Y145239D01*
X150576Y145217D01*
X150684Y145192D01*
X150790Y145162D01*
X150896Y145129D01*
X151001Y145092D01*
X151104Y145052D01*
X151205Y145007D01*
X151305Y144960D01*
X151404Y144908D01*
X151500Y144853D01*
X151594Y144795D01*
X151686Y144734D01*
X151776Y144669D01*
X151864Y144601D01*
X151949Y144530D01*
X152031Y144456D01*
X152111Y144379D01*
X152188Y144299D01*
X152262Y144217D01*
X152333Y144132D01*
X152401Y144044D01*
X152466Y143954D01*
X152527Y143862D01*
X152585Y143768D01*
X152640Y143672D01*
X152692Y143573D01*
X152739Y143473D01*
X152784Y143372D01*
X152824Y143269D01*
X152861Y143164D01*
X152894Y143058D01*
X152924Y142952D01*
X152949Y142844D01*
X152971Y142735D01*
X152988Y142626D01*
X153002Y142516D01*
X153012Y142405D01*
X153018Y142295D01*
X153020Y142184D01*
X153018Y142073D01*
X153012Y141963D01*
X153002Y141852D01*
X152988Y141742D01*
X152971Y141633D01*
X152949Y141524D01*
X152924Y141416D01*
X152894Y141310D01*
X152861Y141204D01*
X152824Y141099D01*
X152784Y140996D01*
X152739Y140895D01*
X152692Y140795D01*
X152640Y140696D01*
X152585Y140600D01*
X152527Y140506D01*
X152466Y140414D01*
X152401Y140324D01*
X152333Y140236D01*
X152262Y140151D01*
X152188Y140069D01*
X152111Y139989D01*
X152031Y139912D01*
X151949Y139838D01*
X151864Y139767D01*
X151776Y139699D01*
X151686Y139634D01*
X151594Y139573D01*
X151500Y139515D01*
X151404Y139460D01*
X151305Y139408D01*
X151205Y139361D01*
X151104Y139316D01*
X151001Y139276D01*
X150896Y139239D01*
X150790Y139206D01*
X150684Y139176D01*
X150576Y139151D01*
X150467Y139129D01*
X150358Y139112D01*
X150248Y139098D01*
X150137Y139088D01*
X150027Y139082D01*
X149916Y139080D01*
X149916Y139079D02*
X146812Y139079D01*
X157600Y135975D02*
X157600Y145288D01*
X157600Y135975D02*
X157602Y135891D01*
X157607Y135808D01*
X157617Y135725D01*
X157630Y135642D01*
X157647Y135560D01*
X157667Y135479D01*
X157691Y135399D01*
X157719Y135320D01*
X157750Y135243D01*
X157784Y135167D01*
X157822Y135092D01*
X157864Y135019D01*
X157908Y134949D01*
X157956Y134880D01*
X158006Y134813D01*
X158060Y134749D01*
X158116Y134688D01*
X158176Y134628D01*
X158237Y134572D01*
X158301Y134518D01*
X158368Y134468D01*
X158437Y134420D01*
X158507Y134376D01*
X158580Y134334D01*
X158655Y134296D01*
X158731Y134262D01*
X158808Y134231D01*
X158887Y134203D01*
X158967Y134179D01*
X159048Y134159D01*
X159130Y134142D01*
X159213Y134129D01*
X159296Y134119D01*
X159379Y134114D01*
X159463Y134112D01*
X165704Y138458D02*
X168498Y138458D01*
X165704Y138458D02*
X165612Y138456D01*
X165520Y138450D01*
X165428Y138440D01*
X165337Y138427D01*
X165246Y138409D01*
X165156Y138388D01*
X165068Y138363D01*
X164980Y138334D01*
X164894Y138301D01*
X164809Y138265D01*
X164726Y138225D01*
X164644Y138182D01*
X164565Y138135D01*
X164487Y138085D01*
X164412Y138032D01*
X164339Y137976D01*
X164268Y137916D01*
X164200Y137854D01*
X164135Y137789D01*
X164073Y137721D01*
X164013Y137650D01*
X163957Y137577D01*
X163904Y137502D01*
X163854Y137424D01*
X163807Y137345D01*
X163764Y137263D01*
X163724Y137180D01*
X163688Y137095D01*
X163655Y137009D01*
X163626Y136921D01*
X163601Y136833D01*
X163580Y136743D01*
X163562Y136652D01*
X163549Y136561D01*
X163539Y136469D01*
X163533Y136377D01*
X163531Y136285D01*
X163533Y136193D01*
X163539Y136101D01*
X163549Y136009D01*
X163562Y135918D01*
X163580Y135827D01*
X163601Y135737D01*
X163626Y135649D01*
X163655Y135561D01*
X163688Y135475D01*
X163724Y135390D01*
X163764Y135307D01*
X163807Y135225D01*
X163854Y135146D01*
X163904Y135068D01*
X163957Y134993D01*
X164013Y134920D01*
X164073Y134849D01*
X164135Y134781D01*
X164200Y134716D01*
X164268Y134654D01*
X164339Y134594D01*
X164412Y134538D01*
X164487Y134485D01*
X164565Y134435D01*
X164644Y134388D01*
X164726Y134345D01*
X164809Y134305D01*
X164894Y134269D01*
X164980Y134236D01*
X165068Y134207D01*
X165156Y134182D01*
X165246Y134161D01*
X165337Y134143D01*
X165428Y134130D01*
X165520Y134120D01*
X165612Y134114D01*
X165704Y134112D01*
X168498Y134112D01*
X168498Y139700D01*
X168496Y139784D01*
X168491Y139867D01*
X168481Y139950D01*
X168468Y140033D01*
X168451Y140115D01*
X168431Y140196D01*
X168407Y140276D01*
X168379Y140355D01*
X168348Y140432D01*
X168314Y140508D01*
X168276Y140583D01*
X168234Y140656D01*
X168190Y140726D01*
X168142Y140795D01*
X168092Y140862D01*
X168038Y140926D01*
X167982Y140987D01*
X167922Y141047D01*
X167861Y141103D01*
X167797Y141157D01*
X167730Y141207D01*
X167661Y141255D01*
X167591Y141299D01*
X167518Y141341D01*
X167443Y141379D01*
X167367Y141413D01*
X167290Y141444D01*
X167211Y141472D01*
X167131Y141496D01*
X167050Y141516D01*
X166968Y141533D01*
X166885Y141546D01*
X166802Y141556D01*
X166719Y141561D01*
X166635Y141563D01*
X164151Y141563D01*
X173510Y130387D02*
X174752Y130387D01*
X178477Y141563D01*
X173510Y141563D02*
X175994Y134112D01*
X184898Y134112D02*
X188002Y134112D01*
X184898Y134112D02*
X184814Y134114D01*
X184731Y134119D01*
X184648Y134129D01*
X184565Y134142D01*
X184483Y134159D01*
X184402Y134179D01*
X184322Y134203D01*
X184243Y134231D01*
X184166Y134262D01*
X184090Y134296D01*
X184015Y134334D01*
X183942Y134376D01*
X183872Y134420D01*
X183803Y134468D01*
X183736Y134518D01*
X183672Y134572D01*
X183611Y134628D01*
X183551Y134688D01*
X183495Y134749D01*
X183441Y134813D01*
X183391Y134880D01*
X183343Y134949D01*
X183299Y135019D01*
X183257Y135092D01*
X183219Y135167D01*
X183185Y135243D01*
X183154Y135320D01*
X183126Y135399D01*
X183102Y135479D01*
X183082Y135560D01*
X183065Y135642D01*
X183052Y135725D01*
X183042Y135808D01*
X183037Y135891D01*
X183035Y135975D01*
X183035Y139079D01*
X183037Y139178D01*
X183043Y139276D01*
X183053Y139375D01*
X183066Y139472D01*
X183084Y139570D01*
X183105Y139666D01*
X183131Y139762D01*
X183160Y139856D01*
X183192Y139949D01*
X183229Y140041D01*
X183269Y140131D01*
X183313Y140220D01*
X183360Y140307D01*
X183410Y140392D01*
X183464Y140474D01*
X183521Y140555D01*
X183581Y140633D01*
X183645Y140709D01*
X183711Y140782D01*
X183780Y140853D01*
X183852Y140921D01*
X183927Y140985D01*
X184004Y141047D01*
X184083Y141106D01*
X184165Y141161D01*
X184249Y141214D01*
X184334Y141262D01*
X184422Y141308D01*
X184512Y141350D01*
X184603Y141388D01*
X184695Y141422D01*
X184789Y141453D01*
X184884Y141480D01*
X184980Y141504D01*
X185077Y141523D01*
X185174Y141539D01*
X185272Y141551D01*
X185371Y141559D01*
X185470Y141563D01*
X185568Y141563D01*
X185667Y141559D01*
X185766Y141551D01*
X185864Y141539D01*
X185961Y141523D01*
X186058Y141504D01*
X186154Y141480D01*
X186249Y141453D01*
X186343Y141422D01*
X186435Y141388D01*
X186526Y141350D01*
X186616Y141308D01*
X186704Y141262D01*
X186789Y141214D01*
X186873Y141161D01*
X186955Y141106D01*
X187034Y141047D01*
X187111Y140985D01*
X187186Y140921D01*
X187258Y140853D01*
X187327Y140782D01*
X187393Y140709D01*
X187457Y140633D01*
X187517Y140555D01*
X187574Y140474D01*
X187628Y140392D01*
X187678Y140307D01*
X187725Y140220D01*
X187769Y140131D01*
X187809Y140041D01*
X187846Y139949D01*
X187878Y139856D01*
X187907Y139762D01*
X187933Y139666D01*
X187954Y139570D01*
X187972Y139472D01*
X187985Y139375D01*
X187995Y139276D01*
X188001Y139178D01*
X188003Y139079D01*
X188002Y139079D02*
X188002Y137837D01*
X183035Y137837D01*
X193405Y134112D02*
X193405Y141563D01*
X197130Y141563D01*
X197130Y140321D01*
X207179Y142804D02*
X210284Y145288D01*
X210284Y134112D01*
X213388Y134112D02*
X207179Y134112D01*
X1308862Y134112D02*
X1308862Y145288D01*
X1311966Y145288D01*
X1312077Y145286D01*
X1312187Y145280D01*
X1312298Y145270D01*
X1312408Y145256D01*
X1312517Y145239D01*
X1312626Y145217D01*
X1312734Y145192D01*
X1312840Y145162D01*
X1312946Y145129D01*
X1313051Y145092D01*
X1313154Y145052D01*
X1313255Y145007D01*
X1313355Y144960D01*
X1313454Y144908D01*
X1313550Y144853D01*
X1313644Y144795D01*
X1313736Y144734D01*
X1313826Y144669D01*
X1313914Y144601D01*
X1313999Y144530D01*
X1314081Y144456D01*
X1314161Y144379D01*
X1314238Y144299D01*
X1314312Y144217D01*
X1314383Y144132D01*
X1314451Y144044D01*
X1314516Y143954D01*
X1314577Y143862D01*
X1314635Y143768D01*
X1314690Y143672D01*
X1314742Y143573D01*
X1314789Y143473D01*
X1314834Y143372D01*
X1314874Y143269D01*
X1314911Y143164D01*
X1314944Y143058D01*
X1314974Y142952D01*
X1314999Y142844D01*
X1315021Y142735D01*
X1315038Y142626D01*
X1315052Y142516D01*
X1315062Y142405D01*
X1315068Y142295D01*
X1315070Y142184D01*
X1315068Y142073D01*
X1315062Y141963D01*
X1315052Y141852D01*
X1315038Y141742D01*
X1315021Y141633D01*
X1314999Y141524D01*
X1314974Y141416D01*
X1314944Y141310D01*
X1314911Y141204D01*
X1314874Y141099D01*
X1314834Y140996D01*
X1314789Y140895D01*
X1314742Y140795D01*
X1314690Y140696D01*
X1314635Y140600D01*
X1314577Y140506D01*
X1314516Y140414D01*
X1314451Y140324D01*
X1314383Y140236D01*
X1314312Y140151D01*
X1314238Y140069D01*
X1314161Y139989D01*
X1314081Y139912D01*
X1313999Y139838D01*
X1313914Y139767D01*
X1313826Y139699D01*
X1313736Y139634D01*
X1313644Y139573D01*
X1313550Y139515D01*
X1313454Y139460D01*
X1313355Y139408D01*
X1313255Y139361D01*
X1313154Y139316D01*
X1313051Y139276D01*
X1312946Y139239D01*
X1312840Y139206D01*
X1312734Y139176D01*
X1312626Y139151D01*
X1312517Y139129D01*
X1312408Y139112D01*
X1312298Y139098D01*
X1312187Y139088D01*
X1312077Y139082D01*
X1311966Y139080D01*
X1311966Y139079D02*
X1308862Y139079D01*
X1319650Y135975D02*
X1319650Y145288D01*
X1319650Y135975D02*
X1319652Y135891D01*
X1319657Y135808D01*
X1319667Y135725D01*
X1319680Y135642D01*
X1319697Y135560D01*
X1319717Y135479D01*
X1319741Y135399D01*
X1319769Y135320D01*
X1319800Y135243D01*
X1319834Y135167D01*
X1319872Y135092D01*
X1319914Y135019D01*
X1319958Y134949D01*
X1320006Y134880D01*
X1320056Y134813D01*
X1320110Y134749D01*
X1320166Y134688D01*
X1320226Y134628D01*
X1320287Y134572D01*
X1320351Y134518D01*
X1320418Y134468D01*
X1320487Y134420D01*
X1320557Y134376D01*
X1320630Y134334D01*
X1320705Y134296D01*
X1320781Y134262D01*
X1320858Y134231D01*
X1320937Y134203D01*
X1321017Y134179D01*
X1321098Y134159D01*
X1321180Y134142D01*
X1321263Y134129D01*
X1321346Y134119D01*
X1321429Y134114D01*
X1321513Y134112D01*
X1327754Y138458D02*
X1330548Y138458D01*
X1327754Y138458D02*
X1327662Y138456D01*
X1327570Y138450D01*
X1327478Y138440D01*
X1327387Y138427D01*
X1327296Y138409D01*
X1327206Y138388D01*
X1327118Y138363D01*
X1327030Y138334D01*
X1326944Y138301D01*
X1326859Y138265D01*
X1326776Y138225D01*
X1326694Y138182D01*
X1326615Y138135D01*
X1326537Y138085D01*
X1326462Y138032D01*
X1326389Y137976D01*
X1326318Y137916D01*
X1326250Y137854D01*
X1326185Y137789D01*
X1326123Y137721D01*
X1326063Y137650D01*
X1326007Y137577D01*
X1325954Y137502D01*
X1325904Y137424D01*
X1325857Y137345D01*
X1325814Y137263D01*
X1325774Y137180D01*
X1325738Y137095D01*
X1325705Y137009D01*
X1325676Y136921D01*
X1325651Y136833D01*
X1325630Y136743D01*
X1325612Y136652D01*
X1325599Y136561D01*
X1325589Y136469D01*
X1325583Y136377D01*
X1325581Y136285D01*
X1325583Y136193D01*
X1325589Y136101D01*
X1325599Y136009D01*
X1325612Y135918D01*
X1325630Y135827D01*
X1325651Y135737D01*
X1325676Y135649D01*
X1325705Y135561D01*
X1325738Y135475D01*
X1325774Y135390D01*
X1325814Y135307D01*
X1325857Y135225D01*
X1325904Y135146D01*
X1325954Y135068D01*
X1326007Y134993D01*
X1326063Y134920D01*
X1326123Y134849D01*
X1326185Y134781D01*
X1326250Y134716D01*
X1326318Y134654D01*
X1326389Y134594D01*
X1326462Y134538D01*
X1326537Y134485D01*
X1326615Y134435D01*
X1326694Y134388D01*
X1326776Y134345D01*
X1326859Y134305D01*
X1326944Y134269D01*
X1327030Y134236D01*
X1327118Y134207D01*
X1327206Y134182D01*
X1327296Y134161D01*
X1327387Y134143D01*
X1327478Y134130D01*
X1327570Y134120D01*
X1327662Y134114D01*
X1327754Y134112D01*
X1330548Y134112D01*
X1330548Y139700D01*
X1330546Y139784D01*
X1330541Y139867D01*
X1330531Y139950D01*
X1330518Y140033D01*
X1330501Y140115D01*
X1330481Y140196D01*
X1330457Y140276D01*
X1330429Y140355D01*
X1330398Y140432D01*
X1330364Y140508D01*
X1330326Y140583D01*
X1330284Y140656D01*
X1330240Y140726D01*
X1330192Y140795D01*
X1330142Y140862D01*
X1330088Y140926D01*
X1330032Y140987D01*
X1329972Y141047D01*
X1329911Y141103D01*
X1329847Y141157D01*
X1329780Y141207D01*
X1329711Y141255D01*
X1329641Y141299D01*
X1329568Y141341D01*
X1329493Y141379D01*
X1329417Y141413D01*
X1329340Y141444D01*
X1329261Y141472D01*
X1329181Y141496D01*
X1329100Y141516D01*
X1329018Y141533D01*
X1328935Y141546D01*
X1328852Y141556D01*
X1328769Y141561D01*
X1328685Y141563D01*
X1326201Y141563D01*
X1335560Y130387D02*
X1336802Y130387D01*
X1340527Y141563D01*
X1335560Y141563D02*
X1338044Y134112D01*
X1346948Y134112D02*
X1350052Y134112D01*
X1346948Y134112D02*
X1346864Y134114D01*
X1346781Y134119D01*
X1346698Y134129D01*
X1346615Y134142D01*
X1346533Y134159D01*
X1346452Y134179D01*
X1346372Y134203D01*
X1346293Y134231D01*
X1346216Y134262D01*
X1346140Y134296D01*
X1346065Y134334D01*
X1345992Y134376D01*
X1345922Y134420D01*
X1345853Y134468D01*
X1345786Y134518D01*
X1345722Y134572D01*
X1345661Y134628D01*
X1345601Y134688D01*
X1345545Y134749D01*
X1345491Y134813D01*
X1345441Y134880D01*
X1345393Y134949D01*
X1345349Y135019D01*
X1345307Y135092D01*
X1345269Y135167D01*
X1345235Y135243D01*
X1345204Y135320D01*
X1345176Y135399D01*
X1345152Y135479D01*
X1345132Y135560D01*
X1345115Y135642D01*
X1345102Y135725D01*
X1345092Y135808D01*
X1345087Y135891D01*
X1345085Y135975D01*
X1345085Y139079D01*
X1345087Y139178D01*
X1345093Y139276D01*
X1345103Y139375D01*
X1345116Y139472D01*
X1345134Y139570D01*
X1345155Y139666D01*
X1345181Y139762D01*
X1345210Y139856D01*
X1345242Y139949D01*
X1345279Y140041D01*
X1345319Y140131D01*
X1345363Y140220D01*
X1345410Y140307D01*
X1345460Y140392D01*
X1345514Y140474D01*
X1345571Y140555D01*
X1345631Y140633D01*
X1345695Y140709D01*
X1345761Y140782D01*
X1345830Y140853D01*
X1345902Y140921D01*
X1345977Y140985D01*
X1346054Y141047D01*
X1346133Y141106D01*
X1346215Y141161D01*
X1346299Y141214D01*
X1346384Y141262D01*
X1346472Y141308D01*
X1346562Y141350D01*
X1346653Y141388D01*
X1346745Y141422D01*
X1346839Y141453D01*
X1346934Y141480D01*
X1347030Y141504D01*
X1347127Y141523D01*
X1347224Y141539D01*
X1347322Y141551D01*
X1347421Y141559D01*
X1347520Y141563D01*
X1347618Y141563D01*
X1347717Y141559D01*
X1347816Y141551D01*
X1347914Y141539D01*
X1348011Y141523D01*
X1348108Y141504D01*
X1348204Y141480D01*
X1348299Y141453D01*
X1348393Y141422D01*
X1348485Y141388D01*
X1348576Y141350D01*
X1348666Y141308D01*
X1348754Y141262D01*
X1348839Y141214D01*
X1348923Y141161D01*
X1349005Y141106D01*
X1349084Y141047D01*
X1349161Y140985D01*
X1349236Y140921D01*
X1349308Y140853D01*
X1349377Y140782D01*
X1349443Y140709D01*
X1349507Y140633D01*
X1349567Y140555D01*
X1349624Y140474D01*
X1349678Y140392D01*
X1349728Y140307D01*
X1349775Y140220D01*
X1349819Y140131D01*
X1349859Y140041D01*
X1349896Y139949D01*
X1349928Y139856D01*
X1349957Y139762D01*
X1349983Y139666D01*
X1350004Y139570D01*
X1350022Y139472D01*
X1350035Y139375D01*
X1350045Y139276D01*
X1350051Y139178D01*
X1350053Y139079D01*
X1350052Y139079D02*
X1350052Y137837D01*
X1345085Y137837D01*
X1355455Y134112D02*
X1355455Y141563D01*
X1359180Y141563D01*
X1359180Y140321D01*
X1372644Y145288D02*
X1372748Y145286D01*
X1372853Y145280D01*
X1372957Y145270D01*
X1373060Y145257D01*
X1373163Y145239D01*
X1373266Y145218D01*
X1373367Y145193D01*
X1373468Y145164D01*
X1373567Y145131D01*
X1373665Y145095D01*
X1373761Y145055D01*
X1373856Y145011D01*
X1373950Y144964D01*
X1374041Y144914D01*
X1374130Y144860D01*
X1374218Y144803D01*
X1374303Y144742D01*
X1374386Y144678D01*
X1374466Y144612D01*
X1374544Y144542D01*
X1374620Y144470D01*
X1374692Y144394D01*
X1374762Y144316D01*
X1374828Y144236D01*
X1374892Y144153D01*
X1374953Y144068D01*
X1375010Y143980D01*
X1375064Y143891D01*
X1375114Y143800D01*
X1375161Y143706D01*
X1375205Y143611D01*
X1375245Y143515D01*
X1375281Y143417D01*
X1375314Y143318D01*
X1375343Y143217D01*
X1375368Y143116D01*
X1375389Y143013D01*
X1375407Y142910D01*
X1375420Y142807D01*
X1375430Y142703D01*
X1375436Y142598D01*
X1375438Y142494D01*
X1372644Y145289D02*
X1372525Y145287D01*
X1372407Y145281D01*
X1372288Y145271D01*
X1372170Y145258D01*
X1372053Y145240D01*
X1371936Y145218D01*
X1371820Y145193D01*
X1371705Y145164D01*
X1371590Y145131D01*
X1371477Y145094D01*
X1371366Y145054D01*
X1371255Y145010D01*
X1371147Y144962D01*
X1371040Y144911D01*
X1370934Y144856D01*
X1370831Y144797D01*
X1370729Y144736D01*
X1370630Y144671D01*
X1370532Y144602D01*
X1370438Y144531D01*
X1370345Y144456D01*
X1370255Y144379D01*
X1370168Y144298D01*
X1370083Y144215D01*
X1370001Y144129D01*
X1369922Y144040D01*
X1369846Y143949D01*
X1369773Y143855D01*
X1369704Y143759D01*
X1369637Y143660D01*
X1369574Y143560D01*
X1369514Y143457D01*
X1369457Y143353D01*
X1369405Y143246D01*
X1369355Y143138D01*
X1369309Y143029D01*
X1369267Y142917D01*
X1369229Y142805D01*
X1374507Y140321D02*
X1374582Y140395D01*
X1374654Y140472D01*
X1374724Y140551D01*
X1374791Y140633D01*
X1374855Y140717D01*
X1374916Y140803D01*
X1374974Y140891D01*
X1375029Y140982D01*
X1375081Y141074D01*
X1375129Y141168D01*
X1375174Y141263D01*
X1375216Y141361D01*
X1375254Y141459D01*
X1375289Y141559D01*
X1375320Y141660D01*
X1375347Y141762D01*
X1375371Y141865D01*
X1375392Y141968D01*
X1375408Y142073D01*
X1375421Y142178D01*
X1375431Y142283D01*
X1375436Y142388D01*
X1375438Y142494D01*
X1374507Y140321D02*
X1369229Y134112D01*
X1375438Y134112D01*
D11*
X974090Y755650D02*
X974704Y755657D01*
X975317Y755680D01*
X975930Y755717D01*
X976541Y755769D01*
X977152Y755835D01*
X977760Y755917D01*
X978366Y756013D01*
X978970Y756123D01*
X979571Y756248D01*
X980169Y756388D01*
X980763Y756542D01*
X981353Y756711D01*
X981939Y756893D01*
X982520Y757090D01*
X983097Y757301D01*
X983668Y757525D01*
X984234Y757763D01*
X984794Y758015D01*
X985347Y758281D01*
X985894Y758559D01*
X986434Y758851D01*
X986967Y759156D01*
X987492Y759474D01*
X988010Y759804D01*
X988519Y760146D01*
X989020Y760501D01*
X989512Y760868D01*
X989995Y761246D01*
X990469Y761636D01*
X990933Y762038D01*
X991388Y762450D01*
X991832Y762874D01*
X992266Y763308D01*
X992690Y763752D01*
X993102Y764207D01*
X993504Y764671D01*
X993894Y765145D01*
X994272Y765628D01*
X994639Y766120D01*
X994994Y766621D01*
X995336Y767130D01*
X995666Y767648D01*
X995984Y768173D01*
X996289Y768706D01*
X996581Y769246D01*
X996859Y769793D01*
X997125Y770346D01*
X997377Y770906D01*
X997615Y771472D01*
X997839Y772043D01*
X998050Y772620D01*
X998247Y773201D01*
X998429Y773787D01*
X998598Y774377D01*
X998752Y774971D01*
X998892Y775569D01*
X999017Y776170D01*
X999127Y776774D01*
X999223Y777380D01*
X999305Y777988D01*
X999371Y778599D01*
X999423Y779210D01*
X999460Y779823D01*
X999483Y780436D01*
X999490Y781050D01*
X999490Y996950D01*
X999483Y997564D01*
X999460Y998177D01*
X999423Y998790D01*
X999371Y999401D01*
X999305Y1000012D01*
X999223Y1000620D01*
X999127Y1001226D01*
X999017Y1001830D01*
X998892Y1002431D01*
X998752Y1003029D01*
X998598Y1003623D01*
X998429Y1004213D01*
X998247Y1004799D01*
X998050Y1005380D01*
X997839Y1005957D01*
X997615Y1006528D01*
X997377Y1007094D01*
X997125Y1007654D01*
X996859Y1008207D01*
X996581Y1008754D01*
X996289Y1009294D01*
X995984Y1009827D01*
X995666Y1010352D01*
X995336Y1010870D01*
X994994Y1011379D01*
X994639Y1011880D01*
X994272Y1012372D01*
X993894Y1012855D01*
X993504Y1013329D01*
X993102Y1013793D01*
X992690Y1014248D01*
X992266Y1014692D01*
X991832Y1015126D01*
X991388Y1015550D01*
X990933Y1015962D01*
X990469Y1016364D01*
X989995Y1016754D01*
X989512Y1017132D01*
X989020Y1017499D01*
X988519Y1017854D01*
X988010Y1018196D01*
X987492Y1018526D01*
X986967Y1018844D01*
X986434Y1019149D01*
X985894Y1019441D01*
X985347Y1019719D01*
X984794Y1019985D01*
X984234Y1020237D01*
X983668Y1020475D01*
X983097Y1020699D01*
X982520Y1020910D01*
X981939Y1021107D01*
X981353Y1021289D01*
X980763Y1021458D01*
X980169Y1021612D01*
X979571Y1021752D01*
X978970Y1021877D01*
X978366Y1021987D01*
X977760Y1022083D01*
X977152Y1022165D01*
X976541Y1022231D01*
X975930Y1022283D01*
X975317Y1022320D01*
X974704Y1022343D01*
X974090Y1022350D01*
X524510Y1022350D01*
X523896Y1022343D01*
X523283Y1022320D01*
X522670Y1022283D01*
X522059Y1022231D01*
X521448Y1022165D01*
X520840Y1022083D01*
X520234Y1021987D01*
X519630Y1021877D01*
X519029Y1021752D01*
X518431Y1021612D01*
X517837Y1021458D01*
X517247Y1021289D01*
X516661Y1021107D01*
X516080Y1020910D01*
X515503Y1020699D01*
X514932Y1020475D01*
X514366Y1020237D01*
X513806Y1019985D01*
X513253Y1019719D01*
X512706Y1019441D01*
X512166Y1019149D01*
X511633Y1018844D01*
X511108Y1018526D01*
X510590Y1018196D01*
X510081Y1017854D01*
X509580Y1017499D01*
X509088Y1017132D01*
X508605Y1016754D01*
X508131Y1016364D01*
X507667Y1015962D01*
X507212Y1015550D01*
X506768Y1015126D01*
X506334Y1014692D01*
X505910Y1014248D01*
X505498Y1013793D01*
X505096Y1013329D01*
X504706Y1012855D01*
X504328Y1012372D01*
X503961Y1011880D01*
X503606Y1011379D01*
X503264Y1010870D01*
X502934Y1010352D01*
X502616Y1009827D01*
X502311Y1009294D01*
X502019Y1008754D01*
X501741Y1008207D01*
X501475Y1007654D01*
X501223Y1007094D01*
X500985Y1006528D01*
X500761Y1005957D01*
X500550Y1005380D01*
X500353Y1004799D01*
X500171Y1004213D01*
X500002Y1003623D01*
X499848Y1003029D01*
X499708Y1002431D01*
X499583Y1001830D01*
X499473Y1001226D01*
X499377Y1000620D01*
X499295Y1000012D01*
X499229Y999401D01*
X499177Y998790D01*
X499140Y998177D01*
X499117Y997564D01*
X499110Y996950D01*
X499110Y781050D01*
X499117Y780436D01*
X499140Y779823D01*
X499177Y779210D01*
X499229Y778599D01*
X499295Y777988D01*
X499377Y777380D01*
X499473Y776774D01*
X499583Y776170D01*
X499708Y775569D01*
X499848Y774971D01*
X500002Y774377D01*
X500171Y773787D01*
X500353Y773201D01*
X500550Y772620D01*
X500761Y772043D01*
X500985Y771472D01*
X501223Y770906D01*
X501475Y770346D01*
X501741Y769793D01*
X502019Y769246D01*
X502311Y768706D01*
X502616Y768173D01*
X502934Y767648D01*
X503264Y767130D01*
X503606Y766621D01*
X503961Y766120D01*
X504328Y765628D01*
X504706Y765145D01*
X505096Y764671D01*
X505498Y764207D01*
X505910Y763752D01*
X506334Y763308D01*
X506768Y762874D01*
X507212Y762450D01*
X507667Y762038D01*
X508131Y761636D01*
X508605Y761246D01*
X509088Y760868D01*
X509580Y760501D01*
X510081Y760146D01*
X510590Y759804D01*
X511108Y759474D01*
X511633Y759156D01*
X512166Y758851D01*
X512706Y758559D01*
X513253Y758281D01*
X513806Y758015D01*
X514366Y757763D01*
X514932Y757525D01*
X515503Y757301D01*
X516080Y757090D01*
X516661Y756893D01*
X517247Y756711D01*
X517837Y756542D01*
X518431Y756388D01*
X519029Y756248D01*
X519630Y756123D01*
X520234Y756013D01*
X520840Y755917D01*
X521448Y755835D01*
X522059Y755769D01*
X522670Y755717D01*
X523283Y755680D01*
X523896Y755657D01*
X524510Y755650D01*
X974090Y755650D01*
D12*
X794639Y1029081D02*
X792551Y1029081D01*
X792462Y1029083D01*
X792374Y1029089D01*
X792286Y1029098D01*
X792198Y1029111D01*
X792111Y1029128D01*
X792025Y1029148D01*
X791940Y1029173D01*
X791855Y1029200D01*
X791772Y1029232D01*
X791691Y1029266D01*
X791611Y1029305D01*
X791533Y1029346D01*
X791456Y1029391D01*
X791382Y1029439D01*
X791309Y1029490D01*
X791239Y1029544D01*
X791172Y1029602D01*
X791106Y1029662D01*
X791044Y1029724D01*
X790984Y1029790D01*
X790926Y1029857D01*
X790872Y1029927D01*
X790821Y1030000D01*
X790773Y1030074D01*
X790728Y1030151D01*
X790687Y1030229D01*
X790648Y1030309D01*
X790614Y1030390D01*
X790582Y1030473D01*
X790555Y1030558D01*
X790530Y1030643D01*
X790510Y1030729D01*
X790493Y1030816D01*
X790480Y1030904D01*
X790471Y1030992D01*
X790465Y1031080D01*
X790463Y1031169D01*
X790462Y1031169D02*
X790462Y1036391D01*
X790463Y1036391D02*
X790465Y1036482D01*
X790471Y1036573D01*
X790481Y1036664D01*
X790495Y1036754D01*
X790512Y1036843D01*
X790534Y1036931D01*
X790560Y1037019D01*
X790589Y1037105D01*
X790622Y1037190D01*
X790659Y1037273D01*
X790699Y1037355D01*
X790743Y1037435D01*
X790790Y1037513D01*
X790841Y1037589D01*
X790894Y1037662D01*
X790951Y1037733D01*
X791012Y1037802D01*
X791075Y1037867D01*
X791140Y1037930D01*
X791209Y1037990D01*
X791280Y1038048D01*
X791353Y1038101D01*
X791429Y1038152D01*
X791507Y1038199D01*
X791587Y1038243D01*
X791669Y1038283D01*
X791752Y1038320D01*
X791837Y1038353D01*
X791923Y1038382D01*
X792011Y1038408D01*
X792099Y1038430D01*
X792188Y1038447D01*
X792278Y1038461D01*
X792369Y1038471D01*
X792460Y1038477D01*
X792551Y1038479D01*
X794639Y1038479D01*
X764018Y1038479D02*
X764018Y1029081D01*
X764018Y1038479D02*
X766628Y1038479D01*
X766728Y1038477D01*
X766828Y1038471D01*
X766927Y1038462D01*
X767027Y1038448D01*
X767125Y1038431D01*
X767223Y1038410D01*
X767320Y1038386D01*
X767416Y1038357D01*
X767511Y1038325D01*
X767604Y1038290D01*
X767696Y1038251D01*
X767787Y1038208D01*
X767875Y1038162D01*
X767962Y1038112D01*
X768047Y1038060D01*
X768130Y1038004D01*
X768211Y1037945D01*
X768289Y1037882D01*
X768365Y1037817D01*
X768439Y1037749D01*
X768509Y1037679D01*
X768577Y1037605D01*
X768642Y1037529D01*
X768705Y1037451D01*
X768764Y1037370D01*
X768820Y1037287D01*
X768872Y1037202D01*
X768922Y1037115D01*
X768968Y1037027D01*
X769011Y1036936D01*
X769050Y1036844D01*
X769085Y1036751D01*
X769117Y1036656D01*
X769146Y1036560D01*
X769170Y1036463D01*
X769191Y1036365D01*
X769208Y1036267D01*
X769222Y1036167D01*
X769231Y1036068D01*
X769237Y1035968D01*
X769239Y1035868D01*
X769239Y1031692D01*
X769237Y1031592D01*
X769231Y1031492D01*
X769222Y1031393D01*
X769208Y1031293D01*
X769191Y1031195D01*
X769170Y1031097D01*
X769146Y1031000D01*
X769117Y1030904D01*
X769085Y1030809D01*
X769050Y1030716D01*
X769011Y1030624D01*
X768968Y1030533D01*
X768922Y1030445D01*
X768872Y1030358D01*
X768820Y1030273D01*
X768764Y1030190D01*
X768705Y1030109D01*
X768642Y1030031D01*
X768577Y1029955D01*
X768509Y1029881D01*
X768439Y1029811D01*
X768365Y1029743D01*
X768289Y1029678D01*
X768211Y1029615D01*
X768130Y1029556D01*
X768047Y1029500D01*
X767962Y1029448D01*
X767875Y1029398D01*
X767787Y1029352D01*
X767696Y1029309D01*
X767604Y1029270D01*
X767511Y1029235D01*
X767416Y1029203D01*
X767320Y1029174D01*
X767223Y1029150D01*
X767125Y1029129D01*
X767027Y1029112D01*
X766927Y1029098D01*
X766828Y1029089D01*
X766728Y1029083D01*
X766628Y1029081D01*
X764018Y1029081D01*
X743839Y1032736D02*
X737574Y1032736D01*
X718439Y1032736D02*
X712174Y1032736D01*
X715306Y1035868D02*
X715306Y1029603D01*
D10*
X515112Y1038916D02*
X515112Y1046988D01*
X515112Y1038916D02*
X515114Y1038805D01*
X515120Y1038695D01*
X515130Y1038584D01*
X515144Y1038474D01*
X515161Y1038365D01*
X515183Y1038256D01*
X515208Y1038148D01*
X515238Y1038042D01*
X515271Y1037936D01*
X515308Y1037831D01*
X515348Y1037728D01*
X515393Y1037627D01*
X515440Y1037527D01*
X515492Y1037428D01*
X515547Y1037332D01*
X515605Y1037238D01*
X515666Y1037146D01*
X515731Y1037056D01*
X515799Y1036968D01*
X515870Y1036883D01*
X515944Y1036801D01*
X516021Y1036721D01*
X516101Y1036644D01*
X516183Y1036570D01*
X516268Y1036499D01*
X516356Y1036431D01*
X516446Y1036366D01*
X516538Y1036305D01*
X516632Y1036247D01*
X516728Y1036192D01*
X516827Y1036140D01*
X516927Y1036093D01*
X517028Y1036048D01*
X517131Y1036008D01*
X517236Y1035971D01*
X517342Y1035938D01*
X517448Y1035908D01*
X517556Y1035883D01*
X517665Y1035861D01*
X517774Y1035844D01*
X517884Y1035830D01*
X517995Y1035820D01*
X518105Y1035814D01*
X518216Y1035812D01*
X518327Y1035814D01*
X518437Y1035820D01*
X518548Y1035830D01*
X518658Y1035844D01*
X518767Y1035861D01*
X518876Y1035883D01*
X518984Y1035908D01*
X519090Y1035938D01*
X519196Y1035971D01*
X519301Y1036008D01*
X519404Y1036048D01*
X519505Y1036093D01*
X519605Y1036140D01*
X519704Y1036192D01*
X519800Y1036247D01*
X519894Y1036305D01*
X519986Y1036366D01*
X520076Y1036431D01*
X520164Y1036499D01*
X520249Y1036570D01*
X520331Y1036644D01*
X520411Y1036721D01*
X520488Y1036801D01*
X520562Y1036883D01*
X520633Y1036968D01*
X520701Y1037056D01*
X520766Y1037146D01*
X520827Y1037238D01*
X520885Y1037332D01*
X520940Y1037428D01*
X520992Y1037527D01*
X521039Y1037627D01*
X521084Y1037728D01*
X521124Y1037831D01*
X521161Y1037936D01*
X521194Y1038042D01*
X521224Y1038148D01*
X521249Y1038256D01*
X521271Y1038365D01*
X521288Y1038474D01*
X521302Y1038584D01*
X521312Y1038695D01*
X521318Y1038805D01*
X521320Y1038916D01*
X521321Y1038916D02*
X521321Y1046988D01*
X526923Y1044504D02*
X530027Y1046988D01*
X530027Y1035812D01*
X526923Y1035812D02*
X533132Y1035812D01*
D13*
X105100Y533400D02*
X105118Y534872D01*
X105172Y536344D01*
X105263Y537814D01*
X105389Y539281D01*
X105551Y540745D01*
X105749Y542204D01*
X105983Y543658D01*
X106253Y545105D01*
X106558Y546546D01*
X106898Y547979D01*
X107273Y549403D01*
X107684Y550817D01*
X108128Y552221D01*
X108607Y553613D01*
X109120Y554994D01*
X109667Y556361D01*
X110247Y557714D01*
X110861Y559053D01*
X111507Y560377D01*
X112185Y561684D01*
X112895Y562974D01*
X113636Y564246D01*
X114409Y565500D01*
X115212Y566734D01*
X116045Y567948D01*
X116908Y569142D01*
X117799Y570314D01*
X118719Y571464D01*
X119667Y572590D01*
X120643Y573694D01*
X121645Y574772D01*
X122674Y575826D01*
X123728Y576855D01*
X124806Y577857D01*
X125910Y578833D01*
X127036Y579781D01*
X128186Y580701D01*
X129358Y581592D01*
X130552Y582455D01*
X131766Y583288D01*
X133000Y584091D01*
X134254Y584864D01*
X135526Y585605D01*
X136816Y586315D01*
X138123Y586993D01*
X139447Y587639D01*
X140786Y588253D01*
X142139Y588833D01*
X143506Y589380D01*
X144887Y589893D01*
X146279Y590372D01*
X147683Y590816D01*
X149097Y591227D01*
X150521Y591602D01*
X151954Y591942D01*
X153395Y592247D01*
X154842Y592517D01*
X156296Y592751D01*
X157755Y592949D01*
X159219Y593111D01*
X160686Y593237D01*
X162156Y593328D01*
X163628Y593382D01*
X165100Y593400D01*
X166572Y593382D01*
X168044Y593328D01*
X169514Y593237D01*
X170981Y593111D01*
X172445Y592949D01*
X173904Y592751D01*
X175358Y592517D01*
X176805Y592247D01*
X178246Y591942D01*
X179679Y591602D01*
X181103Y591227D01*
X182517Y590816D01*
X183921Y590372D01*
X185313Y589893D01*
X186694Y589380D01*
X188061Y588833D01*
X189414Y588253D01*
X190753Y587639D01*
X192077Y586993D01*
X193384Y586315D01*
X194674Y585605D01*
X195946Y584864D01*
X197200Y584091D01*
X198434Y583288D01*
X199648Y582455D01*
X200842Y581592D01*
X202014Y580701D01*
X203164Y579781D01*
X204290Y578833D01*
X205394Y577857D01*
X206472Y576855D01*
X207526Y575826D01*
X208555Y574772D01*
X209557Y573694D01*
X210533Y572590D01*
X211481Y571464D01*
X212401Y570314D01*
X213292Y569142D01*
X214155Y567948D01*
X214988Y566734D01*
X215791Y565500D01*
X216564Y564246D01*
X217305Y562974D01*
X218015Y561684D01*
X218693Y560377D01*
X219339Y559053D01*
X219953Y557714D01*
X220533Y556361D01*
X221080Y554994D01*
X221593Y553613D01*
X222072Y552221D01*
X222516Y550817D01*
X222927Y549403D01*
X223302Y547979D01*
X223642Y546546D01*
X223947Y545105D01*
X224217Y543658D01*
X224451Y542204D01*
X224649Y540745D01*
X224811Y539281D01*
X224937Y537814D01*
X225028Y536344D01*
X225082Y534872D01*
X225100Y533400D01*
X225082Y531928D01*
X225028Y530456D01*
X224937Y528986D01*
X224811Y527519D01*
X224649Y526055D01*
X224451Y524596D01*
X224217Y523142D01*
X223947Y521695D01*
X223642Y520254D01*
X223302Y518821D01*
X222927Y517397D01*
X222516Y515983D01*
X222072Y514579D01*
X221593Y513187D01*
X221080Y511806D01*
X220533Y510439D01*
X219953Y509086D01*
X219339Y507747D01*
X218693Y506423D01*
X218015Y505116D01*
X217305Y503826D01*
X216564Y502554D01*
X215791Y501300D01*
X214988Y500066D01*
X214155Y498852D01*
X213292Y497658D01*
X212401Y496486D01*
X211481Y495336D01*
X210533Y494210D01*
X209557Y493106D01*
X208555Y492028D01*
X207526Y490974D01*
X206472Y489945D01*
X205394Y488943D01*
X204290Y487967D01*
X203164Y487019D01*
X202014Y486099D01*
X200842Y485208D01*
X199648Y484345D01*
X198434Y483512D01*
X197200Y482709D01*
X195946Y481936D01*
X194674Y481195D01*
X193384Y480485D01*
X192077Y479807D01*
X190753Y479161D01*
X189414Y478547D01*
X188061Y477967D01*
X186694Y477420D01*
X185313Y476907D01*
X183921Y476428D01*
X182517Y475984D01*
X181103Y475573D01*
X179679Y475198D01*
X178246Y474858D01*
X176805Y474553D01*
X175358Y474283D01*
X173904Y474049D01*
X172445Y473851D01*
X170981Y473689D01*
X169514Y473563D01*
X168044Y473472D01*
X166572Y473418D01*
X165100Y473400D01*
X163628Y473418D01*
X162156Y473472D01*
X160686Y473563D01*
X159219Y473689D01*
X157755Y473851D01*
X156296Y474049D01*
X154842Y474283D01*
X153395Y474553D01*
X151954Y474858D01*
X150521Y475198D01*
X149097Y475573D01*
X147683Y475984D01*
X146279Y476428D01*
X144887Y476907D01*
X143506Y477420D01*
X142139Y477967D01*
X140786Y478547D01*
X139447Y479161D01*
X138123Y479807D01*
X136816Y480485D01*
X135526Y481195D01*
X134254Y481936D01*
X133000Y482709D01*
X131766Y483512D01*
X130552Y484345D01*
X129358Y485208D01*
X128186Y486099D01*
X127036Y487019D01*
X125910Y487967D01*
X124806Y488943D01*
X123728Y489945D01*
X122674Y490974D01*
X121645Y492028D01*
X120643Y493106D01*
X119667Y494210D01*
X118719Y495336D01*
X117799Y496486D01*
X116908Y497658D01*
X116045Y498852D01*
X115212Y500066D01*
X114409Y501300D01*
X113636Y502554D01*
X112895Y503826D01*
X112185Y505116D01*
X111507Y506423D01*
X110861Y507747D01*
X110247Y509086D01*
X109667Y510439D01*
X109120Y511806D01*
X108607Y513187D01*
X108128Y514579D01*
X107684Y515983D01*
X107273Y517397D01*
X106898Y518821D01*
X106558Y520254D01*
X106253Y521695D01*
X105983Y523142D01*
X105749Y524596D01*
X105551Y526055D01*
X105389Y527519D01*
X105263Y528986D01*
X105172Y530456D01*
X105118Y531928D01*
X105100Y533400D01*
X153600Y533400D02*
X153603Y533682D01*
X153614Y533964D01*
X153631Y534246D01*
X153655Y534527D01*
X153686Y534808D01*
X153724Y535087D01*
X153769Y535366D01*
X153821Y535644D01*
X153879Y535920D01*
X153945Y536194D01*
X154017Y536467D01*
X154095Y536738D01*
X154180Y537007D01*
X154272Y537274D01*
X154371Y537539D01*
X154475Y537801D01*
X154587Y538060D01*
X154704Y538317D01*
X154828Y538571D01*
X154958Y538821D01*
X155094Y539068D01*
X155236Y539312D01*
X155384Y539552D01*
X155538Y539789D01*
X155698Y540022D01*
X155863Y540251D01*
X156034Y540475D01*
X156210Y540696D01*
X156392Y540911D01*
X156579Y541123D01*
X156771Y541330D01*
X156968Y541532D01*
X157170Y541729D01*
X157377Y541921D01*
X157589Y542108D01*
X157804Y542290D01*
X158025Y542466D01*
X158249Y542637D01*
X158478Y542802D01*
X158711Y542962D01*
X158948Y543116D01*
X159188Y543264D01*
X159432Y543406D01*
X159679Y543542D01*
X159929Y543672D01*
X160183Y543796D01*
X160440Y543913D01*
X160699Y544025D01*
X160961Y544129D01*
X161226Y544228D01*
X161493Y544320D01*
X161762Y544405D01*
X162033Y544483D01*
X162306Y544555D01*
X162580Y544621D01*
X162856Y544679D01*
X163134Y544731D01*
X163413Y544776D01*
X163692Y544814D01*
X163973Y544845D01*
X164254Y544869D01*
X164536Y544886D01*
X164818Y544897D01*
X165100Y544900D01*
X165382Y544897D01*
X165664Y544886D01*
X165946Y544869D01*
X166227Y544845D01*
X166508Y544814D01*
X166787Y544776D01*
X167066Y544731D01*
X167344Y544679D01*
X167620Y544621D01*
X167894Y544555D01*
X168167Y544483D01*
X168438Y544405D01*
X168707Y544320D01*
X168974Y544228D01*
X169239Y544129D01*
X169501Y544025D01*
X169760Y543913D01*
X170017Y543796D01*
X170271Y543672D01*
X170521Y543542D01*
X170768Y543406D01*
X171012Y543264D01*
X171252Y543116D01*
X171489Y542962D01*
X171722Y542802D01*
X171951Y542637D01*
X172175Y542466D01*
X172396Y542290D01*
X172611Y542108D01*
X172823Y541921D01*
X173030Y541729D01*
X173232Y541532D01*
X173429Y541330D01*
X173621Y541123D01*
X173808Y540911D01*
X173990Y540696D01*
X174166Y540475D01*
X174337Y540251D01*
X174502Y540022D01*
X174662Y539789D01*
X174816Y539552D01*
X174964Y539312D01*
X175106Y539068D01*
X175242Y538821D01*
X175372Y538571D01*
X175496Y538317D01*
X175613Y538060D01*
X175725Y537801D01*
X175829Y537539D01*
X175928Y537274D01*
X176020Y537007D01*
X176105Y536738D01*
X176183Y536467D01*
X176255Y536194D01*
X176321Y535920D01*
X176379Y535644D01*
X176431Y535366D01*
X176476Y535087D01*
X176514Y534808D01*
X176545Y534527D01*
X176569Y534246D01*
X176586Y533964D01*
X176597Y533682D01*
X176600Y533400D01*
X176597Y533118D01*
X176586Y532836D01*
X176569Y532554D01*
X176545Y532273D01*
X176514Y531992D01*
X176476Y531713D01*
X176431Y531434D01*
X176379Y531156D01*
X176321Y530880D01*
X176255Y530606D01*
X176183Y530333D01*
X176105Y530062D01*
X176020Y529793D01*
X175928Y529526D01*
X175829Y529261D01*
X175725Y528999D01*
X175613Y528740D01*
X175496Y528483D01*
X175372Y528229D01*
X175242Y527979D01*
X175106Y527732D01*
X174964Y527488D01*
X174816Y527248D01*
X174662Y527011D01*
X174502Y526778D01*
X174337Y526549D01*
X174166Y526325D01*
X173990Y526104D01*
X173808Y525889D01*
X173621Y525677D01*
X173429Y525470D01*
X173232Y525268D01*
X173030Y525071D01*
X172823Y524879D01*
X172611Y524692D01*
X172396Y524510D01*
X172175Y524334D01*
X171951Y524163D01*
X171722Y523998D01*
X171489Y523838D01*
X171252Y523684D01*
X171012Y523536D01*
X170768Y523394D01*
X170521Y523258D01*
X170271Y523128D01*
X170017Y523004D01*
X169760Y522887D01*
X169501Y522775D01*
X169239Y522671D01*
X168974Y522572D01*
X168707Y522480D01*
X168438Y522395D01*
X168167Y522317D01*
X167894Y522245D01*
X167620Y522179D01*
X167344Y522121D01*
X167066Y522069D01*
X166787Y522024D01*
X166508Y521986D01*
X166227Y521955D01*
X165946Y521931D01*
X165664Y521914D01*
X165382Y521903D01*
X165100Y521900D01*
X164818Y521903D01*
X164536Y521914D01*
X164254Y521931D01*
X163973Y521955D01*
X163692Y521986D01*
X163413Y522024D01*
X163134Y522069D01*
X162856Y522121D01*
X162580Y522179D01*
X162306Y522245D01*
X162033Y522317D01*
X161762Y522395D01*
X161493Y522480D01*
X161226Y522572D01*
X160961Y522671D01*
X160699Y522775D01*
X160440Y522887D01*
X160183Y523004D01*
X159929Y523128D01*
X159679Y523258D01*
X159432Y523394D01*
X159188Y523536D01*
X158948Y523684D01*
X158711Y523838D01*
X158478Y523998D01*
X158249Y524163D01*
X158025Y524334D01*
X157804Y524510D01*
X157589Y524692D01*
X157377Y524879D01*
X157170Y525071D01*
X156968Y525268D01*
X156771Y525470D01*
X156579Y525677D01*
X156392Y525889D01*
X156210Y526104D01*
X156034Y526325D01*
X155863Y526549D01*
X155698Y526778D01*
X155538Y527011D01*
X155384Y527248D01*
X155236Y527488D01*
X155094Y527732D01*
X154958Y527979D01*
X154828Y528229D01*
X154704Y528483D01*
X154587Y528740D01*
X154475Y528999D01*
X154371Y529261D01*
X154272Y529526D01*
X154180Y529793D01*
X154095Y530062D01*
X154017Y530333D01*
X153945Y530606D01*
X153879Y530880D01*
X153821Y531156D01*
X153769Y531434D01*
X153724Y531713D01*
X153686Y531992D01*
X153655Y532273D01*
X153631Y532554D01*
X153614Y532836D01*
X153603Y533118D01*
X153600Y533400D01*
D14*
X181803Y563752D02*
X189592Y563752D01*
X185697Y567646D02*
X185697Y559857D01*
X181803Y498752D02*
X189592Y498752D01*
D10*
X152668Y613466D02*
X152668Y621538D01*
X152669Y613466D02*
X152671Y613355D01*
X152677Y613245D01*
X152687Y613134D01*
X152701Y613024D01*
X152718Y612915D01*
X152740Y612806D01*
X152765Y612698D01*
X152795Y612592D01*
X152828Y612486D01*
X152865Y612381D01*
X152905Y612278D01*
X152950Y612177D01*
X152997Y612077D01*
X153049Y611978D01*
X153104Y611882D01*
X153162Y611788D01*
X153223Y611696D01*
X153288Y611606D01*
X153356Y611518D01*
X153427Y611433D01*
X153501Y611351D01*
X153578Y611271D01*
X153658Y611194D01*
X153740Y611120D01*
X153825Y611049D01*
X153913Y610981D01*
X154003Y610916D01*
X154095Y610855D01*
X154189Y610797D01*
X154285Y610742D01*
X154384Y610690D01*
X154484Y610643D01*
X154585Y610598D01*
X154688Y610558D01*
X154793Y610521D01*
X154899Y610488D01*
X155005Y610458D01*
X155113Y610433D01*
X155222Y610411D01*
X155331Y610394D01*
X155441Y610380D01*
X155552Y610370D01*
X155662Y610364D01*
X155773Y610362D01*
X155884Y610364D01*
X155994Y610370D01*
X156105Y610380D01*
X156215Y610394D01*
X156324Y610411D01*
X156433Y610433D01*
X156541Y610458D01*
X156647Y610488D01*
X156753Y610521D01*
X156858Y610558D01*
X156961Y610598D01*
X157062Y610643D01*
X157162Y610690D01*
X157261Y610742D01*
X157357Y610797D01*
X157451Y610855D01*
X157543Y610916D01*
X157633Y610981D01*
X157721Y611049D01*
X157806Y611120D01*
X157888Y611194D01*
X157968Y611271D01*
X158045Y611351D01*
X158119Y611433D01*
X158190Y611518D01*
X158258Y611606D01*
X158323Y611696D01*
X158384Y611788D01*
X158442Y611882D01*
X158497Y611978D01*
X158549Y612077D01*
X158596Y612177D01*
X158641Y612278D01*
X158681Y612381D01*
X158718Y612486D01*
X158751Y612592D01*
X158781Y612698D01*
X158806Y612806D01*
X158828Y612915D01*
X158845Y613024D01*
X158859Y613134D01*
X158869Y613245D01*
X158875Y613355D01*
X158877Y613466D01*
X158877Y621538D01*
X167894Y621538D02*
X167998Y621536D01*
X168103Y621530D01*
X168207Y621520D01*
X168310Y621507D01*
X168413Y621489D01*
X168516Y621468D01*
X168617Y621443D01*
X168718Y621414D01*
X168817Y621381D01*
X168915Y621345D01*
X169011Y621305D01*
X169106Y621261D01*
X169200Y621214D01*
X169291Y621164D01*
X169380Y621110D01*
X169468Y621053D01*
X169553Y620992D01*
X169636Y620928D01*
X169716Y620862D01*
X169794Y620792D01*
X169870Y620720D01*
X169942Y620644D01*
X170012Y620566D01*
X170078Y620486D01*
X170142Y620403D01*
X170203Y620318D01*
X170260Y620230D01*
X170314Y620141D01*
X170364Y620050D01*
X170411Y619956D01*
X170455Y619861D01*
X170495Y619765D01*
X170531Y619667D01*
X170564Y619568D01*
X170593Y619467D01*
X170618Y619366D01*
X170639Y619263D01*
X170657Y619160D01*
X170670Y619057D01*
X170680Y618953D01*
X170686Y618848D01*
X170688Y618744D01*
X167894Y621539D02*
X167775Y621537D01*
X167657Y621531D01*
X167538Y621521D01*
X167420Y621508D01*
X167303Y621490D01*
X167186Y621468D01*
X167070Y621443D01*
X166955Y621414D01*
X166840Y621381D01*
X166727Y621344D01*
X166616Y621304D01*
X166505Y621260D01*
X166397Y621212D01*
X166290Y621161D01*
X166184Y621106D01*
X166081Y621047D01*
X165979Y620986D01*
X165880Y620921D01*
X165782Y620852D01*
X165688Y620781D01*
X165595Y620706D01*
X165505Y620629D01*
X165418Y620548D01*
X165333Y620465D01*
X165251Y620379D01*
X165172Y620290D01*
X165096Y620199D01*
X165023Y620105D01*
X164954Y620009D01*
X164887Y619910D01*
X164824Y619810D01*
X164764Y619707D01*
X164707Y619603D01*
X164655Y619496D01*
X164605Y619388D01*
X164559Y619279D01*
X164517Y619167D01*
X164479Y619055D01*
X169757Y616571D02*
X169832Y616645D01*
X169904Y616722D01*
X169974Y616801D01*
X170041Y616883D01*
X170105Y616967D01*
X170166Y617053D01*
X170224Y617141D01*
X170279Y617232D01*
X170331Y617324D01*
X170379Y617418D01*
X170424Y617513D01*
X170466Y617611D01*
X170504Y617709D01*
X170539Y617809D01*
X170570Y617910D01*
X170597Y618012D01*
X170621Y618115D01*
X170642Y618218D01*
X170658Y618323D01*
X170671Y618428D01*
X170681Y618533D01*
X170686Y618638D01*
X170688Y618744D01*
X169757Y616571D02*
X164479Y610362D01*
X170688Y610362D01*
D15*
X237800Y165900D02*
X237797Y165658D01*
X237788Y165417D01*
X237774Y165176D01*
X237753Y164935D01*
X237727Y164695D01*
X237695Y164455D01*
X237657Y164216D01*
X237614Y163979D01*
X237564Y163742D01*
X237509Y163507D01*
X237449Y163273D01*
X237382Y163041D01*
X237311Y162810D01*
X237233Y162581D01*
X237150Y162354D01*
X237062Y162129D01*
X236968Y161906D01*
X236869Y161686D01*
X236764Y161468D01*
X236655Y161253D01*
X236540Y161040D01*
X236420Y160830D01*
X236295Y160624D01*
X236165Y160420D01*
X236030Y160219D01*
X235890Y160022D01*
X235746Y159828D01*
X235597Y159638D01*
X235443Y159452D01*
X235285Y159269D01*
X235123Y159090D01*
X234956Y158915D01*
X234785Y158744D01*
X234610Y158577D01*
X234431Y158415D01*
X234248Y158257D01*
X234062Y158103D01*
X233872Y157954D01*
X233678Y157810D01*
X233481Y157670D01*
X233280Y157535D01*
X233076Y157405D01*
X232870Y157280D01*
X232660Y157160D01*
X232447Y157045D01*
X232232Y156936D01*
X232014Y156831D01*
X231794Y156732D01*
X231571Y156638D01*
X231346Y156550D01*
X231119Y156467D01*
X230890Y156389D01*
X230659Y156318D01*
X230427Y156251D01*
X230193Y156191D01*
X229958Y156136D01*
X229721Y156086D01*
X229484Y156043D01*
X229245Y156005D01*
X229005Y155973D01*
X228765Y155947D01*
X228524Y155926D01*
X228283Y155912D01*
X228042Y155903D01*
X227800Y155900D01*
X127800Y155900D01*
X127558Y155903D01*
X127317Y155912D01*
X127076Y155926D01*
X126835Y155947D01*
X126595Y155973D01*
X126355Y156005D01*
X126116Y156043D01*
X125879Y156086D01*
X125642Y156136D01*
X125407Y156191D01*
X125173Y156251D01*
X124941Y156318D01*
X124710Y156389D01*
X124481Y156467D01*
X124254Y156550D01*
X124029Y156638D01*
X123806Y156732D01*
X123586Y156831D01*
X123368Y156936D01*
X123153Y157045D01*
X122940Y157160D01*
X122730Y157280D01*
X122524Y157405D01*
X122320Y157535D01*
X122119Y157670D01*
X121922Y157810D01*
X121728Y157954D01*
X121538Y158103D01*
X121352Y158257D01*
X121169Y158415D01*
X120990Y158577D01*
X120815Y158744D01*
X120644Y158915D01*
X120477Y159090D01*
X120315Y159269D01*
X120157Y159452D01*
X120003Y159638D01*
X119854Y159828D01*
X119710Y160022D01*
X119570Y160219D01*
X119435Y160420D01*
X119305Y160624D01*
X119180Y160830D01*
X119060Y161040D01*
X118945Y161253D01*
X118836Y161468D01*
X118731Y161686D01*
X118632Y161906D01*
X118538Y162129D01*
X118450Y162354D01*
X118367Y162581D01*
X118289Y162810D01*
X118218Y163041D01*
X118151Y163273D01*
X118091Y163507D01*
X118036Y163742D01*
X117986Y163979D01*
X117943Y164216D01*
X117905Y164455D01*
X117873Y164695D01*
X117847Y164935D01*
X117826Y165176D01*
X117812Y165417D01*
X117803Y165658D01*
X117800Y165900D01*
X117800Y265900D02*
X117803Y266142D01*
X117812Y266383D01*
X117826Y266624D01*
X117847Y266865D01*
X117873Y267105D01*
X117905Y267345D01*
X117943Y267584D01*
X117986Y267821D01*
X118036Y268058D01*
X118091Y268293D01*
X118151Y268527D01*
X118218Y268759D01*
X118289Y268990D01*
X118367Y269219D01*
X118450Y269446D01*
X118538Y269671D01*
X118632Y269894D01*
X118731Y270114D01*
X118836Y270332D01*
X118945Y270547D01*
X119060Y270760D01*
X119180Y270970D01*
X119305Y271176D01*
X119435Y271380D01*
X119570Y271581D01*
X119710Y271778D01*
X119854Y271972D01*
X120003Y272162D01*
X120157Y272348D01*
X120315Y272531D01*
X120477Y272710D01*
X120644Y272885D01*
X120815Y273056D01*
X120990Y273223D01*
X121169Y273385D01*
X121352Y273543D01*
X121538Y273697D01*
X121728Y273846D01*
X121922Y273990D01*
X122119Y274130D01*
X122320Y274265D01*
X122524Y274395D01*
X122730Y274520D01*
X122940Y274640D01*
X123153Y274755D01*
X123368Y274864D01*
X123586Y274969D01*
X123806Y275068D01*
X124029Y275162D01*
X124254Y275250D01*
X124481Y275333D01*
X124710Y275411D01*
X124941Y275482D01*
X125173Y275549D01*
X125407Y275609D01*
X125642Y275664D01*
X125879Y275714D01*
X126116Y275757D01*
X126355Y275795D01*
X126595Y275827D01*
X126835Y275853D01*
X127076Y275874D01*
X127317Y275888D01*
X127558Y275897D01*
X127800Y275900D01*
X227800Y275900D01*
X228042Y275897D01*
X228283Y275888D01*
X228524Y275874D01*
X228765Y275853D01*
X229005Y275827D01*
X229245Y275795D01*
X229484Y275757D01*
X229721Y275714D01*
X229958Y275664D01*
X230193Y275609D01*
X230427Y275549D01*
X230659Y275482D01*
X230890Y275411D01*
X231119Y275333D01*
X231346Y275250D01*
X231571Y275162D01*
X231794Y275068D01*
X232014Y274969D01*
X232232Y274864D01*
X232447Y274755D01*
X232660Y274640D01*
X232870Y274520D01*
X233076Y274395D01*
X233280Y274265D01*
X233481Y274130D01*
X233678Y273990D01*
X233872Y273846D01*
X234062Y273697D01*
X234248Y273543D01*
X234431Y273385D01*
X234610Y273223D01*
X234785Y273056D01*
X234956Y272885D01*
X235123Y272710D01*
X235285Y272531D01*
X235443Y272348D01*
X235597Y272162D01*
X235746Y271972D01*
X235890Y271778D01*
X236030Y271581D01*
X236165Y271380D01*
X236295Y271176D01*
X236420Y270970D01*
X236540Y270760D01*
X236655Y270547D01*
X236764Y270332D01*
X236869Y270114D01*
X236968Y269894D01*
X237062Y269671D01*
X237150Y269446D01*
X237233Y269219D01*
X237311Y268990D01*
X237382Y268759D01*
X237449Y268527D01*
X237509Y268293D01*
X237564Y268058D01*
X237614Y267821D01*
X237657Y267584D01*
X237695Y267345D01*
X237727Y267105D01*
X237753Y266865D01*
X237774Y266624D01*
X237788Y266383D01*
X237797Y266142D01*
X237800Y265900D01*
X142445Y215900D02*
X142456Y216768D01*
X142488Y217635D01*
X142541Y218501D01*
X142615Y219365D01*
X142711Y220228D01*
X142828Y221088D01*
X142966Y221944D01*
X143124Y222797D01*
X143304Y223646D01*
X143505Y224491D01*
X143726Y225330D01*
X143967Y226163D01*
X144229Y226990D01*
X144512Y227811D01*
X144814Y228624D01*
X145136Y229430D01*
X145478Y230227D01*
X145839Y231016D01*
X146220Y231796D01*
X146620Y232566D01*
X147038Y233326D01*
X147475Y234076D01*
X147930Y234815D01*
X148403Y235542D01*
X148894Y236258D01*
X149403Y236961D01*
X149928Y237652D01*
X150470Y238329D01*
X151029Y238993D01*
X151604Y239643D01*
X152194Y240279D01*
X152800Y240900D01*
X153421Y241506D01*
X154057Y242096D01*
X154707Y242671D01*
X155371Y243230D01*
X156048Y243772D01*
X156739Y244297D01*
X157442Y244806D01*
X158158Y245297D01*
X158885Y245770D01*
X159624Y246225D01*
X160374Y246662D01*
X161134Y247080D01*
X161904Y247480D01*
X162684Y247861D01*
X163473Y248222D01*
X164270Y248564D01*
X165076Y248886D01*
X165889Y249188D01*
X166710Y249471D01*
X167537Y249733D01*
X168370Y249974D01*
X169209Y250195D01*
X170054Y250396D01*
X170903Y250576D01*
X171756Y250734D01*
X172612Y250872D01*
X173472Y250989D01*
X174335Y251085D01*
X175199Y251159D01*
X176065Y251212D01*
X176932Y251244D01*
X177800Y251255D01*
X178668Y251244D01*
X179535Y251212D01*
X180401Y251159D01*
X181265Y251085D01*
X182128Y250989D01*
X182988Y250872D01*
X183844Y250734D01*
X184697Y250576D01*
X185546Y250396D01*
X186391Y250195D01*
X187230Y249974D01*
X188063Y249733D01*
X188890Y249471D01*
X189711Y249188D01*
X190524Y248886D01*
X191330Y248564D01*
X192127Y248222D01*
X192916Y247861D01*
X193696Y247480D01*
X194466Y247080D01*
X195226Y246662D01*
X195976Y246225D01*
X196715Y245770D01*
X197442Y245297D01*
X198158Y244806D01*
X198861Y244297D01*
X199552Y243772D01*
X200229Y243230D01*
X200893Y242671D01*
X201543Y242096D01*
X202179Y241506D01*
X202800Y240900D01*
X203406Y240279D01*
X203996Y239643D01*
X204571Y238993D01*
X205130Y238329D01*
X205672Y237652D01*
X206197Y236961D01*
X206706Y236258D01*
X207197Y235542D01*
X207670Y234815D01*
X208125Y234076D01*
X208562Y233326D01*
X208980Y232566D01*
X209380Y231796D01*
X209761Y231016D01*
X210122Y230227D01*
X210464Y229430D01*
X210786Y228624D01*
X211088Y227811D01*
X211371Y226990D01*
X211633Y226163D01*
X211874Y225330D01*
X212095Y224491D01*
X212296Y223646D01*
X212476Y222797D01*
X212634Y221944D01*
X212772Y221088D01*
X212889Y220228D01*
X212985Y219365D01*
X213059Y218501D01*
X213112Y217635D01*
X213144Y216768D01*
X213155Y215900D01*
X213144Y215032D01*
X213112Y214165D01*
X213059Y213299D01*
X212985Y212435D01*
X212889Y211572D01*
X212772Y210712D01*
X212634Y209856D01*
X212476Y209003D01*
X212296Y208154D01*
X212095Y207309D01*
X211874Y206470D01*
X211633Y205637D01*
X211371Y204810D01*
X211088Y203989D01*
X210786Y203176D01*
X210464Y202370D01*
X210122Y201573D01*
X209761Y200784D01*
X209380Y200004D01*
X208980Y199234D01*
X208562Y198474D01*
X208125Y197724D01*
X207670Y196985D01*
X207197Y196258D01*
X206706Y195542D01*
X206197Y194839D01*
X205672Y194148D01*
X205130Y193471D01*
X204571Y192807D01*
X203996Y192157D01*
X203406Y191521D01*
X202800Y190900D01*
X202179Y190294D01*
X201543Y189704D01*
X200893Y189129D01*
X200229Y188570D01*
X199552Y188028D01*
X198861Y187503D01*
X198158Y186994D01*
X197442Y186503D01*
X196715Y186030D01*
X195976Y185575D01*
X195226Y185138D01*
X194466Y184720D01*
X193696Y184320D01*
X192916Y183939D01*
X192127Y183578D01*
X191330Y183236D01*
X190524Y182914D01*
X189711Y182612D01*
X188890Y182329D01*
X188063Y182067D01*
X187230Y181826D01*
X186391Y181605D01*
X185546Y181404D01*
X184697Y181224D01*
X183844Y181066D01*
X182988Y180928D01*
X182128Y180811D01*
X181265Y180715D01*
X180401Y180641D01*
X179535Y180588D01*
X178668Y180556D01*
X177800Y180545D01*
X176932Y180556D01*
X176065Y180588D01*
X175199Y180641D01*
X174335Y180715D01*
X173472Y180811D01*
X172612Y180928D01*
X171756Y181066D01*
X170903Y181224D01*
X170054Y181404D01*
X169209Y181605D01*
X168370Y181826D01*
X167537Y182067D01*
X166710Y182329D01*
X165889Y182612D01*
X165076Y182914D01*
X164270Y183236D01*
X163473Y183578D01*
X162684Y183939D01*
X161904Y184320D01*
X161134Y184720D01*
X160374Y185138D01*
X159624Y185575D01*
X158885Y186030D01*
X158158Y186503D01*
X157442Y186994D01*
X156739Y187503D01*
X156048Y188028D01*
X155371Y188570D01*
X154707Y189129D01*
X154057Y189704D01*
X153421Y190294D01*
X152800Y190900D01*
X152194Y191521D01*
X151604Y192157D01*
X151029Y192807D01*
X150470Y193471D01*
X149928Y194148D01*
X149403Y194839D01*
X148894Y195542D01*
X148403Y196258D01*
X147930Y196985D01*
X147475Y197724D01*
X147038Y198474D01*
X146620Y199234D01*
X146220Y200004D01*
X145839Y200784D01*
X145478Y201573D01*
X145136Y202370D01*
X144814Y203176D01*
X144512Y203989D01*
X144229Y204810D01*
X143967Y205637D01*
X143726Y206470D01*
X143505Y207309D01*
X143304Y208154D01*
X143124Y209003D01*
X142966Y209856D01*
X142828Y210712D01*
X142711Y211572D01*
X142615Y212435D01*
X142541Y213299D01*
X142488Y214165D01*
X142456Y215032D01*
X142445Y215900D01*
X157800Y235900D02*
X197800Y235900D01*
X197800Y195900D01*
X157800Y195900D01*
X157800Y235900D01*
X117800Y253400D02*
X117800Y265900D01*
X117800Y228400D02*
X117800Y203400D01*
X117800Y178400D02*
X117800Y165900D01*
X237800Y253400D02*
X237800Y265900D01*
X237800Y228400D02*
X237800Y203400D01*
X237800Y178400D02*
X237800Y165900D01*
D10*
X169587Y292862D02*
X169684Y292864D01*
X169782Y292870D01*
X169879Y292879D01*
X169976Y292893D01*
X170072Y292910D01*
X170167Y292931D01*
X170261Y292955D01*
X170355Y292984D01*
X170447Y293016D01*
X170538Y293051D01*
X170627Y293090D01*
X170715Y293133D01*
X170801Y293179D01*
X170885Y293228D01*
X170967Y293281D01*
X171047Y293336D01*
X171125Y293395D01*
X171200Y293457D01*
X171273Y293522D01*
X171343Y293590D01*
X171411Y293660D01*
X171476Y293733D01*
X171538Y293808D01*
X171597Y293886D01*
X171652Y293966D01*
X171705Y294048D01*
X171754Y294132D01*
X171800Y294218D01*
X171843Y294306D01*
X171882Y294395D01*
X171917Y294486D01*
X171949Y294578D01*
X171978Y294672D01*
X172002Y294766D01*
X172023Y294861D01*
X172040Y294957D01*
X172054Y295054D01*
X172063Y295151D01*
X172069Y295248D01*
X172071Y295346D01*
X169587Y292862D02*
X169444Y292864D01*
X169301Y292870D01*
X169159Y292879D01*
X169017Y292893D01*
X168875Y292911D01*
X168734Y292932D01*
X168593Y292957D01*
X168453Y292986D01*
X168314Y293019D01*
X168176Y293055D01*
X168039Y293096D01*
X167903Y293140D01*
X167768Y293187D01*
X167635Y293239D01*
X167503Y293294D01*
X167373Y293352D01*
X167244Y293414D01*
X167117Y293480D01*
X166992Y293549D01*
X166869Y293621D01*
X166748Y293697D01*
X166629Y293775D01*
X166512Y293858D01*
X166397Y293943D01*
X166285Y294031D01*
X166175Y294123D01*
X166068Y294217D01*
X165963Y294314D01*
X165861Y294414D01*
X166172Y301554D02*
X166174Y301652D01*
X166180Y301749D01*
X166189Y301846D01*
X166203Y301943D01*
X166220Y302039D01*
X166241Y302134D01*
X166265Y302228D01*
X166294Y302322D01*
X166326Y302414D01*
X166361Y302505D01*
X166400Y302594D01*
X166443Y302682D01*
X166489Y302768D01*
X166538Y302852D01*
X166591Y302934D01*
X166646Y303014D01*
X166705Y303092D01*
X166767Y303167D01*
X166832Y303240D01*
X166900Y303310D01*
X166970Y303378D01*
X167043Y303443D01*
X167118Y303505D01*
X167196Y303564D01*
X167276Y303619D01*
X167358Y303672D01*
X167442Y303721D01*
X167528Y303767D01*
X167616Y303810D01*
X167705Y303849D01*
X167796Y303884D01*
X167888Y303916D01*
X167982Y303945D01*
X168076Y303969D01*
X168171Y303990D01*
X168267Y304007D01*
X168364Y304021D01*
X168461Y304030D01*
X168558Y304036D01*
X168656Y304038D01*
X168786Y304036D01*
X168916Y304031D01*
X169046Y304022D01*
X169176Y304009D01*
X169305Y303993D01*
X169434Y303973D01*
X169562Y303949D01*
X169690Y303922D01*
X169816Y303891D01*
X169942Y303857D01*
X170067Y303819D01*
X170190Y303778D01*
X170313Y303733D01*
X170434Y303685D01*
X170554Y303634D01*
X170672Y303579D01*
X170788Y303521D01*
X170903Y303460D01*
X171017Y303395D01*
X171128Y303328D01*
X171237Y303257D01*
X171345Y303183D01*
X171450Y303107D01*
X167415Y299381D02*
X167332Y299432D01*
X167251Y299486D01*
X167173Y299543D01*
X167097Y299603D01*
X167023Y299666D01*
X166952Y299732D01*
X166883Y299800D01*
X166817Y299871D01*
X166753Y299944D01*
X166693Y300020D01*
X166636Y300098D01*
X166581Y300179D01*
X166530Y300261D01*
X166482Y300345D01*
X166437Y300431D01*
X166395Y300519D01*
X166357Y300608D01*
X166323Y300698D01*
X166291Y300790D01*
X166264Y300883D01*
X166240Y300977D01*
X166219Y301072D01*
X166203Y301168D01*
X166190Y301264D01*
X166180Y301360D01*
X166175Y301457D01*
X166173Y301554D01*
X170828Y297519D02*
X170911Y297468D01*
X170992Y297414D01*
X171070Y297357D01*
X171146Y297297D01*
X171220Y297234D01*
X171291Y297168D01*
X171360Y297100D01*
X171426Y297029D01*
X171490Y296956D01*
X171550Y296880D01*
X171607Y296802D01*
X171662Y296721D01*
X171713Y296639D01*
X171761Y296555D01*
X171806Y296469D01*
X171848Y296381D01*
X171886Y296292D01*
X171920Y296202D01*
X171952Y296110D01*
X171979Y296017D01*
X172003Y295923D01*
X172024Y295828D01*
X172040Y295732D01*
X172053Y295636D01*
X172063Y295540D01*
X172068Y295443D01*
X172070Y295346D01*
X170829Y297519D02*
X167414Y299381D01*
X176572Y304038D02*
X179056Y292862D01*
X181539Y300313D01*
X184023Y292862D01*
X186507Y304038D01*
X191389Y301554D02*
X194493Y304038D01*
X194493Y292862D01*
X191389Y292862D02*
X197598Y292862D01*
D15*
X1383500Y155900D02*
X1383742Y155903D01*
X1383983Y155912D01*
X1384224Y155926D01*
X1384465Y155947D01*
X1384705Y155973D01*
X1384945Y156005D01*
X1385184Y156043D01*
X1385421Y156086D01*
X1385658Y156136D01*
X1385893Y156191D01*
X1386127Y156251D01*
X1386359Y156318D01*
X1386590Y156389D01*
X1386819Y156467D01*
X1387046Y156550D01*
X1387271Y156638D01*
X1387494Y156732D01*
X1387714Y156831D01*
X1387932Y156936D01*
X1388147Y157045D01*
X1388360Y157160D01*
X1388570Y157280D01*
X1388776Y157405D01*
X1388980Y157535D01*
X1389181Y157670D01*
X1389378Y157810D01*
X1389572Y157954D01*
X1389762Y158103D01*
X1389948Y158257D01*
X1390131Y158415D01*
X1390310Y158577D01*
X1390485Y158744D01*
X1390656Y158915D01*
X1390823Y159090D01*
X1390985Y159269D01*
X1391143Y159452D01*
X1391297Y159638D01*
X1391446Y159828D01*
X1391590Y160022D01*
X1391730Y160219D01*
X1391865Y160420D01*
X1391995Y160624D01*
X1392120Y160830D01*
X1392240Y161040D01*
X1392355Y161253D01*
X1392464Y161468D01*
X1392569Y161686D01*
X1392668Y161906D01*
X1392762Y162129D01*
X1392850Y162354D01*
X1392933Y162581D01*
X1393011Y162810D01*
X1393082Y163041D01*
X1393149Y163273D01*
X1393209Y163507D01*
X1393264Y163742D01*
X1393314Y163979D01*
X1393357Y164216D01*
X1393395Y164455D01*
X1393427Y164695D01*
X1393453Y164935D01*
X1393474Y165176D01*
X1393488Y165417D01*
X1393497Y165658D01*
X1393500Y165900D01*
X1383500Y155900D02*
X1283500Y155900D01*
X1283258Y155903D01*
X1283017Y155912D01*
X1282776Y155926D01*
X1282535Y155947D01*
X1282295Y155973D01*
X1282055Y156005D01*
X1281816Y156043D01*
X1281579Y156086D01*
X1281342Y156136D01*
X1281107Y156191D01*
X1280873Y156251D01*
X1280641Y156318D01*
X1280410Y156389D01*
X1280181Y156467D01*
X1279954Y156550D01*
X1279729Y156638D01*
X1279506Y156732D01*
X1279286Y156831D01*
X1279068Y156936D01*
X1278853Y157045D01*
X1278640Y157160D01*
X1278430Y157280D01*
X1278224Y157405D01*
X1278020Y157535D01*
X1277819Y157670D01*
X1277622Y157810D01*
X1277428Y157954D01*
X1277238Y158103D01*
X1277052Y158257D01*
X1276869Y158415D01*
X1276690Y158577D01*
X1276515Y158744D01*
X1276344Y158915D01*
X1276177Y159090D01*
X1276015Y159269D01*
X1275857Y159452D01*
X1275703Y159638D01*
X1275554Y159828D01*
X1275410Y160022D01*
X1275270Y160219D01*
X1275135Y160420D01*
X1275005Y160624D01*
X1274880Y160830D01*
X1274760Y161040D01*
X1274645Y161253D01*
X1274536Y161468D01*
X1274431Y161686D01*
X1274332Y161906D01*
X1274238Y162129D01*
X1274150Y162354D01*
X1274067Y162581D01*
X1273989Y162810D01*
X1273918Y163041D01*
X1273851Y163273D01*
X1273791Y163507D01*
X1273736Y163742D01*
X1273686Y163979D01*
X1273643Y164216D01*
X1273605Y164455D01*
X1273573Y164695D01*
X1273547Y164935D01*
X1273526Y165176D01*
X1273512Y165417D01*
X1273503Y165658D01*
X1273500Y165900D01*
X1273500Y265900D02*
X1273503Y266142D01*
X1273512Y266383D01*
X1273526Y266624D01*
X1273547Y266865D01*
X1273573Y267105D01*
X1273605Y267345D01*
X1273643Y267584D01*
X1273686Y267821D01*
X1273736Y268058D01*
X1273791Y268293D01*
X1273851Y268527D01*
X1273918Y268759D01*
X1273989Y268990D01*
X1274067Y269219D01*
X1274150Y269446D01*
X1274238Y269671D01*
X1274332Y269894D01*
X1274431Y270114D01*
X1274536Y270332D01*
X1274645Y270547D01*
X1274760Y270760D01*
X1274880Y270970D01*
X1275005Y271176D01*
X1275135Y271380D01*
X1275270Y271581D01*
X1275410Y271778D01*
X1275554Y271972D01*
X1275703Y272162D01*
X1275857Y272348D01*
X1276015Y272531D01*
X1276177Y272710D01*
X1276344Y272885D01*
X1276515Y273056D01*
X1276690Y273223D01*
X1276869Y273385D01*
X1277052Y273543D01*
X1277238Y273697D01*
X1277428Y273846D01*
X1277622Y273990D01*
X1277819Y274130D01*
X1278020Y274265D01*
X1278224Y274395D01*
X1278430Y274520D01*
X1278640Y274640D01*
X1278853Y274755D01*
X1279068Y274864D01*
X1279286Y274969D01*
X1279506Y275068D01*
X1279729Y275162D01*
X1279954Y275250D01*
X1280181Y275333D01*
X1280410Y275411D01*
X1280641Y275482D01*
X1280873Y275549D01*
X1281107Y275609D01*
X1281342Y275664D01*
X1281579Y275714D01*
X1281816Y275757D01*
X1282055Y275795D01*
X1282295Y275827D01*
X1282535Y275853D01*
X1282776Y275874D01*
X1283017Y275888D01*
X1283258Y275897D01*
X1283500Y275900D01*
X1383500Y275900D01*
X1383742Y275897D01*
X1383983Y275888D01*
X1384224Y275874D01*
X1384465Y275853D01*
X1384705Y275827D01*
X1384945Y275795D01*
X1385184Y275757D01*
X1385421Y275714D01*
X1385658Y275664D01*
X1385893Y275609D01*
X1386127Y275549D01*
X1386359Y275482D01*
X1386590Y275411D01*
X1386819Y275333D01*
X1387046Y275250D01*
X1387271Y275162D01*
X1387494Y275068D01*
X1387714Y274969D01*
X1387932Y274864D01*
X1388147Y274755D01*
X1388360Y274640D01*
X1388570Y274520D01*
X1388776Y274395D01*
X1388980Y274265D01*
X1389181Y274130D01*
X1389378Y273990D01*
X1389572Y273846D01*
X1389762Y273697D01*
X1389948Y273543D01*
X1390131Y273385D01*
X1390310Y273223D01*
X1390485Y273056D01*
X1390656Y272885D01*
X1390823Y272710D01*
X1390985Y272531D01*
X1391143Y272348D01*
X1391297Y272162D01*
X1391446Y271972D01*
X1391590Y271778D01*
X1391730Y271581D01*
X1391865Y271380D01*
X1391995Y271176D01*
X1392120Y270970D01*
X1392240Y270760D01*
X1392355Y270547D01*
X1392464Y270332D01*
X1392569Y270114D01*
X1392668Y269894D01*
X1392762Y269671D01*
X1392850Y269446D01*
X1392933Y269219D01*
X1393011Y268990D01*
X1393082Y268759D01*
X1393149Y268527D01*
X1393209Y268293D01*
X1393264Y268058D01*
X1393314Y267821D01*
X1393357Y267584D01*
X1393395Y267345D01*
X1393427Y267105D01*
X1393453Y266865D01*
X1393474Y266624D01*
X1393488Y266383D01*
X1393497Y266142D01*
X1393500Y265900D01*
X1298145Y215900D02*
X1298156Y216768D01*
X1298188Y217635D01*
X1298241Y218501D01*
X1298315Y219365D01*
X1298411Y220228D01*
X1298528Y221088D01*
X1298666Y221944D01*
X1298824Y222797D01*
X1299004Y223646D01*
X1299205Y224491D01*
X1299426Y225330D01*
X1299667Y226163D01*
X1299929Y226990D01*
X1300212Y227811D01*
X1300514Y228624D01*
X1300836Y229430D01*
X1301178Y230227D01*
X1301539Y231016D01*
X1301920Y231796D01*
X1302320Y232566D01*
X1302738Y233326D01*
X1303175Y234076D01*
X1303630Y234815D01*
X1304103Y235542D01*
X1304594Y236258D01*
X1305103Y236961D01*
X1305628Y237652D01*
X1306170Y238329D01*
X1306729Y238993D01*
X1307304Y239643D01*
X1307894Y240279D01*
X1308500Y240900D01*
X1309121Y241506D01*
X1309757Y242096D01*
X1310407Y242671D01*
X1311071Y243230D01*
X1311748Y243772D01*
X1312439Y244297D01*
X1313142Y244806D01*
X1313858Y245297D01*
X1314585Y245770D01*
X1315324Y246225D01*
X1316074Y246662D01*
X1316834Y247080D01*
X1317604Y247480D01*
X1318384Y247861D01*
X1319173Y248222D01*
X1319970Y248564D01*
X1320776Y248886D01*
X1321589Y249188D01*
X1322410Y249471D01*
X1323237Y249733D01*
X1324070Y249974D01*
X1324909Y250195D01*
X1325754Y250396D01*
X1326603Y250576D01*
X1327456Y250734D01*
X1328312Y250872D01*
X1329172Y250989D01*
X1330035Y251085D01*
X1330899Y251159D01*
X1331765Y251212D01*
X1332632Y251244D01*
X1333500Y251255D01*
X1334368Y251244D01*
X1335235Y251212D01*
X1336101Y251159D01*
X1336965Y251085D01*
X1337828Y250989D01*
X1338688Y250872D01*
X1339544Y250734D01*
X1340397Y250576D01*
X1341246Y250396D01*
X1342091Y250195D01*
X1342930Y249974D01*
X1343763Y249733D01*
X1344590Y249471D01*
X1345411Y249188D01*
X1346224Y248886D01*
X1347030Y248564D01*
X1347827Y248222D01*
X1348616Y247861D01*
X1349396Y247480D01*
X1350166Y247080D01*
X1350926Y246662D01*
X1351676Y246225D01*
X1352415Y245770D01*
X1353142Y245297D01*
X1353858Y244806D01*
X1354561Y244297D01*
X1355252Y243772D01*
X1355929Y243230D01*
X1356593Y242671D01*
X1357243Y242096D01*
X1357879Y241506D01*
X1358500Y240900D01*
X1359106Y240279D01*
X1359696Y239643D01*
X1360271Y238993D01*
X1360830Y238329D01*
X1361372Y237652D01*
X1361897Y236961D01*
X1362406Y236258D01*
X1362897Y235542D01*
X1363370Y234815D01*
X1363825Y234076D01*
X1364262Y233326D01*
X1364680Y232566D01*
X1365080Y231796D01*
X1365461Y231016D01*
X1365822Y230227D01*
X1366164Y229430D01*
X1366486Y228624D01*
X1366788Y227811D01*
X1367071Y226990D01*
X1367333Y226163D01*
X1367574Y225330D01*
X1367795Y224491D01*
X1367996Y223646D01*
X1368176Y222797D01*
X1368334Y221944D01*
X1368472Y221088D01*
X1368589Y220228D01*
X1368685Y219365D01*
X1368759Y218501D01*
X1368812Y217635D01*
X1368844Y216768D01*
X1368855Y215900D01*
X1368844Y215032D01*
X1368812Y214165D01*
X1368759Y213299D01*
X1368685Y212435D01*
X1368589Y211572D01*
X1368472Y210712D01*
X1368334Y209856D01*
X1368176Y209003D01*
X1367996Y208154D01*
X1367795Y207309D01*
X1367574Y206470D01*
X1367333Y205637D01*
X1367071Y204810D01*
X1366788Y203989D01*
X1366486Y203176D01*
X1366164Y202370D01*
X1365822Y201573D01*
X1365461Y200784D01*
X1365080Y200004D01*
X1364680Y199234D01*
X1364262Y198474D01*
X1363825Y197724D01*
X1363370Y196985D01*
X1362897Y196258D01*
X1362406Y195542D01*
X1361897Y194839D01*
X1361372Y194148D01*
X1360830Y193471D01*
X1360271Y192807D01*
X1359696Y192157D01*
X1359106Y191521D01*
X1358500Y190900D01*
X1357879Y190294D01*
X1357243Y189704D01*
X1356593Y189129D01*
X1355929Y188570D01*
X1355252Y188028D01*
X1354561Y187503D01*
X1353858Y186994D01*
X1353142Y186503D01*
X1352415Y186030D01*
X1351676Y185575D01*
X1350926Y185138D01*
X1350166Y184720D01*
X1349396Y184320D01*
X1348616Y183939D01*
X1347827Y183578D01*
X1347030Y183236D01*
X1346224Y182914D01*
X1345411Y182612D01*
X1344590Y182329D01*
X1343763Y182067D01*
X1342930Y181826D01*
X1342091Y181605D01*
X1341246Y181404D01*
X1340397Y181224D01*
X1339544Y181066D01*
X1338688Y180928D01*
X1337828Y180811D01*
X1336965Y180715D01*
X1336101Y180641D01*
X1335235Y180588D01*
X1334368Y180556D01*
X1333500Y180545D01*
X1332632Y180556D01*
X1331765Y180588D01*
X1330899Y180641D01*
X1330035Y180715D01*
X1329172Y180811D01*
X1328312Y180928D01*
X1327456Y181066D01*
X1326603Y181224D01*
X1325754Y181404D01*
X1324909Y181605D01*
X1324070Y181826D01*
X1323237Y182067D01*
X1322410Y182329D01*
X1321589Y182612D01*
X1320776Y182914D01*
X1319970Y183236D01*
X1319173Y183578D01*
X1318384Y183939D01*
X1317604Y184320D01*
X1316834Y184720D01*
X1316074Y185138D01*
X1315324Y185575D01*
X1314585Y186030D01*
X1313858Y186503D01*
X1313142Y186994D01*
X1312439Y187503D01*
X1311748Y188028D01*
X1311071Y188570D01*
X1310407Y189129D01*
X1309757Y189704D01*
X1309121Y190294D01*
X1308500Y190900D01*
X1307894Y191521D01*
X1307304Y192157D01*
X1306729Y192807D01*
X1306170Y193471D01*
X1305628Y194148D01*
X1305103Y194839D01*
X1304594Y195542D01*
X1304103Y196258D01*
X1303630Y196985D01*
X1303175Y197724D01*
X1302738Y198474D01*
X1302320Y199234D01*
X1301920Y200004D01*
X1301539Y200784D01*
X1301178Y201573D01*
X1300836Y202370D01*
X1300514Y203176D01*
X1300212Y203989D01*
X1299929Y204810D01*
X1299667Y205637D01*
X1299426Y206470D01*
X1299205Y207309D01*
X1299004Y208154D01*
X1298824Y209003D01*
X1298666Y209856D01*
X1298528Y210712D01*
X1298411Y211572D01*
X1298315Y212435D01*
X1298241Y213299D01*
X1298188Y214165D01*
X1298156Y215032D01*
X1298145Y215900D01*
X1313500Y235900D02*
X1353500Y235900D01*
X1353500Y195900D01*
X1313500Y195900D01*
X1313500Y235900D01*
X1273500Y253400D02*
X1273500Y265900D01*
X1273500Y228400D02*
X1273500Y203400D01*
X1273500Y178400D02*
X1273500Y165900D01*
X1393500Y253400D02*
X1393500Y265900D01*
X1393500Y228400D02*
X1393500Y203400D01*
X1393500Y178400D02*
X1393500Y165900D01*
D10*
X1325287Y286512D02*
X1325384Y286514D01*
X1325482Y286520D01*
X1325579Y286529D01*
X1325676Y286543D01*
X1325772Y286560D01*
X1325867Y286581D01*
X1325961Y286605D01*
X1326055Y286634D01*
X1326147Y286666D01*
X1326238Y286701D01*
X1326327Y286740D01*
X1326415Y286783D01*
X1326501Y286829D01*
X1326585Y286878D01*
X1326667Y286931D01*
X1326747Y286986D01*
X1326825Y287045D01*
X1326900Y287107D01*
X1326973Y287172D01*
X1327043Y287240D01*
X1327111Y287310D01*
X1327176Y287383D01*
X1327238Y287458D01*
X1327297Y287536D01*
X1327352Y287616D01*
X1327405Y287698D01*
X1327454Y287782D01*
X1327500Y287868D01*
X1327543Y287956D01*
X1327582Y288045D01*
X1327617Y288136D01*
X1327649Y288228D01*
X1327678Y288322D01*
X1327702Y288416D01*
X1327723Y288511D01*
X1327740Y288607D01*
X1327754Y288704D01*
X1327763Y288801D01*
X1327769Y288898D01*
X1327771Y288996D01*
X1325287Y286512D02*
X1325144Y286514D01*
X1325001Y286520D01*
X1324859Y286529D01*
X1324717Y286543D01*
X1324575Y286561D01*
X1324434Y286582D01*
X1324293Y286607D01*
X1324153Y286636D01*
X1324014Y286669D01*
X1323876Y286705D01*
X1323739Y286746D01*
X1323603Y286790D01*
X1323468Y286837D01*
X1323335Y286889D01*
X1323203Y286944D01*
X1323073Y287002D01*
X1322944Y287064D01*
X1322817Y287130D01*
X1322692Y287199D01*
X1322569Y287271D01*
X1322448Y287347D01*
X1322329Y287425D01*
X1322212Y287508D01*
X1322097Y287593D01*
X1321985Y287681D01*
X1321875Y287773D01*
X1321768Y287867D01*
X1321663Y287964D01*
X1321561Y288064D01*
X1321872Y295204D02*
X1321874Y295302D01*
X1321880Y295399D01*
X1321889Y295496D01*
X1321903Y295593D01*
X1321920Y295689D01*
X1321941Y295784D01*
X1321965Y295878D01*
X1321994Y295972D01*
X1322026Y296064D01*
X1322061Y296155D01*
X1322100Y296244D01*
X1322143Y296332D01*
X1322189Y296418D01*
X1322238Y296502D01*
X1322291Y296584D01*
X1322346Y296664D01*
X1322405Y296742D01*
X1322467Y296817D01*
X1322532Y296890D01*
X1322600Y296960D01*
X1322670Y297028D01*
X1322743Y297093D01*
X1322818Y297155D01*
X1322896Y297214D01*
X1322976Y297269D01*
X1323058Y297322D01*
X1323142Y297371D01*
X1323228Y297417D01*
X1323316Y297460D01*
X1323405Y297499D01*
X1323496Y297534D01*
X1323588Y297566D01*
X1323682Y297595D01*
X1323776Y297619D01*
X1323871Y297640D01*
X1323967Y297657D01*
X1324064Y297671D01*
X1324161Y297680D01*
X1324258Y297686D01*
X1324356Y297688D01*
X1324486Y297686D01*
X1324616Y297681D01*
X1324746Y297672D01*
X1324876Y297659D01*
X1325005Y297643D01*
X1325134Y297623D01*
X1325262Y297599D01*
X1325390Y297572D01*
X1325516Y297541D01*
X1325642Y297507D01*
X1325767Y297469D01*
X1325890Y297428D01*
X1326013Y297383D01*
X1326134Y297335D01*
X1326254Y297284D01*
X1326372Y297229D01*
X1326488Y297171D01*
X1326603Y297110D01*
X1326717Y297045D01*
X1326828Y296978D01*
X1326937Y296907D01*
X1327045Y296833D01*
X1327150Y296757D01*
X1323115Y293031D02*
X1323032Y293082D01*
X1322951Y293136D01*
X1322873Y293193D01*
X1322797Y293253D01*
X1322723Y293316D01*
X1322652Y293382D01*
X1322583Y293450D01*
X1322517Y293521D01*
X1322453Y293594D01*
X1322393Y293670D01*
X1322336Y293748D01*
X1322281Y293829D01*
X1322230Y293911D01*
X1322182Y293995D01*
X1322137Y294081D01*
X1322095Y294169D01*
X1322057Y294258D01*
X1322023Y294348D01*
X1321991Y294440D01*
X1321964Y294533D01*
X1321940Y294627D01*
X1321919Y294722D01*
X1321903Y294818D01*
X1321890Y294914D01*
X1321880Y295010D01*
X1321875Y295107D01*
X1321873Y295204D01*
X1326528Y291169D02*
X1326611Y291118D01*
X1326692Y291064D01*
X1326770Y291007D01*
X1326846Y290947D01*
X1326920Y290884D01*
X1326991Y290818D01*
X1327060Y290750D01*
X1327126Y290679D01*
X1327190Y290606D01*
X1327250Y290530D01*
X1327307Y290452D01*
X1327362Y290371D01*
X1327413Y290289D01*
X1327461Y290205D01*
X1327506Y290119D01*
X1327548Y290031D01*
X1327586Y289942D01*
X1327620Y289852D01*
X1327652Y289760D01*
X1327679Y289667D01*
X1327703Y289573D01*
X1327724Y289478D01*
X1327740Y289382D01*
X1327753Y289286D01*
X1327763Y289190D01*
X1327768Y289093D01*
X1327770Y288996D01*
X1326529Y291169D02*
X1323114Y293031D01*
X1332272Y297688D02*
X1334756Y286512D01*
X1337239Y293963D01*
X1339723Y286512D01*
X1342207Y297688D01*
X1350504Y297688D02*
X1350608Y297686D01*
X1350713Y297680D01*
X1350817Y297670D01*
X1350920Y297657D01*
X1351023Y297639D01*
X1351126Y297618D01*
X1351227Y297593D01*
X1351328Y297564D01*
X1351427Y297531D01*
X1351525Y297495D01*
X1351621Y297455D01*
X1351716Y297411D01*
X1351810Y297364D01*
X1351901Y297314D01*
X1351990Y297260D01*
X1352078Y297203D01*
X1352163Y297142D01*
X1352246Y297078D01*
X1352326Y297012D01*
X1352404Y296942D01*
X1352480Y296870D01*
X1352552Y296794D01*
X1352622Y296716D01*
X1352688Y296636D01*
X1352752Y296553D01*
X1352813Y296468D01*
X1352870Y296380D01*
X1352924Y296291D01*
X1352974Y296200D01*
X1353021Y296106D01*
X1353065Y296011D01*
X1353105Y295915D01*
X1353141Y295817D01*
X1353174Y295718D01*
X1353203Y295617D01*
X1353228Y295516D01*
X1353249Y295413D01*
X1353267Y295310D01*
X1353280Y295207D01*
X1353290Y295103D01*
X1353296Y294998D01*
X1353298Y294894D01*
X1350504Y297689D02*
X1350385Y297687D01*
X1350267Y297681D01*
X1350148Y297671D01*
X1350030Y297658D01*
X1349913Y297640D01*
X1349796Y297618D01*
X1349680Y297593D01*
X1349565Y297564D01*
X1349450Y297531D01*
X1349337Y297494D01*
X1349226Y297454D01*
X1349115Y297410D01*
X1349007Y297362D01*
X1348900Y297311D01*
X1348794Y297256D01*
X1348691Y297197D01*
X1348589Y297136D01*
X1348490Y297071D01*
X1348392Y297002D01*
X1348298Y296931D01*
X1348205Y296856D01*
X1348115Y296779D01*
X1348028Y296698D01*
X1347943Y296615D01*
X1347861Y296529D01*
X1347782Y296440D01*
X1347706Y296349D01*
X1347633Y296255D01*
X1347564Y296159D01*
X1347497Y296060D01*
X1347434Y295960D01*
X1347374Y295857D01*
X1347317Y295753D01*
X1347265Y295646D01*
X1347215Y295538D01*
X1347169Y295429D01*
X1347127Y295317D01*
X1347089Y295205D01*
X1352367Y292721D02*
X1352442Y292795D01*
X1352514Y292872D01*
X1352584Y292951D01*
X1352651Y293033D01*
X1352715Y293117D01*
X1352776Y293203D01*
X1352834Y293291D01*
X1352889Y293382D01*
X1352941Y293474D01*
X1352989Y293568D01*
X1353034Y293663D01*
X1353076Y293761D01*
X1353114Y293859D01*
X1353149Y293959D01*
X1353180Y294060D01*
X1353207Y294162D01*
X1353231Y294265D01*
X1353252Y294368D01*
X1353268Y294473D01*
X1353281Y294578D01*
X1353291Y294683D01*
X1353296Y294788D01*
X1353298Y294894D01*
X1352367Y292721D02*
X1347089Y286512D01*
X1353298Y286512D01*
D13*
X792480Y965200D02*
X782320Y965200D01*
D10*
X813562Y965962D02*
X813562Y977138D01*
X816666Y977138D01*
X816777Y977136D01*
X816887Y977130D01*
X816998Y977120D01*
X817108Y977106D01*
X817217Y977089D01*
X817326Y977067D01*
X817434Y977042D01*
X817540Y977012D01*
X817646Y976979D01*
X817751Y976942D01*
X817854Y976902D01*
X817955Y976857D01*
X818055Y976810D01*
X818154Y976758D01*
X818250Y976703D01*
X818344Y976645D01*
X818436Y976584D01*
X818526Y976519D01*
X818614Y976451D01*
X818699Y976380D01*
X818781Y976306D01*
X818861Y976229D01*
X818938Y976149D01*
X819012Y976067D01*
X819083Y975982D01*
X819151Y975894D01*
X819216Y975804D01*
X819277Y975712D01*
X819335Y975618D01*
X819390Y975522D01*
X819442Y975423D01*
X819489Y975323D01*
X819534Y975222D01*
X819574Y975119D01*
X819611Y975014D01*
X819644Y974908D01*
X819674Y974802D01*
X819699Y974694D01*
X819721Y974585D01*
X819738Y974476D01*
X819752Y974366D01*
X819762Y974255D01*
X819768Y974145D01*
X819770Y974034D01*
X819768Y973923D01*
X819762Y973813D01*
X819752Y973702D01*
X819738Y973592D01*
X819721Y973483D01*
X819699Y973374D01*
X819674Y973266D01*
X819644Y973160D01*
X819611Y973054D01*
X819574Y972949D01*
X819534Y972846D01*
X819489Y972745D01*
X819442Y972645D01*
X819390Y972546D01*
X819335Y972450D01*
X819277Y972356D01*
X819216Y972264D01*
X819151Y972174D01*
X819083Y972086D01*
X819012Y972001D01*
X818938Y971919D01*
X818861Y971839D01*
X818781Y971762D01*
X818699Y971688D01*
X818614Y971617D01*
X818526Y971549D01*
X818436Y971484D01*
X818344Y971423D01*
X818250Y971365D01*
X818154Y971310D01*
X818055Y971258D01*
X817955Y971211D01*
X817854Y971166D01*
X817751Y971126D01*
X817646Y971089D01*
X817540Y971056D01*
X817434Y971026D01*
X817326Y971001D01*
X817217Y970979D01*
X817108Y970962D01*
X816998Y970948D01*
X816887Y970938D01*
X816777Y970932D01*
X816666Y970930D01*
X816666Y970929D02*
X813562Y970929D01*
X817287Y970929D02*
X819771Y965962D01*
X824900Y974654D02*
X828004Y977138D01*
X828004Y965962D01*
X824900Y965962D02*
X831109Y965962D01*
D13*
X763270Y965200D02*
X753110Y965200D01*
D10*
X718312Y962152D02*
X718312Y973328D01*
X721416Y973328D01*
X721527Y973326D01*
X721637Y973320D01*
X721748Y973310D01*
X721858Y973296D01*
X721967Y973279D01*
X722076Y973257D01*
X722184Y973232D01*
X722290Y973202D01*
X722396Y973169D01*
X722501Y973132D01*
X722604Y973092D01*
X722705Y973047D01*
X722805Y973000D01*
X722904Y972948D01*
X723000Y972893D01*
X723094Y972835D01*
X723186Y972774D01*
X723276Y972709D01*
X723364Y972641D01*
X723449Y972570D01*
X723531Y972496D01*
X723611Y972419D01*
X723688Y972339D01*
X723762Y972257D01*
X723833Y972172D01*
X723901Y972084D01*
X723966Y971994D01*
X724027Y971902D01*
X724085Y971808D01*
X724140Y971712D01*
X724192Y971613D01*
X724239Y971513D01*
X724284Y971412D01*
X724324Y971309D01*
X724361Y971204D01*
X724394Y971098D01*
X724424Y970992D01*
X724449Y970884D01*
X724471Y970775D01*
X724488Y970666D01*
X724502Y970556D01*
X724512Y970445D01*
X724518Y970335D01*
X724520Y970224D01*
X724518Y970113D01*
X724512Y970003D01*
X724502Y969892D01*
X724488Y969782D01*
X724471Y969673D01*
X724449Y969564D01*
X724424Y969456D01*
X724394Y969350D01*
X724361Y969244D01*
X724324Y969139D01*
X724284Y969036D01*
X724239Y968935D01*
X724192Y968835D01*
X724140Y968736D01*
X724085Y968640D01*
X724027Y968546D01*
X723966Y968454D01*
X723901Y968364D01*
X723833Y968276D01*
X723762Y968191D01*
X723688Y968109D01*
X723611Y968029D01*
X723531Y967952D01*
X723449Y967878D01*
X723364Y967807D01*
X723276Y967739D01*
X723186Y967674D01*
X723094Y967613D01*
X723000Y967555D01*
X722904Y967500D01*
X722805Y967448D01*
X722705Y967401D01*
X722604Y967356D01*
X722501Y967316D01*
X722396Y967279D01*
X722290Y967246D01*
X722184Y967216D01*
X722076Y967191D01*
X721967Y967169D01*
X721858Y967152D01*
X721748Y967138D01*
X721637Y967128D01*
X721527Y967122D01*
X721416Y967120D01*
X721416Y967119D02*
X718312Y967119D01*
X722037Y967119D02*
X724521Y962152D01*
X733065Y973328D02*
X733169Y973326D01*
X733274Y973320D01*
X733378Y973310D01*
X733481Y973297D01*
X733584Y973279D01*
X733687Y973258D01*
X733788Y973233D01*
X733889Y973204D01*
X733988Y973171D01*
X734086Y973135D01*
X734182Y973095D01*
X734277Y973051D01*
X734371Y973004D01*
X734462Y972954D01*
X734551Y972900D01*
X734639Y972843D01*
X734724Y972782D01*
X734807Y972718D01*
X734887Y972652D01*
X734965Y972582D01*
X735041Y972510D01*
X735113Y972434D01*
X735183Y972356D01*
X735249Y972276D01*
X735313Y972193D01*
X735374Y972108D01*
X735431Y972020D01*
X735485Y971931D01*
X735535Y971840D01*
X735582Y971746D01*
X735626Y971651D01*
X735666Y971555D01*
X735702Y971457D01*
X735735Y971358D01*
X735764Y971257D01*
X735789Y971156D01*
X735810Y971053D01*
X735828Y970950D01*
X735841Y970847D01*
X735851Y970743D01*
X735857Y970638D01*
X735859Y970534D01*
X733065Y973329D02*
X732946Y973327D01*
X732828Y973321D01*
X732709Y973311D01*
X732591Y973298D01*
X732474Y973280D01*
X732357Y973258D01*
X732241Y973233D01*
X732126Y973204D01*
X732011Y973171D01*
X731898Y973134D01*
X731787Y973094D01*
X731676Y973050D01*
X731568Y973002D01*
X731461Y972951D01*
X731355Y972896D01*
X731252Y972837D01*
X731150Y972776D01*
X731051Y972711D01*
X730953Y972642D01*
X730859Y972571D01*
X730766Y972496D01*
X730676Y972419D01*
X730589Y972338D01*
X730504Y972255D01*
X730422Y972169D01*
X730343Y972080D01*
X730267Y971989D01*
X730194Y971895D01*
X730125Y971799D01*
X730058Y971700D01*
X729995Y971600D01*
X729935Y971497D01*
X729878Y971393D01*
X729826Y971286D01*
X729776Y971178D01*
X729730Y971069D01*
X729688Y970957D01*
X729650Y970845D01*
X734928Y968361D02*
X735003Y968435D01*
X735075Y968512D01*
X735145Y968591D01*
X735212Y968673D01*
X735276Y968757D01*
X735337Y968843D01*
X735395Y968931D01*
X735450Y969022D01*
X735502Y969114D01*
X735550Y969208D01*
X735595Y969303D01*
X735637Y969401D01*
X735675Y969499D01*
X735710Y969599D01*
X735741Y969700D01*
X735768Y969802D01*
X735792Y969905D01*
X735813Y970008D01*
X735829Y970113D01*
X735842Y970218D01*
X735852Y970323D01*
X735857Y970428D01*
X735859Y970534D01*
X734928Y968361D02*
X729650Y962152D01*
X735859Y962152D01*
D13*
X69850Y278130D02*
X69850Y267970D01*
D10*
X51541Y292862D02*
X51541Y304038D01*
X54646Y304038D01*
X54757Y304036D01*
X54867Y304030D01*
X54978Y304020D01*
X55088Y304006D01*
X55197Y303989D01*
X55306Y303967D01*
X55414Y303942D01*
X55520Y303912D01*
X55626Y303879D01*
X55731Y303842D01*
X55834Y303802D01*
X55935Y303757D01*
X56035Y303710D01*
X56134Y303658D01*
X56230Y303603D01*
X56324Y303545D01*
X56416Y303484D01*
X56506Y303419D01*
X56594Y303351D01*
X56679Y303280D01*
X56761Y303206D01*
X56841Y303129D01*
X56918Y303049D01*
X56992Y302967D01*
X57063Y302882D01*
X57131Y302794D01*
X57196Y302704D01*
X57257Y302612D01*
X57315Y302518D01*
X57370Y302422D01*
X57422Y302323D01*
X57469Y302223D01*
X57514Y302122D01*
X57554Y302019D01*
X57591Y301914D01*
X57624Y301808D01*
X57654Y301702D01*
X57679Y301594D01*
X57701Y301485D01*
X57718Y301376D01*
X57732Y301266D01*
X57742Y301155D01*
X57748Y301045D01*
X57750Y300934D01*
X57748Y300823D01*
X57742Y300713D01*
X57732Y300602D01*
X57718Y300492D01*
X57701Y300383D01*
X57679Y300274D01*
X57654Y300166D01*
X57624Y300060D01*
X57591Y299954D01*
X57554Y299849D01*
X57514Y299746D01*
X57469Y299645D01*
X57422Y299545D01*
X57370Y299446D01*
X57315Y299350D01*
X57257Y299256D01*
X57196Y299164D01*
X57131Y299074D01*
X57063Y298986D01*
X56992Y298901D01*
X56918Y298819D01*
X56841Y298739D01*
X56761Y298662D01*
X56679Y298588D01*
X56594Y298517D01*
X56506Y298449D01*
X56416Y298384D01*
X56324Y298323D01*
X56230Y298265D01*
X56134Y298210D01*
X56035Y298158D01*
X55935Y298111D01*
X55834Y298066D01*
X55731Y298026D01*
X55626Y297989D01*
X55520Y297956D01*
X55414Y297926D01*
X55306Y297901D01*
X55197Y297879D01*
X55088Y297862D01*
X54978Y297848D01*
X54867Y297838D01*
X54757Y297832D01*
X54646Y297830D01*
X54646Y297829D02*
X51541Y297829D01*
X55266Y297829D02*
X57750Y292862D01*
X62879Y292862D02*
X65984Y292862D01*
X66095Y292864D01*
X66205Y292870D01*
X66316Y292880D01*
X66426Y292894D01*
X66535Y292911D01*
X66644Y292933D01*
X66752Y292958D01*
X66858Y292988D01*
X66964Y293021D01*
X67069Y293058D01*
X67172Y293098D01*
X67273Y293143D01*
X67373Y293190D01*
X67472Y293242D01*
X67568Y293297D01*
X67662Y293355D01*
X67754Y293416D01*
X67844Y293481D01*
X67932Y293549D01*
X68017Y293620D01*
X68099Y293694D01*
X68179Y293771D01*
X68256Y293851D01*
X68330Y293933D01*
X68401Y294018D01*
X68469Y294106D01*
X68534Y294196D01*
X68595Y294288D01*
X68653Y294382D01*
X68708Y294478D01*
X68760Y294577D01*
X68807Y294677D01*
X68852Y294778D01*
X68892Y294881D01*
X68929Y294986D01*
X68962Y295092D01*
X68992Y295198D01*
X69017Y295306D01*
X69039Y295415D01*
X69056Y295524D01*
X69070Y295634D01*
X69080Y295745D01*
X69086Y295855D01*
X69088Y295966D01*
X69086Y296077D01*
X69080Y296187D01*
X69070Y296298D01*
X69056Y296408D01*
X69039Y296517D01*
X69017Y296626D01*
X68992Y296734D01*
X68962Y296840D01*
X68929Y296946D01*
X68892Y297051D01*
X68852Y297154D01*
X68807Y297255D01*
X68760Y297355D01*
X68708Y297454D01*
X68653Y297550D01*
X68595Y297644D01*
X68534Y297736D01*
X68469Y297826D01*
X68401Y297914D01*
X68330Y297999D01*
X68256Y298081D01*
X68179Y298161D01*
X68099Y298238D01*
X68017Y298312D01*
X67932Y298383D01*
X67844Y298451D01*
X67754Y298516D01*
X67662Y298577D01*
X67568Y298635D01*
X67472Y298690D01*
X67373Y298742D01*
X67273Y298789D01*
X67172Y298834D01*
X67069Y298874D01*
X66964Y298911D01*
X66858Y298944D01*
X66752Y298974D01*
X66644Y298999D01*
X66535Y299021D01*
X66426Y299038D01*
X66316Y299052D01*
X66205Y299062D01*
X66095Y299068D01*
X65984Y299070D01*
X66604Y304038D02*
X62879Y304038D01*
X66604Y304038D02*
X66703Y304036D01*
X66801Y304030D01*
X66900Y304020D01*
X66997Y304007D01*
X67095Y303989D01*
X67191Y303968D01*
X67287Y303942D01*
X67381Y303913D01*
X67474Y303881D01*
X67566Y303844D01*
X67656Y303804D01*
X67745Y303760D01*
X67832Y303713D01*
X67917Y303663D01*
X67999Y303609D01*
X68080Y303552D01*
X68158Y303492D01*
X68234Y303428D01*
X68307Y303362D01*
X68378Y303293D01*
X68446Y303221D01*
X68510Y303146D01*
X68572Y303069D01*
X68631Y302990D01*
X68686Y302908D01*
X68739Y302824D01*
X68787Y302739D01*
X68833Y302651D01*
X68875Y302561D01*
X68913Y302470D01*
X68947Y302378D01*
X68978Y302284D01*
X69005Y302189D01*
X69029Y302093D01*
X69048Y301996D01*
X69064Y301899D01*
X69076Y301801D01*
X69084Y301702D01*
X69088Y301603D01*
X69088Y301505D01*
X69084Y301406D01*
X69076Y301307D01*
X69064Y301209D01*
X69048Y301112D01*
X69029Y301015D01*
X69005Y300919D01*
X68978Y300824D01*
X68947Y300730D01*
X68913Y300638D01*
X68875Y300547D01*
X68833Y300457D01*
X68787Y300369D01*
X68739Y300284D01*
X68686Y300200D01*
X68631Y300118D01*
X68572Y300039D01*
X68510Y299962D01*
X68446Y299887D01*
X68378Y299815D01*
X68307Y299746D01*
X68234Y299680D01*
X68158Y299616D01*
X68080Y299556D01*
X67999Y299499D01*
X67917Y299445D01*
X67832Y299395D01*
X67745Y299348D01*
X67656Y299304D01*
X67566Y299264D01*
X67474Y299227D01*
X67381Y299195D01*
X67287Y299166D01*
X67191Y299140D01*
X67095Y299119D01*
X66997Y299101D01*
X66900Y299088D01*
X66801Y299078D01*
X66703Y299072D01*
X66604Y299070D01*
X66604Y299071D02*
X64121Y299071D01*
D13*
X1290320Y349250D02*
X1300480Y349250D01*
D10*
X1258062Y343662D02*
X1258062Y354838D01*
X1261166Y354838D01*
X1261277Y354836D01*
X1261387Y354830D01*
X1261498Y354820D01*
X1261608Y354806D01*
X1261717Y354789D01*
X1261826Y354767D01*
X1261934Y354742D01*
X1262040Y354712D01*
X1262146Y354679D01*
X1262251Y354642D01*
X1262354Y354602D01*
X1262455Y354557D01*
X1262555Y354510D01*
X1262654Y354458D01*
X1262750Y354403D01*
X1262844Y354345D01*
X1262936Y354284D01*
X1263026Y354219D01*
X1263114Y354151D01*
X1263199Y354080D01*
X1263281Y354006D01*
X1263361Y353929D01*
X1263438Y353849D01*
X1263512Y353767D01*
X1263583Y353682D01*
X1263651Y353594D01*
X1263716Y353504D01*
X1263777Y353412D01*
X1263835Y353318D01*
X1263890Y353222D01*
X1263942Y353123D01*
X1263989Y353023D01*
X1264034Y352922D01*
X1264074Y352819D01*
X1264111Y352714D01*
X1264144Y352608D01*
X1264174Y352502D01*
X1264199Y352394D01*
X1264221Y352285D01*
X1264238Y352176D01*
X1264252Y352066D01*
X1264262Y351955D01*
X1264268Y351845D01*
X1264270Y351734D01*
X1264268Y351623D01*
X1264262Y351513D01*
X1264252Y351402D01*
X1264238Y351292D01*
X1264221Y351183D01*
X1264199Y351074D01*
X1264174Y350966D01*
X1264144Y350860D01*
X1264111Y350754D01*
X1264074Y350649D01*
X1264034Y350546D01*
X1263989Y350445D01*
X1263942Y350345D01*
X1263890Y350246D01*
X1263835Y350150D01*
X1263777Y350056D01*
X1263716Y349964D01*
X1263651Y349874D01*
X1263583Y349786D01*
X1263512Y349701D01*
X1263438Y349619D01*
X1263361Y349539D01*
X1263281Y349462D01*
X1263199Y349388D01*
X1263114Y349317D01*
X1263026Y349249D01*
X1262936Y349184D01*
X1262844Y349123D01*
X1262750Y349065D01*
X1262654Y349010D01*
X1262555Y348958D01*
X1262455Y348911D01*
X1262354Y348866D01*
X1262251Y348826D01*
X1262146Y348789D01*
X1262040Y348756D01*
X1261934Y348726D01*
X1261826Y348701D01*
X1261717Y348679D01*
X1261608Y348662D01*
X1261498Y348648D01*
X1261387Y348638D01*
X1261277Y348632D01*
X1261166Y348630D01*
X1261166Y348629D02*
X1258062Y348629D01*
X1261787Y348629D02*
X1264271Y343662D01*
X1269400Y346146D02*
X1271884Y354838D01*
X1269400Y346146D02*
X1275609Y346146D01*
X1273746Y348629D02*
X1273746Y343662D01*
D16*
X1193800Y31900D02*
X314800Y31900D01*
X1223800Y61900D02*
X1223800Y649900D01*
X1193800Y679900D02*
X314800Y679900D01*
X284800Y649900D02*
X284800Y63900D01*
D10*
X317500Y609600D02*
X342900Y609600D01*
X342900Y101600D01*
X317500Y101600D01*
X317500Y609600D01*
D16*
X284800Y649900D02*
X284809Y650625D01*
X284835Y651349D01*
X284879Y652073D01*
X284940Y652795D01*
X285019Y653516D01*
X285115Y654235D01*
X285228Y654951D01*
X285359Y655664D01*
X285507Y656374D01*
X285672Y657079D01*
X285854Y657781D01*
X286053Y658478D01*
X286268Y659171D01*
X286501Y659857D01*
X286750Y660538D01*
X287015Y661213D01*
X287296Y661881D01*
X287594Y662542D01*
X287907Y663196D01*
X288236Y663842D01*
X288581Y664480D01*
X288941Y665109D01*
X289316Y665729D01*
X289706Y666340D01*
X290110Y666942D01*
X290529Y667534D01*
X290963Y668115D01*
X291410Y668686D01*
X291871Y669245D01*
X292345Y669794D01*
X292832Y670330D01*
X293332Y670855D01*
X293845Y671368D01*
X294370Y671868D01*
X294906Y672355D01*
X295455Y672829D01*
X296014Y673290D01*
X296585Y673737D01*
X297166Y674171D01*
X297758Y674590D01*
X298360Y674994D01*
X298971Y675384D01*
X299591Y675759D01*
X300220Y676119D01*
X300858Y676464D01*
X301504Y676793D01*
X302158Y677106D01*
X302819Y677404D01*
X303487Y677685D01*
X304162Y677950D01*
X304843Y678199D01*
X305529Y678432D01*
X306222Y678647D01*
X306919Y678846D01*
X307621Y679028D01*
X308326Y679193D01*
X309036Y679341D01*
X309749Y679472D01*
X310465Y679585D01*
X311184Y679681D01*
X311905Y679760D01*
X312627Y679821D01*
X313351Y679865D01*
X314075Y679891D01*
X314800Y679900D01*
X284800Y61900D02*
X284809Y61175D01*
X284835Y60451D01*
X284879Y59727D01*
X284940Y59005D01*
X285019Y58284D01*
X285115Y57565D01*
X285228Y56849D01*
X285359Y56136D01*
X285507Y55426D01*
X285672Y54721D01*
X285854Y54019D01*
X286053Y53322D01*
X286268Y52629D01*
X286501Y51943D01*
X286750Y51262D01*
X287015Y50587D01*
X287296Y49919D01*
X287594Y49258D01*
X287907Y48604D01*
X288236Y47958D01*
X288581Y47320D01*
X288941Y46691D01*
X289316Y46071D01*
X289706Y45460D01*
X290110Y44858D01*
X290529Y44266D01*
X290963Y43685D01*
X291410Y43114D01*
X291871Y42555D01*
X292345Y42006D01*
X292832Y41470D01*
X293332Y40945D01*
X293845Y40432D01*
X294370Y39932D01*
X294906Y39445D01*
X295455Y38971D01*
X296014Y38510D01*
X296585Y38063D01*
X297166Y37629D01*
X297758Y37210D01*
X298360Y36806D01*
X298971Y36416D01*
X299591Y36041D01*
X300220Y35681D01*
X300858Y35336D01*
X301504Y35007D01*
X302158Y34694D01*
X302819Y34396D01*
X303487Y34115D01*
X304162Y33850D01*
X304843Y33601D01*
X305529Y33368D01*
X306222Y33153D01*
X306919Y32954D01*
X307621Y32772D01*
X308326Y32607D01*
X309036Y32459D01*
X309749Y32328D01*
X310465Y32215D01*
X311184Y32119D01*
X311905Y32040D01*
X312627Y31979D01*
X313351Y31935D01*
X314075Y31909D01*
X314800Y31900D01*
X1193800Y679900D02*
X1194525Y679891D01*
X1195249Y679865D01*
X1195973Y679821D01*
X1196695Y679760D01*
X1197416Y679681D01*
X1198135Y679585D01*
X1198851Y679472D01*
X1199564Y679341D01*
X1200274Y679193D01*
X1200979Y679028D01*
X1201681Y678846D01*
X1202378Y678647D01*
X1203071Y678432D01*
X1203757Y678199D01*
X1204438Y677950D01*
X1205113Y677685D01*
X1205781Y677404D01*
X1206442Y677106D01*
X1207096Y676793D01*
X1207742Y676464D01*
X1208380Y676119D01*
X1209009Y675759D01*
X1209629Y675384D01*
X1210240Y674994D01*
X1210842Y674590D01*
X1211434Y674171D01*
X1212015Y673737D01*
X1212586Y673290D01*
X1213145Y672829D01*
X1213694Y672355D01*
X1214230Y671868D01*
X1214755Y671368D01*
X1215268Y670855D01*
X1215768Y670330D01*
X1216255Y669794D01*
X1216729Y669245D01*
X1217190Y668686D01*
X1217637Y668115D01*
X1218071Y667534D01*
X1218490Y666942D01*
X1218894Y666340D01*
X1219284Y665729D01*
X1219659Y665109D01*
X1220019Y664480D01*
X1220364Y663842D01*
X1220693Y663196D01*
X1221006Y662542D01*
X1221304Y661881D01*
X1221585Y661213D01*
X1221850Y660538D01*
X1222099Y659857D01*
X1222332Y659171D01*
X1222547Y658478D01*
X1222746Y657781D01*
X1222928Y657079D01*
X1223093Y656374D01*
X1223241Y655664D01*
X1223372Y654951D01*
X1223485Y654235D01*
X1223581Y653516D01*
X1223660Y652795D01*
X1223721Y652073D01*
X1223765Y651349D01*
X1223791Y650625D01*
X1223800Y649900D01*
X1223800Y61900D02*
X1223791Y61175D01*
X1223765Y60451D01*
X1223721Y59727D01*
X1223660Y59005D01*
X1223581Y58284D01*
X1223485Y57565D01*
X1223372Y56849D01*
X1223241Y56136D01*
X1223093Y55426D01*
X1222928Y54721D01*
X1222746Y54019D01*
X1222547Y53322D01*
X1222332Y52629D01*
X1222099Y51943D01*
X1221850Y51262D01*
X1221585Y50587D01*
X1221304Y49919D01*
X1221006Y49258D01*
X1220693Y48604D01*
X1220364Y47958D01*
X1220019Y47320D01*
X1219659Y46691D01*
X1219284Y46071D01*
X1218894Y45460D01*
X1218490Y44858D01*
X1218071Y44266D01*
X1217637Y43685D01*
X1217190Y43114D01*
X1216729Y42555D01*
X1216255Y42006D01*
X1215768Y41470D01*
X1215268Y40945D01*
X1214755Y40432D01*
X1214230Y39932D01*
X1213694Y39445D01*
X1213145Y38971D01*
X1212586Y38510D01*
X1212015Y38063D01*
X1211434Y37629D01*
X1210842Y37210D01*
X1210240Y36806D01*
X1209629Y36416D01*
X1209009Y36041D01*
X1208380Y35681D01*
X1207742Y35336D01*
X1207096Y35007D01*
X1206442Y34694D01*
X1205781Y34396D01*
X1205113Y34115D01*
X1204438Y33850D01*
X1203757Y33601D01*
X1203071Y33368D01*
X1202378Y33153D01*
X1201681Y32954D01*
X1200979Y32772D01*
X1200274Y32607D01*
X1199564Y32459D01*
X1198851Y32328D01*
X1198135Y32215D01*
X1197416Y32119D01*
X1196695Y32040D01*
X1195973Y31979D01*
X1195249Y31935D01*
X1194525Y31909D01*
X1193800Y31900D01*
X1164800Y66900D02*
X364800Y66900D01*
X364800Y646900D01*
X1164800Y646900D01*
D13*
X301625Y613410D02*
X299085Y616585D01*
X310515Y616585D01*
X310515Y613410D02*
X310515Y619760D01*
X1159510Y96203D02*
X1159512Y96307D01*
X1159518Y96412D01*
X1159527Y96516D01*
X1159540Y96619D01*
X1159558Y96722D01*
X1159578Y96824D01*
X1159603Y96926D01*
X1159631Y97026D01*
X1159663Y97126D01*
X1159699Y97224D01*
X1159738Y97321D01*
X1159780Y97416D01*
X1159826Y97510D01*
X1159876Y97602D01*
X1159928Y97692D01*
X1159984Y97780D01*
X1160044Y97866D01*
X1160106Y97950D01*
X1160171Y98031D01*
X1160239Y98110D01*
X1160311Y98187D01*
X1160384Y98260D01*
X1160461Y98332D01*
X1160540Y98400D01*
X1160621Y98465D01*
X1160705Y98527D01*
X1160791Y98587D01*
X1160879Y98643D01*
X1160969Y98695D01*
X1161061Y98745D01*
X1161155Y98791D01*
X1161250Y98833D01*
X1161347Y98872D01*
X1161445Y98908D01*
X1161545Y98940D01*
X1161645Y98968D01*
X1161747Y98993D01*
X1161849Y99013D01*
X1161952Y99031D01*
X1162055Y99044D01*
X1162159Y99053D01*
X1162264Y99059D01*
X1162368Y99061D01*
X1159510Y96203D02*
X1159512Y96085D01*
X1159518Y95966D01*
X1159527Y95848D01*
X1159540Y95731D01*
X1159558Y95614D01*
X1159578Y95497D01*
X1159603Y95381D01*
X1159631Y95266D01*
X1159664Y95153D01*
X1159699Y95040D01*
X1159739Y94928D01*
X1159781Y94818D01*
X1159828Y94709D01*
X1159878Y94601D01*
X1159931Y94496D01*
X1159988Y94392D01*
X1160048Y94290D01*
X1160111Y94190D01*
X1160178Y94092D01*
X1160247Y93996D01*
X1160320Y93903D01*
X1160396Y93812D01*
X1160474Y93723D01*
X1160556Y93637D01*
X1160640Y93554D01*
X1160726Y93473D01*
X1160816Y93396D01*
X1160907Y93321D01*
X1161001Y93249D01*
X1161098Y93180D01*
X1161196Y93115D01*
X1161297Y93052D01*
X1161400Y92993D01*
X1161504Y92937D01*
X1161610Y92885D01*
X1161718Y92836D01*
X1161827Y92791D01*
X1161938Y92749D01*
X1162050Y92711D01*
X1164590Y98108D02*
X1164515Y98184D01*
X1164436Y98259D01*
X1164355Y98330D01*
X1164271Y98399D01*
X1164185Y98464D01*
X1164097Y98526D01*
X1164007Y98586D01*
X1163915Y98642D01*
X1163820Y98695D01*
X1163724Y98744D01*
X1163626Y98790D01*
X1163527Y98833D01*
X1163426Y98872D01*
X1163324Y98907D01*
X1163221Y98939D01*
X1163117Y98967D01*
X1163012Y98992D01*
X1162905Y99013D01*
X1162799Y99030D01*
X1162692Y99043D01*
X1162584Y99052D01*
X1162476Y99058D01*
X1162368Y99060D01*
X1164590Y98108D02*
X1170940Y92710D01*
X1170940Y99060D01*
X1162050Y104140D02*
X1159510Y107315D01*
X1170940Y107315D01*
X1170940Y104140D02*
X1170940Y110490D01*
X327343Y86361D02*
X327239Y86359D01*
X327134Y86353D01*
X327030Y86344D01*
X326927Y86331D01*
X326824Y86313D01*
X326722Y86293D01*
X326620Y86268D01*
X326520Y86240D01*
X326420Y86208D01*
X326322Y86172D01*
X326225Y86133D01*
X326130Y86091D01*
X326036Y86045D01*
X325944Y85995D01*
X325854Y85943D01*
X325766Y85887D01*
X325680Y85827D01*
X325596Y85765D01*
X325515Y85700D01*
X325436Y85632D01*
X325359Y85560D01*
X325286Y85487D01*
X325214Y85410D01*
X325146Y85331D01*
X325081Y85250D01*
X325019Y85166D01*
X324959Y85080D01*
X324903Y84992D01*
X324851Y84902D01*
X324801Y84810D01*
X324755Y84716D01*
X324713Y84621D01*
X324674Y84524D01*
X324638Y84426D01*
X324606Y84326D01*
X324578Y84226D01*
X324553Y84124D01*
X324533Y84022D01*
X324515Y83919D01*
X324502Y83816D01*
X324493Y83712D01*
X324487Y83607D01*
X324485Y83503D01*
X324487Y83385D01*
X324493Y83266D01*
X324502Y83148D01*
X324515Y83031D01*
X324533Y82914D01*
X324553Y82797D01*
X324578Y82681D01*
X324606Y82566D01*
X324639Y82453D01*
X324674Y82340D01*
X324714Y82228D01*
X324756Y82118D01*
X324803Y82009D01*
X324853Y81901D01*
X324906Y81796D01*
X324963Y81692D01*
X325023Y81590D01*
X325086Y81490D01*
X325153Y81392D01*
X325222Y81296D01*
X325295Y81203D01*
X325371Y81112D01*
X325449Y81023D01*
X325531Y80937D01*
X325615Y80854D01*
X325701Y80773D01*
X325791Y80696D01*
X325882Y80621D01*
X325976Y80549D01*
X326073Y80480D01*
X326171Y80415D01*
X326272Y80352D01*
X326375Y80293D01*
X326479Y80237D01*
X326585Y80185D01*
X326693Y80136D01*
X326802Y80091D01*
X326913Y80049D01*
X327025Y80011D01*
X329565Y85408D02*
X329490Y85484D01*
X329411Y85559D01*
X329330Y85630D01*
X329246Y85699D01*
X329160Y85764D01*
X329072Y85826D01*
X328982Y85886D01*
X328890Y85942D01*
X328795Y85995D01*
X328699Y86044D01*
X328601Y86090D01*
X328502Y86133D01*
X328401Y86172D01*
X328299Y86207D01*
X328196Y86239D01*
X328092Y86267D01*
X327987Y86292D01*
X327880Y86313D01*
X327774Y86330D01*
X327667Y86343D01*
X327559Y86352D01*
X327451Y86358D01*
X327343Y86360D01*
X329565Y85408D02*
X335915Y80010D01*
X335915Y86360D01*
X330200Y91440D02*
X329975Y91443D01*
X329750Y91451D01*
X329526Y91464D01*
X329302Y91483D01*
X329078Y91507D01*
X328855Y91536D01*
X328633Y91571D01*
X328412Y91611D01*
X328192Y91657D01*
X327973Y91707D01*
X327755Y91763D01*
X327538Y91824D01*
X327323Y91890D01*
X327110Y91961D01*
X326899Y92038D01*
X326689Y92119D01*
X326481Y92205D01*
X326276Y92296D01*
X326073Y92392D01*
X325985Y92424D01*
X325898Y92460D01*
X325812Y92499D01*
X325728Y92542D01*
X325646Y92588D01*
X325566Y92637D01*
X325488Y92689D01*
X325412Y92745D01*
X325338Y92803D01*
X325267Y92865D01*
X325198Y92929D01*
X325132Y92996D01*
X325069Y93065D01*
X325008Y93137D01*
X324950Y93211D01*
X324896Y93288D01*
X324844Y93366D01*
X324796Y93447D01*
X324751Y93529D01*
X324709Y93614D01*
X324671Y93700D01*
X324636Y93787D01*
X324604Y93875D01*
X324577Y93965D01*
X324552Y94056D01*
X324532Y94148D01*
X324515Y94240D01*
X324502Y94334D01*
X324493Y94427D01*
X324487Y94521D01*
X324485Y94615D01*
X324487Y94709D01*
X324493Y94803D01*
X324502Y94896D01*
X324515Y94990D01*
X324532Y95082D01*
X324552Y95174D01*
X324577Y95265D01*
X324604Y95355D01*
X324636Y95443D01*
X324671Y95530D01*
X324709Y95616D01*
X324751Y95701D01*
X324796Y95783D01*
X324844Y95864D01*
X324896Y95942D01*
X324950Y96019D01*
X325008Y96093D01*
X325069Y96165D01*
X325132Y96234D01*
X325198Y96301D01*
X325267Y96365D01*
X325338Y96427D01*
X325412Y96485D01*
X325488Y96541D01*
X325566Y96593D01*
X325646Y96642D01*
X325728Y96688D01*
X325812Y96731D01*
X325898Y96770D01*
X325985Y96806D01*
X326073Y96838D01*
X326276Y96934D01*
X326481Y97025D01*
X326689Y97111D01*
X326899Y97192D01*
X327110Y97269D01*
X327323Y97340D01*
X327538Y97406D01*
X327755Y97467D01*
X327973Y97523D01*
X328192Y97573D01*
X328412Y97619D01*
X328633Y97659D01*
X328855Y97694D01*
X329078Y97723D01*
X329302Y97747D01*
X329526Y97766D01*
X329750Y97779D01*
X329975Y97787D01*
X330200Y97790D01*
X330200Y91440D02*
X330425Y91443D01*
X330650Y91451D01*
X330874Y91464D01*
X331098Y91483D01*
X331322Y91507D01*
X331545Y91536D01*
X331767Y91571D01*
X331988Y91611D01*
X332208Y91657D01*
X332427Y91707D01*
X332645Y91763D01*
X332862Y91824D01*
X333077Y91890D01*
X333290Y91961D01*
X333501Y92038D01*
X333711Y92119D01*
X333919Y92205D01*
X334124Y92296D01*
X334327Y92392D01*
X334328Y92392D02*
X334416Y92424D01*
X334503Y92460D01*
X334589Y92499D01*
X334673Y92542D01*
X334755Y92588D01*
X334835Y92637D01*
X334913Y92689D01*
X334989Y92745D01*
X335063Y92803D01*
X335134Y92865D01*
X335203Y92929D01*
X335269Y92996D01*
X335332Y93065D01*
X335393Y93137D01*
X335451Y93211D01*
X335505Y93288D01*
X335557Y93366D01*
X335605Y93447D01*
X335650Y93529D01*
X335692Y93614D01*
X335730Y93700D01*
X335765Y93787D01*
X335797Y93875D01*
X335824Y93965D01*
X335849Y94056D01*
X335869Y94148D01*
X335886Y94240D01*
X335899Y94334D01*
X335908Y94427D01*
X335914Y94521D01*
X335916Y94615D01*
X334327Y96838D02*
X334124Y96934D01*
X333919Y97025D01*
X333711Y97111D01*
X333501Y97192D01*
X333290Y97269D01*
X333077Y97340D01*
X332862Y97406D01*
X332645Y97467D01*
X332427Y97523D01*
X332208Y97573D01*
X331988Y97619D01*
X331767Y97659D01*
X331545Y97694D01*
X331322Y97723D01*
X331098Y97747D01*
X330874Y97766D01*
X330650Y97779D01*
X330425Y97787D01*
X330200Y97790D01*
X334328Y96838D02*
X334416Y96806D01*
X334503Y96770D01*
X334589Y96731D01*
X334673Y96688D01*
X334755Y96642D01*
X334835Y96593D01*
X334913Y96541D01*
X334989Y96485D01*
X335063Y96427D01*
X335134Y96365D01*
X335203Y96301D01*
X335269Y96234D01*
X335332Y96165D01*
X335393Y96093D01*
X335451Y96019D01*
X335505Y95942D01*
X335557Y95864D01*
X335605Y95783D01*
X335650Y95701D01*
X335692Y95616D01*
X335730Y95530D01*
X335765Y95443D01*
X335797Y95355D01*
X335824Y95265D01*
X335849Y95174D01*
X335869Y95082D01*
X335886Y94990D01*
X335899Y94896D01*
X335908Y94803D01*
X335914Y94709D01*
X335916Y94615D01*
X333375Y92075D02*
X327025Y97155D01*
X1175385Y615950D02*
X1184275Y613410D01*
X1184275Y619760D01*
X1181735Y617855D02*
X1186815Y617855D01*
X1181100Y624840D02*
X1180875Y624843D01*
X1180650Y624851D01*
X1180426Y624864D01*
X1180202Y624883D01*
X1179978Y624907D01*
X1179755Y624936D01*
X1179533Y624971D01*
X1179312Y625011D01*
X1179092Y625057D01*
X1178873Y625107D01*
X1178655Y625163D01*
X1178438Y625224D01*
X1178223Y625290D01*
X1178010Y625361D01*
X1177799Y625438D01*
X1177589Y625519D01*
X1177381Y625605D01*
X1177176Y625696D01*
X1176973Y625792D01*
X1176885Y625824D01*
X1176798Y625860D01*
X1176712Y625899D01*
X1176628Y625942D01*
X1176546Y625988D01*
X1176466Y626037D01*
X1176388Y626089D01*
X1176312Y626145D01*
X1176238Y626203D01*
X1176167Y626265D01*
X1176098Y626329D01*
X1176032Y626396D01*
X1175969Y626465D01*
X1175908Y626537D01*
X1175850Y626611D01*
X1175796Y626688D01*
X1175744Y626766D01*
X1175696Y626847D01*
X1175651Y626929D01*
X1175609Y627014D01*
X1175571Y627100D01*
X1175536Y627187D01*
X1175504Y627275D01*
X1175477Y627365D01*
X1175452Y627456D01*
X1175432Y627548D01*
X1175415Y627640D01*
X1175402Y627734D01*
X1175393Y627827D01*
X1175387Y627921D01*
X1175385Y628015D01*
X1175387Y628109D01*
X1175393Y628203D01*
X1175402Y628296D01*
X1175415Y628390D01*
X1175432Y628482D01*
X1175452Y628574D01*
X1175477Y628665D01*
X1175504Y628755D01*
X1175536Y628843D01*
X1175571Y628930D01*
X1175609Y629016D01*
X1175651Y629101D01*
X1175696Y629183D01*
X1175744Y629264D01*
X1175796Y629342D01*
X1175850Y629419D01*
X1175908Y629493D01*
X1175969Y629565D01*
X1176032Y629634D01*
X1176098Y629701D01*
X1176167Y629765D01*
X1176238Y629827D01*
X1176312Y629885D01*
X1176388Y629941D01*
X1176466Y629993D01*
X1176546Y630042D01*
X1176628Y630088D01*
X1176712Y630131D01*
X1176798Y630170D01*
X1176885Y630206D01*
X1176973Y630238D01*
X1177176Y630334D01*
X1177381Y630425D01*
X1177589Y630511D01*
X1177799Y630592D01*
X1178010Y630669D01*
X1178223Y630740D01*
X1178438Y630806D01*
X1178655Y630867D01*
X1178873Y630923D01*
X1179092Y630973D01*
X1179312Y631019D01*
X1179533Y631059D01*
X1179755Y631094D01*
X1179978Y631123D01*
X1180202Y631147D01*
X1180426Y631166D01*
X1180650Y631179D01*
X1180875Y631187D01*
X1181100Y631190D01*
X1181100Y624840D02*
X1181325Y624843D01*
X1181550Y624851D01*
X1181774Y624864D01*
X1181998Y624883D01*
X1182222Y624907D01*
X1182445Y624936D01*
X1182667Y624971D01*
X1182888Y625011D01*
X1183108Y625057D01*
X1183327Y625107D01*
X1183545Y625163D01*
X1183762Y625224D01*
X1183977Y625290D01*
X1184190Y625361D01*
X1184401Y625438D01*
X1184611Y625519D01*
X1184819Y625605D01*
X1185024Y625696D01*
X1185227Y625792D01*
X1185228Y625792D02*
X1185316Y625824D01*
X1185403Y625860D01*
X1185489Y625899D01*
X1185573Y625942D01*
X1185655Y625988D01*
X1185735Y626037D01*
X1185813Y626089D01*
X1185889Y626145D01*
X1185963Y626203D01*
X1186034Y626265D01*
X1186103Y626329D01*
X1186169Y626396D01*
X1186232Y626465D01*
X1186293Y626537D01*
X1186351Y626611D01*
X1186405Y626688D01*
X1186457Y626766D01*
X1186505Y626847D01*
X1186550Y626929D01*
X1186592Y627014D01*
X1186630Y627100D01*
X1186665Y627187D01*
X1186697Y627275D01*
X1186724Y627365D01*
X1186749Y627456D01*
X1186769Y627548D01*
X1186786Y627640D01*
X1186799Y627734D01*
X1186808Y627827D01*
X1186814Y627921D01*
X1186816Y628015D01*
X1185227Y630238D02*
X1185024Y630334D01*
X1184819Y630425D01*
X1184611Y630511D01*
X1184401Y630592D01*
X1184190Y630669D01*
X1183977Y630740D01*
X1183762Y630806D01*
X1183545Y630867D01*
X1183327Y630923D01*
X1183108Y630973D01*
X1182888Y631019D01*
X1182667Y631059D01*
X1182445Y631094D01*
X1182222Y631123D01*
X1181998Y631147D01*
X1181774Y631166D01*
X1181550Y631179D01*
X1181325Y631187D01*
X1181100Y631190D01*
X1185228Y630238D02*
X1185316Y630206D01*
X1185403Y630170D01*
X1185489Y630131D01*
X1185573Y630088D01*
X1185655Y630042D01*
X1185735Y629993D01*
X1185813Y629941D01*
X1185889Y629885D01*
X1185963Y629827D01*
X1186034Y629765D01*
X1186103Y629701D01*
X1186169Y629634D01*
X1186232Y629565D01*
X1186293Y629493D01*
X1186351Y629419D01*
X1186405Y629342D01*
X1186457Y629264D01*
X1186505Y629183D01*
X1186550Y629101D01*
X1186592Y629016D01*
X1186630Y628930D01*
X1186665Y628843D01*
X1186697Y628755D01*
X1186724Y628665D01*
X1186749Y628574D01*
X1186769Y628482D01*
X1186786Y628390D01*
X1186799Y628296D01*
X1186808Y628203D01*
X1186814Y628109D01*
X1186816Y628015D01*
X1184275Y625475D02*
X1177925Y630555D01*
D16*
X1164800Y646900D02*
X1164800Y101900D01*
X1164800Y66900D01*
D10*
X1181100Y609600D02*
X1206500Y609600D01*
X1206500Y101600D01*
X1181100Y101600D01*
X1181100Y609600D01*
X248412Y645216D02*
X248412Y653288D01*
X248412Y645216D02*
X248414Y645105D01*
X248420Y644995D01*
X248430Y644884D01*
X248444Y644774D01*
X248461Y644665D01*
X248483Y644556D01*
X248508Y644448D01*
X248538Y644342D01*
X248571Y644236D01*
X248608Y644131D01*
X248648Y644028D01*
X248693Y643927D01*
X248740Y643827D01*
X248792Y643728D01*
X248847Y643632D01*
X248905Y643538D01*
X248966Y643446D01*
X249031Y643356D01*
X249099Y643268D01*
X249170Y643183D01*
X249244Y643101D01*
X249321Y643021D01*
X249401Y642944D01*
X249483Y642870D01*
X249568Y642799D01*
X249656Y642731D01*
X249746Y642666D01*
X249838Y642605D01*
X249932Y642547D01*
X250028Y642492D01*
X250127Y642440D01*
X250227Y642393D01*
X250328Y642348D01*
X250431Y642308D01*
X250536Y642271D01*
X250642Y642238D01*
X250748Y642208D01*
X250856Y642183D01*
X250965Y642161D01*
X251074Y642144D01*
X251184Y642130D01*
X251295Y642120D01*
X251405Y642114D01*
X251516Y642112D01*
X251627Y642114D01*
X251737Y642120D01*
X251848Y642130D01*
X251958Y642144D01*
X252067Y642161D01*
X252176Y642183D01*
X252284Y642208D01*
X252390Y642238D01*
X252496Y642271D01*
X252601Y642308D01*
X252704Y642348D01*
X252805Y642393D01*
X252905Y642440D01*
X253004Y642492D01*
X253100Y642547D01*
X253194Y642605D01*
X253286Y642666D01*
X253376Y642731D01*
X253464Y642799D01*
X253549Y642870D01*
X253631Y642944D01*
X253711Y643021D01*
X253788Y643101D01*
X253862Y643183D01*
X253933Y643268D01*
X254001Y643356D01*
X254066Y643446D01*
X254127Y643538D01*
X254185Y643632D01*
X254240Y643728D01*
X254292Y643827D01*
X254339Y643927D01*
X254384Y644028D01*
X254424Y644131D01*
X254461Y644236D01*
X254494Y644342D01*
X254524Y644448D01*
X254549Y644556D01*
X254571Y644665D01*
X254588Y644774D01*
X254602Y644884D01*
X254612Y644995D01*
X254618Y645105D01*
X254620Y645216D01*
X254621Y645216D02*
X254621Y653288D01*
X262707Y653288D02*
X260223Y644596D01*
X266432Y644596D01*
X264569Y647079D02*
X264569Y642112D01*
X1371092Y372618D02*
X1371092Y361442D01*
X1371092Y372618D02*
X1374196Y372618D01*
X1374307Y372616D01*
X1374417Y372610D01*
X1374528Y372600D01*
X1374638Y372586D01*
X1374747Y372569D01*
X1374856Y372547D01*
X1374964Y372522D01*
X1375070Y372492D01*
X1375176Y372459D01*
X1375281Y372422D01*
X1375384Y372382D01*
X1375485Y372337D01*
X1375585Y372290D01*
X1375684Y372238D01*
X1375780Y372183D01*
X1375874Y372125D01*
X1375966Y372064D01*
X1376056Y371999D01*
X1376144Y371931D01*
X1376229Y371860D01*
X1376311Y371786D01*
X1376391Y371709D01*
X1376468Y371629D01*
X1376542Y371547D01*
X1376613Y371462D01*
X1376681Y371374D01*
X1376746Y371284D01*
X1376807Y371192D01*
X1376865Y371098D01*
X1376920Y371002D01*
X1376972Y370903D01*
X1377019Y370803D01*
X1377064Y370702D01*
X1377104Y370599D01*
X1377141Y370494D01*
X1377174Y370388D01*
X1377204Y370282D01*
X1377229Y370174D01*
X1377251Y370065D01*
X1377268Y369956D01*
X1377282Y369846D01*
X1377292Y369735D01*
X1377298Y369625D01*
X1377300Y369514D01*
X1377298Y369403D01*
X1377292Y369293D01*
X1377282Y369182D01*
X1377268Y369072D01*
X1377251Y368963D01*
X1377229Y368854D01*
X1377204Y368746D01*
X1377174Y368640D01*
X1377141Y368534D01*
X1377104Y368429D01*
X1377064Y368326D01*
X1377019Y368225D01*
X1376972Y368125D01*
X1376920Y368026D01*
X1376865Y367930D01*
X1376807Y367836D01*
X1376746Y367744D01*
X1376681Y367654D01*
X1376613Y367566D01*
X1376542Y367481D01*
X1376468Y367399D01*
X1376391Y367319D01*
X1376311Y367242D01*
X1376229Y367168D01*
X1376144Y367097D01*
X1376056Y367029D01*
X1375966Y366964D01*
X1375874Y366903D01*
X1375780Y366845D01*
X1375684Y366790D01*
X1375585Y366738D01*
X1375485Y366691D01*
X1375384Y366646D01*
X1375281Y366606D01*
X1375176Y366569D01*
X1375070Y366536D01*
X1374964Y366506D01*
X1374856Y366481D01*
X1374747Y366459D01*
X1374638Y366442D01*
X1374528Y366428D01*
X1374417Y366418D01*
X1374307Y366412D01*
X1374196Y366410D01*
X1374196Y366409D02*
X1371092Y366409D01*
X1374817Y366409D02*
X1377301Y361442D01*
X1382430Y361442D02*
X1386155Y361442D01*
X1386253Y361444D01*
X1386350Y361450D01*
X1386447Y361459D01*
X1386544Y361473D01*
X1386640Y361490D01*
X1386735Y361511D01*
X1386829Y361535D01*
X1386923Y361564D01*
X1387015Y361596D01*
X1387106Y361631D01*
X1387195Y361670D01*
X1387283Y361713D01*
X1387369Y361759D01*
X1387453Y361808D01*
X1387535Y361861D01*
X1387615Y361916D01*
X1387693Y361975D01*
X1387768Y362037D01*
X1387841Y362102D01*
X1387911Y362170D01*
X1387979Y362240D01*
X1388044Y362313D01*
X1388106Y362388D01*
X1388165Y362466D01*
X1388220Y362546D01*
X1388273Y362628D01*
X1388322Y362712D01*
X1388368Y362798D01*
X1388411Y362886D01*
X1388450Y362975D01*
X1388485Y363066D01*
X1388517Y363158D01*
X1388546Y363252D01*
X1388570Y363346D01*
X1388591Y363441D01*
X1388608Y363537D01*
X1388622Y363634D01*
X1388631Y363731D01*
X1388637Y363828D01*
X1388639Y363926D01*
X1388639Y365167D01*
X1388637Y365265D01*
X1388631Y365362D01*
X1388622Y365459D01*
X1388608Y365556D01*
X1388591Y365652D01*
X1388570Y365747D01*
X1388546Y365841D01*
X1388517Y365935D01*
X1388485Y366027D01*
X1388450Y366118D01*
X1388411Y366207D01*
X1388368Y366295D01*
X1388322Y366381D01*
X1388273Y366465D01*
X1388220Y366547D01*
X1388165Y366627D01*
X1388106Y366705D01*
X1388044Y366780D01*
X1387979Y366853D01*
X1387911Y366923D01*
X1387841Y366991D01*
X1387768Y367056D01*
X1387693Y367118D01*
X1387615Y367177D01*
X1387535Y367232D01*
X1387453Y367285D01*
X1387369Y367334D01*
X1387283Y367380D01*
X1387195Y367423D01*
X1387106Y367462D01*
X1387015Y367497D01*
X1386923Y367529D01*
X1386829Y367558D01*
X1386735Y367582D01*
X1386640Y367603D01*
X1386544Y367620D01*
X1386447Y367634D01*
X1386350Y367643D01*
X1386253Y367649D01*
X1386155Y367651D01*
X1382430Y367651D01*
X1382430Y372618D01*
X1388639Y372618D01*
M02*
