G04 EAGLE Gerber RS-274X export*
G75*
%MOMM*%
%FSLAX34Y34*%
%LPD*%
%INSoldermask Bottom*%
%IPPOS*%
%AMOC8*
5,1,8,0,0,1.08239X$1,22.5*%
G01*
%ADD10C,2.152400*%
%ADD11C,1.930400*%
%ADD12C,1.272400*%
%ADD13C,0.609600*%
%ADD14C,1.168400*%
%ADD15C,4.597400*%
%ADD16R,1.676400X1.676400*%
%ADD17P,1.814519X8X22.500000*%
%ADD18C,2.112400*%
%ADD19R,1.272400X1.272400*%


D10*
X530860Y774700D03*
X967740Y774700D03*
X530860Y1003300D03*
X967740Y1003300D03*
D11*
X789940Y1003300D03*
X764540Y1003300D03*
X739140Y1003300D03*
X713740Y1003300D03*
D12*
X165100Y500900D03*
X165100Y565900D03*
D13*
X68580Y139700D02*
X68582Y139887D01*
X68589Y140074D01*
X68601Y140261D01*
X68617Y140447D01*
X68637Y140633D01*
X68662Y140818D01*
X68692Y141003D01*
X68726Y141187D01*
X68765Y141370D01*
X68808Y141552D01*
X68856Y141732D01*
X68908Y141912D01*
X68965Y142090D01*
X69025Y142267D01*
X69091Y142442D01*
X69160Y142616D01*
X69234Y142788D01*
X69312Y142958D01*
X69394Y143126D01*
X69480Y143292D01*
X69570Y143456D01*
X69664Y143617D01*
X69762Y143777D01*
X69864Y143933D01*
X69970Y144088D01*
X70080Y144239D01*
X70193Y144388D01*
X70310Y144534D01*
X70430Y144677D01*
X70554Y144817D01*
X70681Y144954D01*
X70812Y145088D01*
X70946Y145219D01*
X71083Y145346D01*
X71223Y145470D01*
X71366Y145590D01*
X71512Y145707D01*
X71661Y145820D01*
X71812Y145930D01*
X71967Y146036D01*
X72123Y146138D01*
X72283Y146236D01*
X72444Y146330D01*
X72608Y146420D01*
X72774Y146506D01*
X72942Y146588D01*
X73112Y146666D01*
X73284Y146740D01*
X73458Y146809D01*
X73633Y146875D01*
X73810Y146935D01*
X73988Y146992D01*
X74168Y147044D01*
X74348Y147092D01*
X74530Y147135D01*
X74713Y147174D01*
X74897Y147208D01*
X75082Y147238D01*
X75267Y147263D01*
X75453Y147283D01*
X75639Y147299D01*
X75826Y147311D01*
X76013Y147318D01*
X76200Y147320D01*
X76387Y147318D01*
X76574Y147311D01*
X76761Y147299D01*
X76947Y147283D01*
X77133Y147263D01*
X77318Y147238D01*
X77503Y147208D01*
X77687Y147174D01*
X77870Y147135D01*
X78052Y147092D01*
X78232Y147044D01*
X78412Y146992D01*
X78590Y146935D01*
X78767Y146875D01*
X78942Y146809D01*
X79116Y146740D01*
X79288Y146666D01*
X79458Y146588D01*
X79626Y146506D01*
X79792Y146420D01*
X79956Y146330D01*
X80117Y146236D01*
X80277Y146138D01*
X80433Y146036D01*
X80588Y145930D01*
X80739Y145820D01*
X80888Y145707D01*
X81034Y145590D01*
X81177Y145470D01*
X81317Y145346D01*
X81454Y145219D01*
X81588Y145088D01*
X81719Y144954D01*
X81846Y144817D01*
X81970Y144677D01*
X82090Y144534D01*
X82207Y144388D01*
X82320Y144239D01*
X82430Y144088D01*
X82536Y143933D01*
X82638Y143777D01*
X82736Y143617D01*
X82830Y143456D01*
X82920Y143292D01*
X83006Y143126D01*
X83088Y142958D01*
X83166Y142788D01*
X83240Y142616D01*
X83309Y142442D01*
X83375Y142267D01*
X83435Y142090D01*
X83492Y141912D01*
X83544Y141732D01*
X83592Y141552D01*
X83635Y141370D01*
X83674Y141187D01*
X83708Y141003D01*
X83738Y140818D01*
X83763Y140633D01*
X83783Y140447D01*
X83799Y140261D01*
X83811Y140074D01*
X83818Y139887D01*
X83820Y139700D01*
X83818Y139513D01*
X83811Y139326D01*
X83799Y139139D01*
X83783Y138953D01*
X83763Y138767D01*
X83738Y138582D01*
X83708Y138397D01*
X83674Y138213D01*
X83635Y138030D01*
X83592Y137848D01*
X83544Y137668D01*
X83492Y137488D01*
X83435Y137310D01*
X83375Y137133D01*
X83309Y136958D01*
X83240Y136784D01*
X83166Y136612D01*
X83088Y136442D01*
X83006Y136274D01*
X82920Y136108D01*
X82830Y135944D01*
X82736Y135783D01*
X82638Y135623D01*
X82536Y135467D01*
X82430Y135312D01*
X82320Y135161D01*
X82207Y135012D01*
X82090Y134866D01*
X81970Y134723D01*
X81846Y134583D01*
X81719Y134446D01*
X81588Y134312D01*
X81454Y134181D01*
X81317Y134054D01*
X81177Y133930D01*
X81034Y133810D01*
X80888Y133693D01*
X80739Y133580D01*
X80588Y133470D01*
X80433Y133364D01*
X80277Y133262D01*
X80117Y133164D01*
X79956Y133070D01*
X79792Y132980D01*
X79626Y132894D01*
X79458Y132812D01*
X79288Y132734D01*
X79116Y132660D01*
X78942Y132591D01*
X78767Y132525D01*
X78590Y132465D01*
X78412Y132408D01*
X78232Y132356D01*
X78052Y132308D01*
X77870Y132265D01*
X77687Y132226D01*
X77503Y132192D01*
X77318Y132162D01*
X77133Y132137D01*
X76947Y132117D01*
X76761Y132101D01*
X76574Y132089D01*
X76387Y132082D01*
X76200Y132080D01*
X76013Y132082D01*
X75826Y132089D01*
X75639Y132101D01*
X75453Y132117D01*
X75267Y132137D01*
X75082Y132162D01*
X74897Y132192D01*
X74713Y132226D01*
X74530Y132265D01*
X74348Y132308D01*
X74168Y132356D01*
X73988Y132408D01*
X73810Y132465D01*
X73633Y132525D01*
X73458Y132591D01*
X73284Y132660D01*
X73112Y132734D01*
X72942Y132812D01*
X72774Y132894D01*
X72608Y132980D01*
X72444Y133070D01*
X72283Y133164D01*
X72123Y133262D01*
X71967Y133364D01*
X71812Y133470D01*
X71661Y133580D01*
X71512Y133693D01*
X71366Y133810D01*
X71223Y133930D01*
X71083Y134054D01*
X70946Y134181D01*
X70812Y134312D01*
X70681Y134446D01*
X70554Y134583D01*
X70430Y134723D01*
X70310Y134866D01*
X70193Y135012D01*
X70080Y135161D01*
X69970Y135312D01*
X69864Y135467D01*
X69762Y135623D01*
X69664Y135783D01*
X69570Y135944D01*
X69480Y136108D01*
X69394Y136274D01*
X69312Y136442D01*
X69234Y136612D01*
X69160Y136784D01*
X69091Y136958D01*
X69025Y137133D01*
X68965Y137310D01*
X68908Y137488D01*
X68856Y137668D01*
X68808Y137848D01*
X68765Y138030D01*
X68726Y138213D01*
X68692Y138397D01*
X68662Y138582D01*
X68637Y138767D01*
X68617Y138953D01*
X68601Y139139D01*
X68589Y139326D01*
X68582Y139513D01*
X68580Y139700D01*
D14*
X76200Y139700D03*
D13*
X1427480Y139700D02*
X1427482Y139887D01*
X1427489Y140074D01*
X1427501Y140261D01*
X1427517Y140447D01*
X1427537Y140633D01*
X1427562Y140818D01*
X1427592Y141003D01*
X1427626Y141187D01*
X1427665Y141370D01*
X1427708Y141552D01*
X1427756Y141732D01*
X1427808Y141912D01*
X1427865Y142090D01*
X1427925Y142267D01*
X1427991Y142442D01*
X1428060Y142616D01*
X1428134Y142788D01*
X1428212Y142958D01*
X1428294Y143126D01*
X1428380Y143292D01*
X1428470Y143456D01*
X1428564Y143617D01*
X1428662Y143777D01*
X1428764Y143933D01*
X1428870Y144088D01*
X1428980Y144239D01*
X1429093Y144388D01*
X1429210Y144534D01*
X1429330Y144677D01*
X1429454Y144817D01*
X1429581Y144954D01*
X1429712Y145088D01*
X1429846Y145219D01*
X1429983Y145346D01*
X1430123Y145470D01*
X1430266Y145590D01*
X1430412Y145707D01*
X1430561Y145820D01*
X1430712Y145930D01*
X1430867Y146036D01*
X1431023Y146138D01*
X1431183Y146236D01*
X1431344Y146330D01*
X1431508Y146420D01*
X1431674Y146506D01*
X1431842Y146588D01*
X1432012Y146666D01*
X1432184Y146740D01*
X1432358Y146809D01*
X1432533Y146875D01*
X1432710Y146935D01*
X1432888Y146992D01*
X1433068Y147044D01*
X1433248Y147092D01*
X1433430Y147135D01*
X1433613Y147174D01*
X1433797Y147208D01*
X1433982Y147238D01*
X1434167Y147263D01*
X1434353Y147283D01*
X1434539Y147299D01*
X1434726Y147311D01*
X1434913Y147318D01*
X1435100Y147320D01*
X1435287Y147318D01*
X1435474Y147311D01*
X1435661Y147299D01*
X1435847Y147283D01*
X1436033Y147263D01*
X1436218Y147238D01*
X1436403Y147208D01*
X1436587Y147174D01*
X1436770Y147135D01*
X1436952Y147092D01*
X1437132Y147044D01*
X1437312Y146992D01*
X1437490Y146935D01*
X1437667Y146875D01*
X1437842Y146809D01*
X1438016Y146740D01*
X1438188Y146666D01*
X1438358Y146588D01*
X1438526Y146506D01*
X1438692Y146420D01*
X1438856Y146330D01*
X1439017Y146236D01*
X1439177Y146138D01*
X1439333Y146036D01*
X1439488Y145930D01*
X1439639Y145820D01*
X1439788Y145707D01*
X1439934Y145590D01*
X1440077Y145470D01*
X1440217Y145346D01*
X1440354Y145219D01*
X1440488Y145088D01*
X1440619Y144954D01*
X1440746Y144817D01*
X1440870Y144677D01*
X1440990Y144534D01*
X1441107Y144388D01*
X1441220Y144239D01*
X1441330Y144088D01*
X1441436Y143933D01*
X1441538Y143777D01*
X1441636Y143617D01*
X1441730Y143456D01*
X1441820Y143292D01*
X1441906Y143126D01*
X1441988Y142958D01*
X1442066Y142788D01*
X1442140Y142616D01*
X1442209Y142442D01*
X1442275Y142267D01*
X1442335Y142090D01*
X1442392Y141912D01*
X1442444Y141732D01*
X1442492Y141552D01*
X1442535Y141370D01*
X1442574Y141187D01*
X1442608Y141003D01*
X1442638Y140818D01*
X1442663Y140633D01*
X1442683Y140447D01*
X1442699Y140261D01*
X1442711Y140074D01*
X1442718Y139887D01*
X1442720Y139700D01*
X1442718Y139513D01*
X1442711Y139326D01*
X1442699Y139139D01*
X1442683Y138953D01*
X1442663Y138767D01*
X1442638Y138582D01*
X1442608Y138397D01*
X1442574Y138213D01*
X1442535Y138030D01*
X1442492Y137848D01*
X1442444Y137668D01*
X1442392Y137488D01*
X1442335Y137310D01*
X1442275Y137133D01*
X1442209Y136958D01*
X1442140Y136784D01*
X1442066Y136612D01*
X1441988Y136442D01*
X1441906Y136274D01*
X1441820Y136108D01*
X1441730Y135944D01*
X1441636Y135783D01*
X1441538Y135623D01*
X1441436Y135467D01*
X1441330Y135312D01*
X1441220Y135161D01*
X1441107Y135012D01*
X1440990Y134866D01*
X1440870Y134723D01*
X1440746Y134583D01*
X1440619Y134446D01*
X1440488Y134312D01*
X1440354Y134181D01*
X1440217Y134054D01*
X1440077Y133930D01*
X1439934Y133810D01*
X1439788Y133693D01*
X1439639Y133580D01*
X1439488Y133470D01*
X1439333Y133364D01*
X1439177Y133262D01*
X1439017Y133164D01*
X1438856Y133070D01*
X1438692Y132980D01*
X1438526Y132894D01*
X1438358Y132812D01*
X1438188Y132734D01*
X1438016Y132660D01*
X1437842Y132591D01*
X1437667Y132525D01*
X1437490Y132465D01*
X1437312Y132408D01*
X1437132Y132356D01*
X1436952Y132308D01*
X1436770Y132265D01*
X1436587Y132226D01*
X1436403Y132192D01*
X1436218Y132162D01*
X1436033Y132137D01*
X1435847Y132117D01*
X1435661Y132101D01*
X1435474Y132089D01*
X1435287Y132082D01*
X1435100Y132080D01*
X1434913Y132082D01*
X1434726Y132089D01*
X1434539Y132101D01*
X1434353Y132117D01*
X1434167Y132137D01*
X1433982Y132162D01*
X1433797Y132192D01*
X1433613Y132226D01*
X1433430Y132265D01*
X1433248Y132308D01*
X1433068Y132356D01*
X1432888Y132408D01*
X1432710Y132465D01*
X1432533Y132525D01*
X1432358Y132591D01*
X1432184Y132660D01*
X1432012Y132734D01*
X1431842Y132812D01*
X1431674Y132894D01*
X1431508Y132980D01*
X1431344Y133070D01*
X1431183Y133164D01*
X1431023Y133262D01*
X1430867Y133364D01*
X1430712Y133470D01*
X1430561Y133580D01*
X1430412Y133693D01*
X1430266Y133810D01*
X1430123Y133930D01*
X1429983Y134054D01*
X1429846Y134181D01*
X1429712Y134312D01*
X1429581Y134446D01*
X1429454Y134583D01*
X1429330Y134723D01*
X1429210Y134866D01*
X1429093Y135012D01*
X1428980Y135161D01*
X1428870Y135312D01*
X1428764Y135467D01*
X1428662Y135623D01*
X1428564Y135783D01*
X1428470Y135944D01*
X1428380Y136108D01*
X1428294Y136274D01*
X1428212Y136442D01*
X1428134Y136612D01*
X1428060Y136784D01*
X1427991Y136958D01*
X1427925Y137133D01*
X1427865Y137310D01*
X1427808Y137488D01*
X1427756Y137668D01*
X1427708Y137848D01*
X1427665Y138030D01*
X1427626Y138213D01*
X1427592Y138397D01*
X1427562Y138582D01*
X1427537Y138767D01*
X1427517Y138953D01*
X1427501Y139139D01*
X1427489Y139326D01*
X1427482Y139513D01*
X1427480Y139700D01*
D14*
X1435100Y139700D03*
D13*
X1427480Y952500D02*
X1427482Y952687D01*
X1427489Y952874D01*
X1427501Y953061D01*
X1427517Y953247D01*
X1427537Y953433D01*
X1427562Y953618D01*
X1427592Y953803D01*
X1427626Y953987D01*
X1427665Y954170D01*
X1427708Y954352D01*
X1427756Y954532D01*
X1427808Y954712D01*
X1427865Y954890D01*
X1427925Y955067D01*
X1427991Y955242D01*
X1428060Y955416D01*
X1428134Y955588D01*
X1428212Y955758D01*
X1428294Y955926D01*
X1428380Y956092D01*
X1428470Y956256D01*
X1428564Y956417D01*
X1428662Y956577D01*
X1428764Y956733D01*
X1428870Y956888D01*
X1428980Y957039D01*
X1429093Y957188D01*
X1429210Y957334D01*
X1429330Y957477D01*
X1429454Y957617D01*
X1429581Y957754D01*
X1429712Y957888D01*
X1429846Y958019D01*
X1429983Y958146D01*
X1430123Y958270D01*
X1430266Y958390D01*
X1430412Y958507D01*
X1430561Y958620D01*
X1430712Y958730D01*
X1430867Y958836D01*
X1431023Y958938D01*
X1431183Y959036D01*
X1431344Y959130D01*
X1431508Y959220D01*
X1431674Y959306D01*
X1431842Y959388D01*
X1432012Y959466D01*
X1432184Y959540D01*
X1432358Y959609D01*
X1432533Y959675D01*
X1432710Y959735D01*
X1432888Y959792D01*
X1433068Y959844D01*
X1433248Y959892D01*
X1433430Y959935D01*
X1433613Y959974D01*
X1433797Y960008D01*
X1433982Y960038D01*
X1434167Y960063D01*
X1434353Y960083D01*
X1434539Y960099D01*
X1434726Y960111D01*
X1434913Y960118D01*
X1435100Y960120D01*
X1435287Y960118D01*
X1435474Y960111D01*
X1435661Y960099D01*
X1435847Y960083D01*
X1436033Y960063D01*
X1436218Y960038D01*
X1436403Y960008D01*
X1436587Y959974D01*
X1436770Y959935D01*
X1436952Y959892D01*
X1437132Y959844D01*
X1437312Y959792D01*
X1437490Y959735D01*
X1437667Y959675D01*
X1437842Y959609D01*
X1438016Y959540D01*
X1438188Y959466D01*
X1438358Y959388D01*
X1438526Y959306D01*
X1438692Y959220D01*
X1438856Y959130D01*
X1439017Y959036D01*
X1439177Y958938D01*
X1439333Y958836D01*
X1439488Y958730D01*
X1439639Y958620D01*
X1439788Y958507D01*
X1439934Y958390D01*
X1440077Y958270D01*
X1440217Y958146D01*
X1440354Y958019D01*
X1440488Y957888D01*
X1440619Y957754D01*
X1440746Y957617D01*
X1440870Y957477D01*
X1440990Y957334D01*
X1441107Y957188D01*
X1441220Y957039D01*
X1441330Y956888D01*
X1441436Y956733D01*
X1441538Y956577D01*
X1441636Y956417D01*
X1441730Y956256D01*
X1441820Y956092D01*
X1441906Y955926D01*
X1441988Y955758D01*
X1442066Y955588D01*
X1442140Y955416D01*
X1442209Y955242D01*
X1442275Y955067D01*
X1442335Y954890D01*
X1442392Y954712D01*
X1442444Y954532D01*
X1442492Y954352D01*
X1442535Y954170D01*
X1442574Y953987D01*
X1442608Y953803D01*
X1442638Y953618D01*
X1442663Y953433D01*
X1442683Y953247D01*
X1442699Y953061D01*
X1442711Y952874D01*
X1442718Y952687D01*
X1442720Y952500D01*
X1442718Y952313D01*
X1442711Y952126D01*
X1442699Y951939D01*
X1442683Y951753D01*
X1442663Y951567D01*
X1442638Y951382D01*
X1442608Y951197D01*
X1442574Y951013D01*
X1442535Y950830D01*
X1442492Y950648D01*
X1442444Y950468D01*
X1442392Y950288D01*
X1442335Y950110D01*
X1442275Y949933D01*
X1442209Y949758D01*
X1442140Y949584D01*
X1442066Y949412D01*
X1441988Y949242D01*
X1441906Y949074D01*
X1441820Y948908D01*
X1441730Y948744D01*
X1441636Y948583D01*
X1441538Y948423D01*
X1441436Y948267D01*
X1441330Y948112D01*
X1441220Y947961D01*
X1441107Y947812D01*
X1440990Y947666D01*
X1440870Y947523D01*
X1440746Y947383D01*
X1440619Y947246D01*
X1440488Y947112D01*
X1440354Y946981D01*
X1440217Y946854D01*
X1440077Y946730D01*
X1439934Y946610D01*
X1439788Y946493D01*
X1439639Y946380D01*
X1439488Y946270D01*
X1439333Y946164D01*
X1439177Y946062D01*
X1439017Y945964D01*
X1438856Y945870D01*
X1438692Y945780D01*
X1438526Y945694D01*
X1438358Y945612D01*
X1438188Y945534D01*
X1438016Y945460D01*
X1437842Y945391D01*
X1437667Y945325D01*
X1437490Y945265D01*
X1437312Y945208D01*
X1437132Y945156D01*
X1436952Y945108D01*
X1436770Y945065D01*
X1436587Y945026D01*
X1436403Y944992D01*
X1436218Y944962D01*
X1436033Y944937D01*
X1435847Y944917D01*
X1435661Y944901D01*
X1435474Y944889D01*
X1435287Y944882D01*
X1435100Y944880D01*
X1434913Y944882D01*
X1434726Y944889D01*
X1434539Y944901D01*
X1434353Y944917D01*
X1434167Y944937D01*
X1433982Y944962D01*
X1433797Y944992D01*
X1433613Y945026D01*
X1433430Y945065D01*
X1433248Y945108D01*
X1433068Y945156D01*
X1432888Y945208D01*
X1432710Y945265D01*
X1432533Y945325D01*
X1432358Y945391D01*
X1432184Y945460D01*
X1432012Y945534D01*
X1431842Y945612D01*
X1431674Y945694D01*
X1431508Y945780D01*
X1431344Y945870D01*
X1431183Y945964D01*
X1431023Y946062D01*
X1430867Y946164D01*
X1430712Y946270D01*
X1430561Y946380D01*
X1430412Y946493D01*
X1430266Y946610D01*
X1430123Y946730D01*
X1429983Y946854D01*
X1429846Y946981D01*
X1429712Y947112D01*
X1429581Y947246D01*
X1429454Y947383D01*
X1429330Y947523D01*
X1429210Y947666D01*
X1429093Y947812D01*
X1428980Y947961D01*
X1428870Y948112D01*
X1428764Y948267D01*
X1428662Y948423D01*
X1428564Y948583D01*
X1428470Y948744D01*
X1428380Y948908D01*
X1428294Y949074D01*
X1428212Y949242D01*
X1428134Y949412D01*
X1428060Y949584D01*
X1427991Y949758D01*
X1427925Y949933D01*
X1427865Y950110D01*
X1427808Y950288D01*
X1427756Y950468D01*
X1427708Y950648D01*
X1427665Y950830D01*
X1427626Y951013D01*
X1427592Y951197D01*
X1427562Y951382D01*
X1427537Y951567D01*
X1427517Y951753D01*
X1427501Y951939D01*
X1427489Y952126D01*
X1427482Y952313D01*
X1427480Y952500D01*
D14*
X1435100Y952500D03*
D15*
X38100Y50800D03*
X38100Y1028700D03*
X1422400Y1028700D03*
X1422400Y50800D03*
D16*
X84500Y955300D03*
D17*
X84500Y929900D03*
X109900Y955300D03*
X109900Y929900D03*
X135300Y955300D03*
X135300Y929900D03*
X160700Y955300D03*
X160700Y929900D03*
X186100Y955300D03*
X186100Y929900D03*
X211500Y955300D03*
X211500Y929900D03*
X236900Y955300D03*
X236900Y929900D03*
X262300Y955300D03*
X262300Y929900D03*
X287700Y955300D03*
X287700Y929900D03*
X313100Y955300D03*
X313100Y929900D03*
X338500Y955300D03*
X338500Y929900D03*
X363900Y955300D03*
X363900Y929900D03*
X389300Y955300D03*
X389300Y929900D03*
X414700Y955300D03*
X414700Y929900D03*
X440100Y955300D03*
X440100Y929900D03*
X465500Y955300D03*
X465500Y929900D03*
X490900Y955300D03*
X490900Y929900D03*
X516300Y955300D03*
X516300Y929900D03*
D16*
X84500Y701300D03*
D17*
X84500Y675900D03*
X109900Y701300D03*
X109900Y675900D03*
X135300Y701300D03*
X135300Y675900D03*
X160700Y701300D03*
X160700Y675900D03*
X186100Y701300D03*
X186100Y675900D03*
X211500Y701300D03*
X211500Y675900D03*
X236900Y701300D03*
X236900Y675900D03*
X262300Y701300D03*
X262300Y675900D03*
X287700Y701300D03*
X287700Y675900D03*
X313100Y701300D03*
X313100Y675900D03*
X338500Y701300D03*
X338500Y675900D03*
X363900Y701300D03*
X363900Y675900D03*
X389300Y701300D03*
X389300Y675900D03*
X414700Y701300D03*
X414700Y675900D03*
X440100Y701300D03*
X440100Y675900D03*
X465500Y701300D03*
X465500Y675900D03*
X490900Y701300D03*
X490900Y675900D03*
X516300Y701300D03*
X516300Y675900D03*
D18*
X240300Y240900D03*
X240300Y190900D03*
X115300Y190900D03*
X115300Y240900D03*
X1396000Y240900D03*
X1396000Y190900D03*
X1271000Y190900D03*
X1271000Y240900D03*
D19*
X330200Y596900D03*
D12*
X330200Y571500D03*
X330200Y546100D03*
X330200Y520700D03*
X330200Y495300D03*
X330200Y469900D03*
X330200Y444500D03*
X330200Y419100D03*
X330200Y393700D03*
X330200Y368300D03*
X330200Y342900D03*
X330200Y317500D03*
X330200Y292100D03*
X330200Y266700D03*
X330200Y241300D03*
X330200Y215900D03*
X330200Y190500D03*
X330200Y165100D03*
X330200Y139700D03*
X330200Y114300D03*
X1193800Y596900D03*
X1193800Y571500D03*
X1193800Y546100D03*
X1193800Y520700D03*
X1193800Y495300D03*
X1193800Y469900D03*
X1193800Y444500D03*
X1193800Y419100D03*
X1193800Y393700D03*
X1193800Y368300D03*
X1193800Y342900D03*
X1193800Y317500D03*
X1193800Y292100D03*
X1193800Y266700D03*
X1193800Y241300D03*
X1193800Y215900D03*
X1193800Y190500D03*
X1193800Y165100D03*
X1193800Y139700D03*
X1193800Y114300D03*
M02*
